<svg xmlns="http://www.w3.org/2000/svg" width="1920" height="1080"><path d="M454,1382L33,1420L1016,1429Z" fill="#616161" stroke="#616161" stroke-width="1.51"/><path d="M789,-326L1351,-252L1503,-277Z" fill="#b8b8b8" stroke="#b8b8b8" stroke-width="1.51"/><path d="M1980,853L2109,1027L2171,669Z" fill="#3c3c3c" stroke="#3c3c3c" stroke-width="1.51"/><path d="M2171,669L2109,1027L2198,1210Z" fill="#313131" stroke="#313131" stroke-width="1.51"/><path d="M789,-326L1503,-277L2211,-302Z" fill="#a9a9a9" stroke="#a9a9a9" stroke-width="1.51"/><path d="M1503,-277L1859,-234L2211,-302Z" fill="#8d8d8d" stroke="#8d8d8d" stroke-width="1.51"/><path d="M2192,257L1912,411L2224,486Z" fill="#5d5d5d" stroke="#5d5d5d" stroke-width="1.51"/><path d="M2171,669L2198,1210L2224,486Z" fill="#3b3b3b" stroke="#3b3b3b" stroke-width="1.51"/><path d="M2087,175L2192,257L2251,-43Z" fill="#696969" stroke="#696969" stroke-width="1.51"/><path d="M2211,-302L2024,-81L2251,-43Z" fill="#767676" stroke="#767676" stroke-width="1.51"/><path d="M2024,-81L2087,175L2251,-43Z" fill="#717171" stroke="#717171" stroke-width="1.51"/><path d="M2192,257L2224,486L2251,-43Z" fill="#616161" stroke="#616161" stroke-width="1.51"/><path d="M1908,1344L1519,1433L2252,1428Z" fill="#1b1b1b" stroke="#1b1b1b" stroke-width="1.51"/><path d="M2198,1210L1908,1344L2252,1428Z" fill="#151515" stroke="#151515" stroke-width="1.51"/><path d="M2224,486L2198,1210L2252,1428Z" fill="#282828" stroke="#282828" stroke-width="1.51"/><path d="M2251,-43L2224,486L2252,1428Z" fill="#444444" stroke="#444444" stroke-width="1.51"/><path d="M1911,601L2171,669L2224,486Z" fill="#4e4e4e" stroke="#4e4e4e" stroke-width="1.51"/><path d="M1912,411L1911,601L2224,486Z" fill="#595959" stroke="#595959" stroke-width="1.51"/><path d="M1894,-181L2024,-81L2211,-302Z" fill="#7e7e7e" stroke="#7e7e7e" stroke-width="1.51"/><path d="M1859,-234L1894,-181L2211,-302Z" fill="#838383" stroke="#838383" stroke-width="1.51"/><path d="M2087,175L1912,411L2192,257Z" fill="#676767" stroke="#676767" stroke-width="1.51"/><path d="M2109,1027L1921,1163L2198,1210Z" fill="#262626" stroke="#262626" stroke-width="1.51"/><path d="M1921,1163L1908,1344L2198,1210Z" fill="#202020" stroke="#202020" stroke-width="1.51"/><path d="M1911,601L1980,853L2171,669Z" fill="#4a4a4a" stroke="#4a4a4a" stroke-width="1.51"/><path d="M1911,601L1910,833L1980,853Z" fill="#4a4a4a" stroke="#4a4a4a" stroke-width="1.51"/><path d="M2024,-81L1882,238L2087,175Z" fill="#747474" stroke="#747474" stroke-width="1.51"/><path d="M1882,238L1912,411L2087,175Z" fill="#6d6d6d" stroke="#6d6d6d" stroke-width="1.51"/><path d="M1980,853L1921,1163L2109,1027Z" fill="#353535" stroke="#353535" stroke-width="1.51"/><path d="M1834,1123L1921,1163L1980,853Z" fill="#373737" stroke="#373737" stroke-width="1.51"/><path d="M1843,-89L1882,238L2024,-81Z" fill="#7d7d7d" stroke="#7d7d7d" stroke-width="1.51"/><path d="M1809,711L1910,833L1911,601Z" fill="#525252" stroke="#525252" stroke-width="1.51"/><path d="M1910,833L1834,1123L1980,853Z" fill="#414141" stroke="#414141" stroke-width="1.51"/><path d="M1894,-181L1843,-89L2024,-81Z" fill="#838383" stroke="#838383" stroke-width="1.51"/><path d="M1843,-89L1767,215L1882,238Z" fill="#7f7f7f" stroke="#7f7f7f" stroke-width="1.51"/><path d="M1676,1024L1834,1123L1910,833Z" fill="#434343" stroke="#434343" stroke-width="1.51"/><path d="M1843,569L1911,601L1912,411Z" fill="#5f5f5f" stroke="#5f5f5f" stroke-width="1.51"/><path d="M1840,1277L1908,1344L1921,1163Z" fill="#252525" stroke="#252525" stroke-width="1.51"/><path d="M1767,215L1688,405L1882,238Z" fill="#7a7a7a" stroke="#7a7a7a" stroke-width="1.51"/><path d="M1840,1277L1519,1433L1908,1344Z" fill="#272727" stroke="#272727" stroke-width="1.51"/><path d="M1843,569L1809,711L1911,601Z" fill="#5a5a5a" stroke="#5a5a5a" stroke-width="1.51"/><path d="M1882,238L1688,405L1912,411Z" fill="#717171" stroke="#717171" stroke-width="1.51"/><path d="M1834,1123L1840,1277L1921,1163Z" fill="#2c2c2c" stroke="#2c2c2c" stroke-width="1.51"/><path d="M1809,711L1676,1024L1910,833Z" fill="#4d4d4d" stroke="#4d4d4d" stroke-width="1.51"/><path d="M1688,405L1843,569L1912,411Z" fill="#696969" stroke="#696969" stroke-width="1.51"/><path d="M789,-326L901,-273L1351,-252Z" fill="#c4c4c4" stroke="#c4c4c4" stroke-width="1.51"/><path d="M1628,-120L1767,215L1843,-89Z" fill="#8b8b8b" stroke="#8b8b8b" stroke-width="1.51"/><path d="M1859,-234L1843,-89L1894,-181Z" fill="#898989" stroke="#898989" stroke-width="1.51"/><path d="M1628,-120L1843,-89L1859,-234Z" fill="#909090" stroke="#909090" stroke-width="1.51"/><path d="M1503,-277L1628,-120L1859,-234Z" fill="#9b9b9b" stroke="#9b9b9b" stroke-width="1.51"/><path d="M1499,909L1676,1024L1809,711Z" fill="#565656" stroke="#565656" stroke-width="1.51"/><path d="M1676,1024L1467,1108L1840,1277Z" fill="#3f3f3f" stroke="#3f3f3f" stroke-width="1.51"/><path d="M1467,1108L1445,1311L1840,1277Z" fill="#3b3b3b" stroke="#3b3b3b" stroke-width="1.51"/><path d="M1834,1123L1676,1024L1840,1277Z" fill="#363636" stroke="#363636" stroke-width="1.51"/><path d="M1510,468L1809,711L1843,569Z" fill="#676767" stroke="#676767" stroke-width="1.51"/><path d="M1688,405L1510,468L1843,569Z" fill="#727272" stroke="#727272" stroke-width="1.51"/><path d="M1445,1311L1519,1433L1840,1277Z" fill="#323232" stroke="#323232" stroke-width="1.51"/><path d="M1510,468L1484,721L1809,711Z" fill="#6c6c6c" stroke="#6c6c6c" stroke-width="1.51"/><path d="M901,-273L1089,-226L1351,-252Z" fill="#bdbdbd" stroke="#bdbdbd" stroke-width="1.51"/><path d="M1628,-120L1474,232L1767,215Z" fill="#919191" stroke="#919191" stroke-width="1.51"/><path d="M1484,721L1499,909L1809,711Z" fill="#626262" stroke="#626262" stroke-width="1.51"/><path d="M1573,379L1688,405L1767,215Z" fill="#7f7f7f" stroke="#7f7f7f" stroke-width="1.51"/><path d="M1474,232L1573,379L1767,215Z" fill="#888888" stroke="#888888" stroke-width="1.51"/><path d="M156,-330L365,-292L789,-326Z" fill="#e5e5e5" stroke="#e5e5e5" stroke-width="1.51"/><path d="M1308,45L1474,232L1628,-120Z" fill="#9c9c9c" stroke="#9c9c9c" stroke-width="1.51"/><path d="M1573,379L1510,468L1688,405Z" fill="#7e7e7e" stroke="#7e7e7e" stroke-width="1.51"/><path d="M1499,909L1442,971L1676,1024Z" fill="#575757" stroke="#575757" stroke-width="1.51"/><path d="M1442,971L1467,1108L1676,1024Z" fill="#515151" stroke="#515151" stroke-width="1.51"/><path d="M1216,1347L1016,1429L1519,1433Z" fill="#3e3e3e" stroke="#3e3e3e" stroke-width="1.51"/><path d="M1503,-277L1351,-252L1628,-120Z" fill="#a6a6a6" stroke="#a6a6a6" stroke-width="1.51"/><path d="M1351,-252L1282,-59L1628,-120Z" fill="#a8a8a8" stroke="#a8a8a8" stroke-width="1.51"/><path d="M1282,-59L1308,45L1628,-120Z" fill="#a4a4a4" stroke="#a4a4a4" stroke-width="1.51"/><path d="M1419,372L1510,468L1573,379Z" fill="#848484" stroke="#848484" stroke-width="1.51"/><path d="M1474,232L1419,372L1573,379Z" fill="#8b8b8b" stroke="#8b8b8b" stroke-width="1.51"/><path d="M1314,1185L1445,1311L1467,1108Z" fill="#464646" stroke="#464646" stroke-width="1.51"/><path d="M1300,500L1263,645L1484,721Z" fill="#7a7a7a" stroke="#7a7a7a" stroke-width="1.51"/><path d="M1484,721L1442,971L1499,909Z" fill="#616161" stroke="#616161" stroke-width="1.51"/><path d="M1300,500L1484,721L1510,468Z" fill="#7b7b7b" stroke="#7b7b7b" stroke-width="1.51"/><path d="M1445,1311L1216,1347L1519,1433Z" fill="#3a3a3a" stroke="#3a3a3a" stroke-width="1.51"/><path d="M1263,645L1442,971L1484,721Z" fill="#6c6c6c" stroke="#6c6c6c" stroke-width="1.51"/><path d="M1419,372L1300,500L1510,468Z" fill="#858585" stroke="#858585" stroke-width="1.51"/><path d="M1263,645L1092,884L1442,971Z" fill="#6f6f6f" stroke="#6f6f6f" stroke-width="1.51"/><path d="M1442,971L1314,1185L1467,1108Z" fill="#525252" stroke="#525252" stroke-width="1.51"/><path d="M1208,135L1419,372L1474,232Z" fill="#969696" stroke="#969696" stroke-width="1.51"/><path d="M1308,45L1208,135L1474,232Z" fill="#9f9f9f" stroke="#9f9f9f" stroke-width="1.51"/><path d="M1091,1042L1314,1185L1442,971Z" fill="#5a5a5a" stroke="#5a5a5a" stroke-width="1.51"/><path d="M1314,1185L1216,1347L1445,1311Z" fill="#434343" stroke="#434343" stroke-width="1.51"/><path d="M1092,884L1091,1042L1442,971Z" fill="#686868" stroke="#686868" stroke-width="1.51"/><path d="M1208,135L1108,386L1419,372Z" fill="#9a9a9a" stroke="#9a9a9a" stroke-width="1.51"/><path d="M1139,442L1300,500L1419,372Z" fill="#8d8d8d" stroke="#8d8d8d" stroke-width="1.51"/><path d="M1108,386L1139,442L1419,372Z" fill="#949494" stroke="#949494" stroke-width="1.51"/><path d="M1060,744L1092,884L1263,645Z" fill="#7b7b7b" stroke="#7b7b7b" stroke-width="1.51"/><path d="M1089,-226L1282,-59L1351,-252Z" fill="#b4b4b4" stroke="#b4b4b4" stroke-width="1.51"/><path d="M1089,-226L1216,-25L1282,-59Z" fill="#b3b3b3" stroke="#b3b3b3" stroke-width="1.51"/><path d="M1282,-59L1216,-25L1308,45Z" fill="#aaaaaa" stroke="#aaaaaa" stroke-width="1.51"/><path d="M1091,1042L1216,1347L1314,1185Z" fill="#505050" stroke="#505050" stroke-width="1.51"/><path d="M1139,442L1263,645L1300,500Z" fill="#888888" stroke="#888888" stroke-width="1.51"/><path d="M1216,-25L1208,135L1308,45Z" fill="#a9a9a9" stroke="#a9a9a9" stroke-width="1.51"/><path d="M1009,248L1108,386L1208,135Z" fill="#a4a4a4" stroke="#a4a4a4" stroke-width="1.51"/><path d="M1139,442L1060,744L1263,645Z" fill="#868686" stroke="#868686" stroke-width="1.51"/><path d="M914,608L1060,744L1139,442Z" fill="#8d8d8d" stroke="#8d8d8d" stroke-width="1.51"/><path d="M1045,-7L1013,48L1208,135Z" fill="#b1b1b1" stroke="#b1b1b1" stroke-width="1.51"/><path d="M1045,-7L1208,135L1216,-25Z" fill="#afafaf" stroke="#afafaf" stroke-width="1.51"/><path d="M1089,-226L1045,-7L1216,-25Z" fill="#b7b7b7" stroke="#b7b7b7" stroke-width="1.51"/><path d="M1091,1042L940,1098L1216,1347Z" fill="#5a5a5a" stroke="#5a5a5a" stroke-width="1.51"/><path d="M940,1098L1016,1429L1216,1347Z" fill="#4f4f4f" stroke="#4f4f4f" stroke-width="1.51"/><path d="M1013,48L1009,248L1208,135Z" fill="#adadad" stroke="#adadad" stroke-width="1.51"/><path d="M1007,977L1091,1042L1092,884Z" fill="#6f6f6f" stroke="#6f6f6f" stroke-width="1.51"/><path d="M1108,386L914,608L1139,442Z" fill="#969696" stroke="#969696" stroke-width="1.51"/><path d="M940,1098L772,1249L1016,1429Z" fill="#5a5a5a" stroke="#5a5a5a" stroke-width="1.51"/><path d="M901,-273L1045,-7L1089,-226Z" fill="#c0c0c0" stroke="#c0c0c0" stroke-width="1.51"/><path d="M1060,744L961,787L1092,884Z" fill="#7d7d7d" stroke="#7d7d7d" stroke-width="1.51"/><path d="M1009,248L914,608L1108,386Z" fill="#9e9e9e" stroke="#9e9e9e" stroke-width="1.51"/><path d="M901,-273L793,-56L1045,-7Z" fill="#c4c4c4" stroke="#c4c4c4" stroke-width="1.51"/><path d="M1007,977L940,1098L1091,1042Z" fill="#6b6b6b" stroke="#6b6b6b" stroke-width="1.51"/><path d="M961,787L1007,977L1092,884Z" fill="#787878" stroke="#787878" stroke-width="1.51"/><path d="M736,284L914,608L1009,248Z" fill="#a8a8a8" stroke="#a8a8a8" stroke-width="1.51"/><path d="M614,1290L454,1382L1016,1429Z" fill="#5d5d5d" stroke="#5d5d5d" stroke-width="1.51"/><path d="M914,608L961,787L1060,744Z" fill="#878787" stroke="#878787" stroke-width="1.51"/><path d="M961,787L843,859L1007,977Z" fill="#7d7d7d" stroke="#7d7d7d" stroke-width="1.51"/><path d="M731,149L1009,248L1013,48Z" fill="#b6b6b6" stroke="#b6b6b6" stroke-width="1.51"/><path d="M793,-56L1013,48L1045,-7Z" fill="#bcbcbc" stroke="#bcbcbc" stroke-width="1.51"/><path d="M736,284L664,491L914,608Z" fill="#a8a8a8" stroke="#a8a8a8" stroke-width="1.51"/><path d="M914,608L830,689L961,787Z" fill="#8d8d8d" stroke="#8d8d8d" stroke-width="1.51"/><path d="M772,1249L614,1290L1016,1429Z" fill="#5b5b5b" stroke="#5b5b5b" stroke-width="1.51"/><path d="M731,149L736,284L1009,248Z" fill="#b7b7b7" stroke="#b7b7b7" stroke-width="1.51"/><path d="M793,-56L731,149L1013,48Z" fill="#c0c0c0" stroke="#c0c0c0" stroke-width="1.51"/><path d="M843,859L940,1098L1007,977Z" fill="#767676" stroke="#767676" stroke-width="1.51"/><path d="M830,689L843,859L961,787Z" fill="#888888" stroke="#888888" stroke-width="1.51"/><path d="M843,859L706,1214L940,1098Z" fill="#737373" stroke="#737373" stroke-width="1.51"/><path d="M706,1214L772,1249L940,1098Z" fill="#656565" stroke="#656565" stroke-width="1.51"/><path d="M789,-326L793,-56L901,-273Z" fill="#cdcdcd" stroke="#cdcdcd" stroke-width="1.51"/><path d="M664,491L830,689L914,608Z" fill="#9b9b9b" stroke="#9b9b9b" stroke-width="1.51"/><path d="M521,902L706,1214L843,859Z" fill="#828282" stroke="#828282" stroke-width="1.51"/><path d="M521,902L509,1108L706,1214Z" fill="#7e7e7e" stroke="#7e7e7e" stroke-width="1.51"/><path d="M789,-326L587,-160L793,-56Z" fill="#d2d2d2" stroke="#d2d2d2" stroke-width="1.51"/><path d="M830,689L500,806L843,859Z" fill="#909090" stroke="#909090" stroke-width="1.51"/><path d="M500,806L521,902L843,859Z" fill="#909090" stroke="#909090" stroke-width="1.51"/><path d="M631,338L664,491L736,284Z" fill="#b5b5b5" stroke="#b5b5b5" stroke-width="1.51"/><path d="M664,491L582,512L830,689Z" fill="#a4a4a4" stroke="#a4a4a4" stroke-width="1.51"/><path d="M582,512L500,806L830,689Z" fill="#9f9f9f" stroke="#9f9f9f" stroke-width="1.51"/><path d="M365,-292L573,-170L789,-326Z" fill="#dddddd" stroke="#dddddd" stroke-width="1.51"/><path d="M573,-170L587,-160L789,-326Z" fill="#d8d8d8" stroke="#d8d8d8" stroke-width="1.51"/><path d="M531,80L731,149L793,-56Z" fill="#c9c9c9" stroke="#c9c9c9" stroke-width="1.51"/><path d="M587,-160L531,80L793,-56Z" fill="#d2d2d2" stroke="#d2d2d2" stroke-width="1.51"/><path d="M706,1214L614,1290L772,1249Z" fill="#656565" stroke="#656565" stroke-width="1.51"/><path d="M531,80L631,338L731,149Z" fill="#c5c5c5" stroke="#c5c5c5" stroke-width="1.51"/><path d="M731,149L631,338L736,284Z" fill="#bcbcbc" stroke="#bcbcbc" stroke-width="1.51"/><path d="M509,1108L614,1290L706,1214Z" fill="#6e6e6e" stroke="#6e6e6e" stroke-width="1.51"/><path d="M421,561L500,806L582,512Z" fill="#a7a7a7" stroke="#a7a7a7" stroke-width="1.51"/><path d="M631,338L582,512L664,491Z" fill="#b2b2b2" stroke="#b2b2b2" stroke-width="1.51"/><path d="M282,431L421,561L582,512Z" fill="#b6b6b6" stroke="#b6b6b6" stroke-width="1.51"/><path d="M573,-170L531,80L587,-160Z" fill="#d7d7d7" stroke="#d7d7d7" stroke-width="1.51"/><path d="M282,431L582,512L631,338Z" fill="#b9b9b9" stroke="#b9b9b9" stroke-width="1.51"/><path d="M531,80L282,431L631,338Z" fill="#c5c5c5" stroke="#c5c5c5" stroke-width="1.51"/><path d="M301,78L282,431L531,80Z" fill="#d0d0d0" stroke="#d0d0d0" stroke-width="1.51"/><path d="M350,14L531,80L573,-170Z" fill="#d7d7d7" stroke="#d7d7d7" stroke-width="1.51"/><path d="M509,1108L454,1382L614,1290Z" fill="#6c6c6c" stroke="#6c6c6c" stroke-width="1.51"/><path d="M184,225L282,431L301,78Z" fill="#d1d1d1" stroke="#d1d1d1" stroke-width="1.51"/><path d="M365,-292L350,14L573,-170Z" fill="#e0e0e0" stroke="#e0e0e0" stroke-width="1.51"/><path d="M421,561L279,839L500,806Z" fill="#a3a3a3" stroke="#a3a3a3" stroke-width="1.51"/><path d="M451,863L275,1067L509,1108Z" fill="#8c8c8c" stroke="#8c8c8c" stroke-width="1.51"/><path d="M246,1253L454,1382L509,1108Z" fill="#737373" stroke="#737373" stroke-width="1.51"/><path d="M451,863L509,1108L521,902Z" fill="#8e8e8e" stroke="#8e8e8e" stroke-width="1.51"/><path d="M500,806L451,863L521,902Z" fill="#959595" stroke="#959595" stroke-width="1.51"/><path d="M350,14L301,78L531,80Z" fill="#d7d7d7" stroke="#d7d7d7" stroke-width="1.51"/><path d="M275,1067L246,1253L509,1108Z" fill="#808080" stroke="#808080" stroke-width="1.51"/><path d="M207,699L279,839L421,561Z" fill="#aaaaaa" stroke="#aaaaaa" stroke-width="1.51"/><path d="M279,839L451,863L500,806Z" fill="#9a9a9a" stroke="#9a9a9a" stroke-width="1.51"/><path d="M279,839L275,1067L451,863Z" fill="#979797" stroke="#979797" stroke-width="1.51"/><path d="M246,1253L33,1420L454,1382Z" fill="#707070" stroke="#707070" stroke-width="1.51"/><path d="M77,-74L350,14L365,-292Z" fill="#e5e5e5" stroke="#e5e5e5" stroke-width="1.51"/><path d="M282,431L207,699L421,561Z" fill="#b5b5b5" stroke="#b5b5b5" stroke-width="1.51"/><path d="M184,956L275,1067L279,839Z" fill="#979797" stroke="#979797" stroke-width="1.51"/><path d="M146,515L207,699L282,431Z" fill="#bababa" stroke="#bababa" stroke-width="1.51"/><path d="M156,-330L77,-74L365,-292Z" fill="#ebebeb" stroke="#ebebeb" stroke-width="1.51"/><path d="M77,-74L301,78L350,14Z" fill="#e0e0e0" stroke="#e0e0e0" stroke-width="1.51"/><path d="M98,1116L246,1253L275,1067Z" fill="#848484" stroke="#848484" stroke-width="1.51"/><path d="M184,225L90,333L282,431Z" fill="#cecece" stroke="#cecece" stroke-width="1.51"/><path d="M77,-74L184,225L301,78Z" fill="#dedede" stroke="#dedede" stroke-width="1.51"/><path d="M77,-74L5,163L184,225Z" fill="#e0e0e0" stroke="#e0e0e0" stroke-width="1.51"/><path d="M90,333L146,515L282,431Z" fill="#c6c6c6" stroke="#c6c6c6" stroke-width="1.51"/><path d="M7,-179L77,-74L156,-330Z" fill="#eeeeee" stroke="#eeeeee" stroke-width="1.51"/><path d="M207,699L184,956L279,839Z" fill="#a2a2a2" stroke="#a2a2a2" stroke-width="1.51"/><path d="M184,956L98,1116L275,1067Z" fill="#909090" stroke="#909090" stroke-width="1.51"/><path d="M-69,825L184,956L207,699Z" fill="#a6a6a6" stroke="#a6a6a6" stroke-width="1.51"/><path d="M98,1116L33,1420L246,1253Z" fill="#7b7b7b" stroke="#7b7b7b" stroke-width="1.51"/><path d="M146,515L6,572L207,699Z" fill="#b8b8b8" stroke="#b8b8b8" stroke-width="1.51"/><path d="M6,572L-69,825L207,699Z" fill="#b3b3b3" stroke="#b3b3b3" stroke-width="1.51"/><path d="M5,163L90,333L184,225Z" fill="#d7d7d7" stroke="#d7d7d7" stroke-width="1.51"/><path d="M-77,961L98,1116L184,956Z" fill="#989898" stroke="#989898" stroke-width="1.51"/><path d="M-69,825L-77,961L184,956Z" fill="#a2a2a2" stroke="#a2a2a2" stroke-width="1.51"/><path d="M-104,1138L33,1420L98,1116Z" fill="#818181" stroke="#818181" stroke-width="1.51"/><path d="M90,333L6,572L146,515Z" fill="#c4c4c4" stroke="#c4c4c4" stroke-width="1.51"/><path d="M-183,-320L7,-179L156,-330Z" fill="#f4f4f4" stroke="#f4f4f4" stroke-width="1.51"/><path d="M-93,386L6,572L90,333Z" fill="#cbcbcb" stroke="#cbcbcb" stroke-width="1.51"/><path d="M-134,-51L5,163L77,-74Z" fill="#e8e8e8" stroke="#e8e8e8" stroke-width="1.51"/><path d="M5,163L-93,386L90,333Z" fill="#d7d7d7" stroke="#d7d7d7" stroke-width="1.51"/><path d="M-77,961L-104,1138L98,1116Z" fill="#949494" stroke="#949494" stroke-width="1.51"/><path d="M-154,227L-93,386L5,163Z" fill="#dbdbdb" stroke="#dbdbdb" stroke-width="1.51"/><path d="M7,-179L-134,-51L77,-74Z" fill="#eeeeee" stroke="#eeeeee" stroke-width="1.51"/><path d="M-134,-51L-217,16L5,163Z" fill="#e9e9e9" stroke="#e9e9e9" stroke-width="1.51"/><path d="M-159,594L-69,825L6,572Z" fill="#b9b9b9" stroke="#b9b9b9" stroke-width="1.51"/><path d="M-104,1138L-248,1413L33,1420Z" fill="#7c7c7c" stroke="#7c7c7c" stroke-width="1.51"/><path d="M-159,594L-173,808L-69,825Z" fill="#b3b3b3" stroke="#b3b3b3" stroke-width="1.51"/><path d="M-217,16L-154,227L5,163Z" fill="#e4e4e4" stroke="#e4e4e4" stroke-width="1.51"/><path d="M-93,386L-159,594L6,572Z" fill="#c6c6c6" stroke="#c6c6c6" stroke-width="1.51"/><path d="M-183,-320L-134,-51L7,-179Z" fill="#f3f3f3" stroke="#f3f3f3" stroke-width="1.51"/><path d="M-284,1156L-248,1413L-104,1138Z" fill="#858585" stroke="#858585" stroke-width="1.51"/><path d="M-304,370L-159,594L-93,386Z" fill="#cecece" stroke="#cecece" stroke-width="1.51"/><path d="M-284,1156L-104,1138L-77,961Z" fill="#959595" stroke="#959595" stroke-width="1.51"/><path d="M-325,941L-284,1156L-77,961Z" fill="#9e9e9e" stroke="#9e9e9e" stroke-width="1.51"/><path d="M-173,808L-77,961L-69,825Z" fill="#a9a9a9" stroke="#a9a9a9" stroke-width="1.51"/><path d="M-173,808L-325,941L-77,961Z" fill="#a8a8a8" stroke="#a8a8a8" stroke-width="1.51"/><path d="M-154,227L-304,370L-93,386Z" fill="#d9d9d9" stroke="#d9d9d9" stroke-width="1.51"/><path d="M-183,-320L-217,16L-134,-51Z" fill="#f3f3f3" stroke="#f3f3f3" stroke-width="1.51"/><path d="M-325,941L-173,808L-159,594Z" fill="#b3b3b3" stroke="#b3b3b3" stroke-width="1.51"/><path d="M-217,16L-304,370L-154,227Z" fill="#e2e2e2" stroke="#e2e2e2" stroke-width="1.51"/><path d="M-304,370L-325,941L-159,594Z" fill="#bfbfbf" stroke="#bfbfbf" stroke-width="1.51"/><path d="M-304,370L-217,16L-183,-320Z" fill="#ededed" stroke="#ededed" stroke-width="1.51"/><path d="M-284,1156L-325,941L-248,1413Z" fill="#8e8e8e" stroke="#8e8e8e" stroke-width="1.51"/></svg>