<svg xmlns="http://www.w3.org/2000/svg" width="1920" height="1080"><path d="M99,-237L544,-214L690,-229Z" fill="#e5f5bd" stroke="#e5f5bd" stroke-width="1.51"/><path d="M571,1273L207,1317L814,1290Z" fill="#64965e" stroke="#64965e" stroke-width="1.51"/><path d="M814,1290L207,1317L939,1295Z" fill="#5b915b" stroke="#5b915b" stroke-width="1.51"/><path d="M1087,-187L1268,-179L1489,-197Z" fill="#a3d497" stroke="#a3d497" stroke-width="1.51"/><path d="M690,-229L1087,-187L1489,-197Z" fill="#b2dda2" stroke="#b2dda2" stroke-width="1.51"/><path d="M939,1295L207,1317L1525,1312Z" fill="#468853" stroke="#468853" stroke-width="1.51"/><path d="M1074,1275L939,1295L1525,1312Z" fill="#2c7e48" stroke="#2c7e48" stroke-width="1.51"/><path d="M690,-229L1489,-197L1675,-213Z" fill="#a3d49a" stroke="#a3d49a" stroke-width="1.51"/><path d="M1643,1256L1525,1312L1829,1239Z" fill="#0e6636" stroke="#0e6636" stroke-width="1.51"/><path d="M99,-237L690,-229L1860,-222Z" fill="#c3e6ae" stroke="#c3e6ae" stroke-width="1.51"/><path d="M690,-229L1675,-213L1860,-222Z" fill="#9ecc95" stroke="#9ecc95" stroke-width="1.51"/><path d="M1829,1239L1525,1312L1932,1238Z" fill="#086235" stroke="#086235" stroke-width="1.51"/><path d="M1860,-222L1925,-209L2092,-182Z" fill="#87ac82" stroke="#87ac82" stroke-width="1.51"/><path d="M1932,1238L1525,1312L2134,1211Z" fill="#015e33" stroke="#015e33" stroke-width="1.51"/><path d="M1975,978L2133,1105L2146,956Z" fill="#0c6536" stroke="#0c6536" stroke-width="1.51"/><path d="M2135,720L2106,851L2146,956Z" fill="#1a703d" stroke="#1a703d" stroke-width="1.51"/><path d="M2133,1105L2134,1211L2146,956Z" fill="#045d32" stroke="#045d32" stroke-width="1.51"/><path d="M2025,447L2094,559L2160,442Z" fill="#498c54" stroke="#498c54" stroke-width="1.51"/><path d="M2094,559L2135,720L2160,442Z" fill="#3b844f" stroke="#3b844f" stroke-width="1.51"/><path d="M2135,720L2146,956L2160,442Z" fill="#277b46" stroke="#277b46" stroke-width="1.51"/><path d="M2025,447L2160,442L2168,273Z" fill="#559058" stroke="#559058" stroke-width="1.51"/><path d="M1997,198L2025,447L2168,273Z" fill="#61975e" stroke="#61975e" stroke-width="1.51"/><path d="M2160,442L2146,956L2168,273Z" fill="#3d844f" stroke="#3d844f" stroke-width="1.51"/><path d="M2067,-60L1959,132L2170,85Z" fill="#79a16b" stroke="#79a16b" stroke-width="1.51"/><path d="M1959,132L1997,198L2170,85Z" fill="#73a067" stroke="#73a067" stroke-width="1.51"/><path d="M1997,198L2168,273L2170,85Z" fill="#6d9a63" stroke="#6d9a63" stroke-width="1.51"/><path d="M2092,-182L2067,-60L2170,85Z" fill="#80a16e" stroke="#80a16e" stroke-width="1.51"/><path d="M2094,559L1978,679L2135,720Z" fill="#31834b" stroke="#31834b" stroke-width="1.51"/><path d="M2133,1105L1997,1152L2134,1211Z" fill="#005b32" stroke="#005b32" stroke-width="1.51"/><path d="M1989,812L2106,851L2135,720Z" fill="#1f7842" stroke="#1f7842" stroke-width="1.51"/><path d="M2106,851L1975,978L2146,956Z" fill="#146b39" stroke="#146b39" stroke-width="1.51"/><path d="M1975,978L1997,1152L2133,1105Z" fill="#066335" stroke="#066335" stroke-width="1.51"/><path d="M1997,1152L1932,1238L2134,1211Z" fill="#005a32" stroke="#005a32" stroke-width="1.51"/><path d="M1978,679L1989,812L2135,720Z" fill="#248046" stroke="#248046" stroke-width="1.51"/><path d="M1958,-66L1959,132L2067,-60Z" fill="#7fa76f" stroke="#7fa76f" stroke-width="1.51"/><path d="M1989,812L1975,978L2106,851Z" fill="#18733d" stroke="#18733d" stroke-width="1.51"/><path d="M1958,-66L2067,-60L2092,-182Z" fill="#83a775" stroke="#83a775" stroke-width="1.51"/><path d="M1925,-209L1958,-66L2092,-182Z" fill="#85aa7c" stroke="#85aa7c" stroke-width="1.51"/><path d="M2025,447L1925,509L2094,559Z" fill="#489056" stroke="#489056" stroke-width="1.51"/><path d="M1925,509L1978,679L2094,559Z" fill="#3d8c51" stroke="#3d8c51" stroke-width="1.51"/><path d="M1838,223L1813,379L1997,198Z" fill="#69a465" stroke="#69a465" stroke-width="1.51"/><path d="M1997,198L1813,379L2025,447Z" fill="#609d5f" stroke="#609d5f" stroke-width="1.51"/><path d="M1958,-66L1834,-13L1959,132Z" fill="#80ac70" stroke="#80ac70" stroke-width="1.51"/><path d="M1975,978L1818,1095L1997,1152Z" fill="#076a38" stroke="#076a38" stroke-width="1.51"/><path d="M1813,379L1925,509L2025,447Z" fill="#52995b" stroke="#52995b" stroke-width="1.51"/><path d="M1834,-13L1876,130L1959,132Z" fill="#7cac6d" stroke="#7cac6d" stroke-width="1.51"/><path d="M1925,509L1849,531L1978,679Z" fill="#409253" stroke="#409253" stroke-width="1.51"/><path d="M1828,720L1843,792L1978,679Z" fill="#27894a" stroke="#27894a" stroke-width="1.51"/><path d="M1978,679L1843,792L1989,812Z" fill="#238447" stroke="#238447" stroke-width="1.51"/><path d="M1843,792L1975,978L1989,812Z" fill="#1b7a41" stroke="#1b7a41" stroke-width="1.51"/><path d="M1818,1095L1932,1238L1997,1152Z" fill="#006436" stroke="#006436" stroke-width="1.51"/><path d="M1959,132L1838,223L1997,198Z" fill="#72a667" stroke="#72a667" stroke-width="1.51"/><path d="M1876,130L1838,223L1959,132Z" fill="#76a96a" stroke="#76a96a" stroke-width="1.51"/><path d="M1843,792L1784,995L1975,978Z" fill="#17783e" stroke="#17783e" stroke-width="1.51"/><path d="M1849,531L1828,720L1978,679Z" fill="#368f50" stroke="#368f50" stroke-width="1.51"/><path d="M1784,995L1818,1095L1975,978Z" fill="#0e713b" stroke="#0e713b" stroke-width="1.51"/><path d="M1818,1095L1829,1239L1932,1238Z" fill="#016435" stroke="#016435" stroke-width="1.51"/><path d="M1925,-209L1860,-222L1958,-66Z" fill="#88af7f" stroke="#88af7f" stroke-width="1.51"/><path d="M1860,-222L1834,-13L1958,-66Z" fill="#88b179" stroke="#88b179" stroke-width="1.51"/><path d="M1813,379L1849,531L1925,509Z" fill="#4f9b5b" stroke="#4f9b5b" stroke-width="1.51"/><path d="M1726,-65L1834,-13L1860,-222Z" fill="#8bb57b" stroke="#8bb57b" stroke-width="1.51"/><path d="M99,-237L394,-207L544,-214Z" fill="#ecf7c0" stroke="#ecf7c0" stroke-width="1.51"/><path d="M1667,864L1784,995L1843,792Z" fill="#1f8143" stroke="#1f8143" stroke-width="1.51"/><path d="M1717,516L1828,720L1849,531Z" fill="#419755" stroke="#419755" stroke-width="1.51"/><path d="M1813,379L1717,516L1849,531Z" fill="#529d5c" stroke="#529d5c" stroke-width="1.51"/><path d="M1675,-213L1726,-65L1860,-222Z" fill="#8eb883" stroke="#8eb883" stroke-width="1.51"/><path d="M1637,123L1838,223L1876,130Z" fill="#79ae6c" stroke="#79ae6c" stroke-width="1.51"/><path d="M1834,-13L1637,123L1876,130Z" fill="#80b170" stroke="#80b170" stroke-width="1.51"/><path d="M1715,409L1717,516L1813,379Z" fill="#59a25f" stroke="#59a25f" stroke-width="1.51"/><path d="M1717,516L1681,714L1828,720Z" fill="#3a9553" stroke="#3a9553" stroke-width="1.51"/><path d="M1818,1095L1714,1161L1829,1239Z" fill="#066a38" stroke="#066a38" stroke-width="1.51"/><path d="M1637,123L1661,229L1838,223Z" fill="#79b06c" stroke="#79b06c" stroke-width="1.51"/><path d="M1661,229L1813,379L1838,223Z" fill="#6da966" stroke="#6da966" stroke-width="1.51"/><path d="M1726,-65L1637,123L1834,-13Z" fill="#87b675" stroke="#87b675" stroke-width="1.51"/><path d="M1661,229L1715,409L1813,379Z" fill="#67a864" stroke="#67a864" stroke-width="1.51"/><path d="M1828,720L1681,714L1843,792Z" fill="#2a8d4c" stroke="#2a8d4c" stroke-width="1.51"/><path d="M1681,714L1667,864L1843,792Z" fill="#288b49" stroke="#288b49" stroke-width="1.51"/><path d="M1714,1161L1643,1256L1829,1239Z" fill="#0a6837" stroke="#0a6837" stroke-width="1.51"/><path d="M1784,995L1673,1004L1818,1095Z" fill="#13753d" stroke="#13753d" stroke-width="1.51"/><path d="M1673,1004L1714,1161L1818,1095Z" fill="#10723b" stroke="#10723b" stroke-width="1.51"/><path d="M1667,864L1673,1004L1784,995Z" fill="#1c7d40" stroke="#1c7d40" stroke-width="1.51"/><path d="M1673,1004L1523,1123L1714,1161Z" fill="#15763d" stroke="#15763d" stroke-width="1.51"/><path d="M1661,229L1555,354L1715,409Z" fill="#6bad66" stroke="#6bad66" stroke-width="1.51"/><path d="M1531,635L1681,714L1717,516Z" fill="#429c56" stroke="#429c56" stroke-width="1.51"/><path d="M1544,542L1531,635L1717,516Z" fill="#4ca25b" stroke="#4ca25b" stroke-width="1.51"/><path d="M1715,409L1544,542L1717,516Z" fill="#54a35e" stroke="#54a35e" stroke-width="1.51"/><path d="M1675,-213L1551,-87L1726,-65Z" fill="#91bc81" stroke="#91bc81" stroke-width="1.51"/><path d="M1551,-87L1637,123L1726,-65Z" fill="#8cbb78" stroke="#8cbb78" stroke-width="1.51"/><path d="M1555,354L1544,542L1715,409Z" fill="#5ea962" stroke="#5ea962" stroke-width="1.51"/><path d="M1536,790L1667,864L1681,714Z" fill="#2c904b" stroke="#2c904b" stroke-width="1.51"/><path d="M1523,1123L1643,1256L1714,1161Z" fill="#106f3a" stroke="#106f3a" stroke-width="1.51"/><path d="M1243,1228L1074,1275L1525,1312Z" fill="#227b44" stroke="#227b44" stroke-width="1.51"/><path d="M1551,-87L1498,82L1637,123Z" fill="#8bbd77" stroke="#8bbd77" stroke-width="1.51"/><path d="M1667,864L1490,963L1673,1004Z" fill="#218242" stroke="#218242" stroke-width="1.51"/><path d="M1489,-197L1551,-87L1675,-213Z" fill="#95c187" stroke="#95c187" stroke-width="1.51"/><path d="M1531,635L1536,790L1681,714Z" fill="#369952" stroke="#369952" stroke-width="1.51"/><path d="M1490,963L1523,1123L1673,1004Z" fill="#1d7e40" stroke="#1d7e40" stroke-width="1.51"/><path d="M1501,286L1555,354L1661,229Z" fill="#72b26a" stroke="#72b26a" stroke-width="1.51"/><path d="M1536,790L1490,963L1667,864Z" fill="#298b48" stroke="#298b48" stroke-width="1.51"/><path d="M1637,123L1501,286L1661,229Z" fill="#7ab56d" stroke="#7ab56d" stroke-width="1.51"/><path d="M1498,82L1501,286L1637,123Z" fill="#82ba72" stroke="#82ba72" stroke-width="1.51"/><path d="M1523,1123L1525,1312L1643,1256Z" fill="#136f3a" stroke="#136f3a" stroke-width="1.51"/><path d="M1268,-179L1367,-163L1489,-197Z" fill="#9fce92" stroke="#9fce92" stroke-width="1.51"/><path d="M1498,82L1402,241L1501,286Z" fill="#81be73" stroke="#81be73" stroke-width="1.51"/><path d="M1490,963L1441,1023L1523,1123Z" fill="#218244" stroke="#218244" stroke-width="1.51"/><path d="M1444,1237L1243,1228L1525,1312Z" fill="#1c753f" stroke="#1c753f" stroke-width="1.51"/><path d="M1523,1123L1444,1237L1525,1312Z" fill="#18733d" stroke="#18733d" stroke-width="1.51"/><path d="M1345,804L1490,963L1536,790Z" fill="#2f944d" stroke="#2f944d" stroke-width="1.51"/><path d="M1531,635L1432,663L1536,790Z" fill="#3d9f56" stroke="#3d9f56" stroke-width="1.51"/><path d="M1443,-6L1498,82L1551,-87Z" fill="#92c37d" stroke="#92c37d" stroke-width="1.51"/><path d="M1501,286L1348,415L1555,354Z" fill="#70b66c" stroke="#70b66c" stroke-width="1.51"/><path d="M1348,415L1437,508L1555,354Z" fill="#67b369" stroke="#67b369" stroke-width="1.51"/><path d="M1437,508L1544,542L1555,354Z" fill="#5ead64" stroke="#5ead64" stroke-width="1.51"/><path d="M1437,508L1531,635L1544,542Z" fill="#51a85f" stroke="#51a85f" stroke-width="1.51"/><path d="M1489,-197L1443,-6L1551,-87Z" fill="#97c584" stroke="#97c584" stroke-width="1.51"/><path d="M1367,-163L1443,-6L1489,-197Z" fill="#9bc989" stroke="#9bc989" stroke-width="1.51"/><path d="M1437,508L1432,663L1531,635Z" fill="#4ca85e" stroke="#4ca85e" stroke-width="1.51"/><path d="M1432,663L1345,804L1536,790Z" fill="#389e55" stroke="#389e55" stroke-width="1.51"/><path d="M1342,126L1402,241L1498,82Z" fill="#8ac378" stroke="#8ac378" stroke-width="1.51"/><path d="M1350,1135L1444,1237L1523,1123Z" fill="#1c7c41" stroke="#1c7c41" stroke-width="1.51"/><path d="M1441,1023L1350,1135L1523,1123Z" fill="#208144" stroke="#208144" stroke-width="1.51"/><path d="M1402,241L1348,415L1501,286Z" fill="#77bc70" stroke="#77bc70" stroke-width="1.51"/><path d="M1443,-6L1342,126L1498,82Z" fill="#90c57c" stroke="#90c57c" stroke-width="1.51"/><path d="M1345,804L1441,1023L1490,963Z" fill="#2b8e4a" stroke="#2b8e4a" stroke-width="1.51"/><path d="M1224,864L1218,1002L1345,804Z" fill="#379c53" stroke="#379c53" stroke-width="1.51"/><path d="M1252,594L1432,663L1437,508Z" fill="#53ae63" stroke="#53ae63" stroke-width="1.51"/><path d="M1345,804L1218,1002L1441,1023Z" fill="#2f924d" stroke="#2f924d" stroke-width="1.51"/><path d="M1367,-163L1283,-75L1443,-6Z" fill="#9dce88" stroke="#9dce88" stroke-width="1.51"/><path d="M1283,-75L1342,126L1443,-6Z" fill="#98cc82" stroke="#98cc82" stroke-width="1.51"/><path d="M1350,1135L1243,1228L1444,1237Z" fill="#207e44" stroke="#207e44" stroke-width="1.51"/><path d="M1250,680L1345,804L1432,663Z" fill="#41a75b" stroke="#41a75b" stroke-width="1.51"/><path d="M1246,1077L1350,1135L1441,1023Z" fill="#268848" stroke="#268848" stroke-width="1.51"/><path d="M1218,1002L1246,1077L1441,1023Z" fill="#2b8e4b" stroke="#2b8e4b" stroke-width="1.51"/><path d="M1348,415L1252,594L1437,508Z" fill="#60b569" stroke="#60b569" stroke-width="1.51"/><path d="M1254,245L1348,415L1402,241Z" fill="#7cc174" stroke="#7cc174" stroke-width="1.51"/><path d="M1252,594L1250,680L1432,663Z" fill="#4dae61" stroke="#4dae61" stroke-width="1.51"/><path d="M690,-229L930,-163L1087,-187Z" fill="#c0e4a9" stroke="#c0e4a9" stroke-width="1.51"/><path d="M1283,-75L1233,104L1342,126Z" fill="#98cf83" stroke="#98cf83" stroke-width="1.51"/><path d="M1254,245L1230,351L1348,415Z" fill="#7bc475" stroke="#7bc475" stroke-width="1.51"/><path d="M1342,126L1254,245L1402,241Z" fill="#88c679" stroke="#88c679" stroke-width="1.51"/><path d="M353,1281L207,1317L571,1273Z" fill="#6f9a63" stroke="#6f9a63" stroke-width="1.51"/><path d="M1268,-179L1283,-75L1367,-163Z" fill="#a1d291" stroke="#a1d291" stroke-width="1.51"/><path d="M1233,104L1254,245L1342,126Z" fill="#8fcc7e" stroke="#8fcc7e" stroke-width="1.51"/><path d="M1230,351L1252,594L1348,415Z" fill="#6bbd6f" stroke="#6bbd6f" stroke-width="1.51"/><path d="M1246,1077L1243,1228L1350,1135Z" fill="#248749" stroke="#248749" stroke-width="1.51"/><path d="M1230,351L1147,380L1252,594Z" fill="#72c172" stroke="#72c172" stroke-width="1.51"/><path d="M1250,680L1224,864L1345,804Z" fill="#3ea65a" stroke="#3ea65a" stroke-width="1.51"/><path d="M1100,829L1224,864L1250,680Z" fill="#45a95d" stroke="#45a95d" stroke-width="1.51"/><path d="M1089,707L1100,829L1250,680Z" fill="#4db062" stroke="#4db062" stroke-width="1.51"/><path d="M1147,380L1053,552L1252,594Z" fill="#6dbf72" stroke="#6dbf72" stroke-width="1.51"/><path d="M1087,-187L1073,-75L1268,-179Z" fill="#adda99" stroke="#adda99" stroke-width="1.51"/><path d="M1268,-179L1073,-75L1283,-75Z" fill="#a7d792" stroke="#a7d792" stroke-width="1.51"/><path d="M1073,-75L1233,104L1283,-75Z" fill="#a4d58b" stroke="#a4d58b" stroke-width="1.51"/><path d="M1065,115L1083,277L1233,104Z" fill="#9ad385" stroke="#9ad385" stroke-width="1.51"/><path d="M1066,1135L1243,1228L1246,1077Z" fill="#2e8b4c" stroke="#2e8b4c" stroke-width="1.51"/><path d="M1233,104L1083,277L1254,245Z" fill="#90ce7f" stroke="#90ce7f" stroke-width="1.51"/><path d="M1073,-75L1065,115L1233,104Z" fill="#a4d78b" stroke="#a4d78b" stroke-width="1.51"/><path d="M1089,707L1250,680L1252,594Z" fill="#54b365" stroke="#54b365" stroke-width="1.51"/><path d="M1083,277L1230,351L1254,245Z" fill="#87ca7b" stroke="#87ca7b" stroke-width="1.51"/><path d="M1053,552L1089,707L1252,594Z" fill="#60b96b" stroke="#60b96b" stroke-width="1.51"/><path d="M1056,996L1218,1002L1224,864Z" fill="#3c9b54" stroke="#3c9b54" stroke-width="1.51"/><path d="M1083,277L1147,380L1230,351Z" fill="#84c97a" stroke="#84c97a" stroke-width="1.51"/><path d="M1066,1135L1074,1275L1243,1228Z" fill="#33884d" stroke="#33884d" stroke-width="1.51"/><path d="M1218,1002L1066,1135L1246,1077Z" fill="#349150" stroke="#349150" stroke-width="1.51"/><path d="M1100,829L1056,996L1224,864Z" fill="#44a159" stroke="#44a159" stroke-width="1.51"/><path d="M1056,996L1066,1135L1218,1002Z" fill="#3c9653" stroke="#3c9653" stroke-width="1.51"/><path d="M994,-21L1065,115L1073,-75Z" fill="#addc91" stroke="#addc91" stroke-width="1.51"/><path d="M1005,853L1056,996L1100,829Z" fill="#4ba55c" stroke="#4ba55c" stroke-width="1.51"/><path d="M1083,277L939,374L1147,380Z" fill="#8bce7f" stroke="#8bce7f" stroke-width="1.51"/><path d="M939,374L1053,552L1147,380Z" fill="#7fc87a" stroke="#7fc87a" stroke-width="1.51"/><path d="M939,374L977,568L1053,552Z" fill="#7cc779" stroke="#7cc779" stroke-width="1.51"/><path d="M994,-21L957,77L1065,115Z" fill="#addc90" stroke="#addc90" stroke-width="1.51"/><path d="M1066,1135L952,1170L1074,1275Z" fill="#3c8e51" stroke="#3c8e51" stroke-width="1.51"/><path d="M958,267L939,374L1083,277Z" fill="#95d284" stroke="#95d284" stroke-width="1.51"/><path d="M1065,115L958,267L1083,277Z" fill="#9bd486" stroke="#9bd486" stroke-width="1.51"/><path d="M930,-163L1073,-75L1087,-187Z" fill="#b5df9e" stroke="#b5df9e" stroke-width="1.51"/><path d="M1053,552L993,663L1089,707Z" fill="#64bb6e" stroke="#64bb6e" stroke-width="1.51"/><path d="M993,663L1005,853L1089,707Z" fill="#58b568" stroke="#58b568" stroke-width="1.51"/><path d="M1089,707L1005,853L1100,829Z" fill="#51ae62" stroke="#51ae62" stroke-width="1.51"/><path d="M1056,996L926,1011L1066,1135Z" fill="#459a57" stroke="#459a57" stroke-width="1.51"/><path d="M977,568L993,663L1053,552Z" fill="#6dc173" stroke="#6dc173" stroke-width="1.51"/><path d="M957,77L958,267L1065,115Z" fill="#a6d98c" stroke="#a6d98c" stroke-width="1.51"/><path d="M1005,853L926,1011L1056,996Z" fill="#4ca25b" stroke="#4ca25b" stroke-width="1.51"/><path d="M926,1011L952,1170L1066,1135Z" fill="#459757" stroke="#459757" stroke-width="1.51"/><path d="M930,-163L994,-21L1073,-75Z" fill="#b7e099" stroke="#b7e099" stroke-width="1.51"/><path d="M952,1170L939,1295L1074,1275Z" fill="#3f8b51" stroke="#3f8b51" stroke-width="1.51"/><path d="M957,77L851,136L958,267Z" fill="#abdc8e" stroke="#abdc8e" stroke-width="1.51"/><path d="M939,374L822,542L977,568Z" fill="#82cb7d" stroke="#82cb7d" stroke-width="1.51"/><path d="M993,663L856,676L1005,853Z" fill="#60b96c" stroke="#60b96c" stroke-width="1.51"/><path d="M856,676L782,880L1005,853Z" fill="#61b569" stroke="#61b569" stroke-width="1.51"/><path d="M782,880L852,977L1005,853Z" fill="#5aab62" stroke="#5aab62" stroke-width="1.51"/><path d="M852,977L926,1011L1005,853Z" fill="#53a55e" stroke="#53a55e" stroke-width="1.51"/><path d="M851,136L852,254L958,267Z" fill="#a7da8c" stroke="#a7da8c" stroke-width="1.51"/><path d="M977,568L856,676L993,663Z" fill="#6dc072" stroke="#6dc072" stroke-width="1.51"/><path d="M814,-22L957,77L994,-21Z" fill="#b7e196" stroke="#b7e196" stroke-width="1.51"/><path d="M930,-163L814,-22L994,-21Z" fill="#bde39b" stroke="#bde39b" stroke-width="1.51"/><path d="M690,-229L790,-133L930,-163Z" fill="#c8e8ab" stroke="#c8e8ab" stroke-width="1.51"/><path d="M926,1011L793,1096L952,1170Z" fill="#4e9b5b" stroke="#4e9b5b" stroke-width="1.51"/><path d="M822,542L856,676L977,568Z" fill="#78c577" stroke="#78c577" stroke-width="1.51"/><path d="M654,1255L571,1273L814,1290Z" fill="#5a935b" stroke="#5a935b" stroke-width="1.51"/><path d="M790,-133L814,-22L930,-163Z" fill="#c3e6a2" stroke="#c3e6a2" stroke-width="1.51"/><path d="M814,1290L939,1295L952,1170Z" fill="#478d54" stroke="#478d54" stroke-width="1.51"/><path d="M814,-22L851,136L957,77Z" fill="#b7e195" stroke="#b7e195" stroke-width="1.51"/><path d="M852,254L939,374L958,267Z" fill="#9bd587" stroke="#9bd587" stroke-width="1.51"/><path d="M776,353L822,542L939,374Z" fill="#92d283" stroke="#92d283" stroke-width="1.51"/><path d="M793,1096L814,1290L952,1170Z" fill="#4d9559" stroke="#4d9559" stroke-width="1.51"/><path d="M852,977L793,1096L926,1011Z" fill="#55a25e" stroke="#55a25e" stroke-width="1.51"/><path d="M852,254L776,353L939,374Z" fill="#9dd687" stroke="#9dd687" stroke-width="1.51"/><path d="M661,729L652,807L782,880Z" fill="#72bc6f" stroke="#72bc6f" stroke-width="1.51"/><path d="M793,1096L654,1255L814,1290Z" fill="#55955b" stroke="#55955b" stroke-width="1.51"/><path d="M776,353L706,518L822,542Z" fill="#93d183" stroke="#93d183" stroke-width="1.51"/><path d="M814,-22L655,61L851,136Z" fill="#bfe599" stroke="#bfe599" stroke-width="1.51"/><path d="M851,136L701,300L852,254Z" fill="#addd8f" stroke="#addd8f" stroke-width="1.51"/><path d="M661,729L782,880L856,676Z" fill="#6fbd70" stroke="#6fbd70" stroke-width="1.51"/><path d="M822,542L706,518L856,676Z" fill="#82ca7b" stroke="#82ca7b" stroke-width="1.51"/><path d="M706,518L661,729L856,676Z" fill="#7fc779" stroke="#7fc779" stroke-width="1.51"/><path d="M655,61L701,300L851,136Z" fill="#bae394" stroke="#bae394" stroke-width="1.51"/><path d="M701,300L776,353L852,254Z" fill="#a7db8b" stroke="#a7db8b" stroke-width="1.51"/><path d="M631,924L793,1096L852,977Z" fill="#5fa762" stroke="#5fa762" stroke-width="1.51"/><path d="M782,880L631,924L852,977Z" fill="#64ad65" stroke="#64ad65" stroke-width="1.51"/><path d="M671,418L706,518L776,353Z" fill="#9cd687" stroke="#9cd687" stroke-width="1.51"/><path d="M644,1131L654,1255L793,1096Z" fill="#5c9d5e" stroke="#5c9d5e" stroke-width="1.51"/><path d="M790,-133L690,-73L814,-22Z" fill="#c9e9a1" stroke="#c9e9a1" stroke-width="1.51"/><path d="M631,924L644,1131L793,1096Z" fill="#63a662" stroke="#63a662" stroke-width="1.51"/><path d="M690,-73L655,61L814,-22Z" fill="#c9e99e" stroke="#c9e99e" stroke-width="1.51"/><path d="M690,-229L690,-73L790,-133Z" fill="#ceebaa" stroke="#ceebaa" stroke-width="1.51"/><path d="M652,807L631,924L782,880Z" fill="#6eb56b" stroke="#6eb56b" stroke-width="1.51"/><path d="M701,300L671,418L776,353Z" fill="#a6da8b" stroke="#a6da8b" stroke-width="1.51"/><path d="M631,924L527,1081L644,1131Z" fill="#6aa965" stroke="#6aa965" stroke-width="1.51"/><path d="M575,556L531,692L661,729Z" fill="#89cc7d" stroke="#89cc7d" stroke-width="1.51"/><path d="M690,-229L544,-214L690,-73Z" fill="#d6eeb0" stroke="#d6eeb0" stroke-width="1.51"/><path d="M655,61L510,201L701,300Z" fill="#c0e697" stroke="#c0e697" stroke-width="1.51"/><path d="M527,351L671,418L701,300Z" fill="#addd8d" stroke="#addd8d" stroke-width="1.51"/><path d="M510,201L527,351L701,300Z" fill="#b9e293" stroke="#b9e293" stroke-width="1.51"/><path d="M671,418L575,556L706,518Z" fill="#99d485" stroke="#99d485" stroke-width="1.51"/><path d="M575,556L661,729L706,518Z" fill="#8cce7f" stroke="#8cce7f" stroke-width="1.51"/><path d="M571,926L527,1081L631,924Z" fill="#70b069" stroke="#70b069" stroke-width="1.51"/><path d="M504,11L655,61L690,-73Z" fill="#d0eca1" stroke="#d0eca1" stroke-width="1.51"/><path d="M516,78L510,201L655,61Z" fill="#cceb9d" stroke="#cceb9d" stroke-width="1.51"/><path d="M544,-214L504,11L690,-73Z" fill="#d8efaa" stroke="#d8efaa" stroke-width="1.51"/><path d="M529,856L631,924L652,807Z" fill="#76b96e" stroke="#76b96e" stroke-width="1.51"/><path d="M644,1131L571,1273L654,1255Z" fill="#609a5e" stroke="#609a5e" stroke-width="1.51"/><path d="M527,351L575,556L671,418Z" fill="#a5d98a" stroke="#a5d98a" stroke-width="1.51"/><path d="M-92,1259L-232,1274L207,1317Z" fill="#81a274" stroke="#81a274" stroke-width="1.51"/><path d="M99,-237L240,-193L394,-207Z" fill="#f0f9c3" stroke="#f0f9c3" stroke-width="1.51"/><path d="M529,856L571,926L631,924Z" fill="#75b66c" stroke="#75b66c" stroke-width="1.51"/><path d="M531,692L652,807L661,729Z" fill="#7dc577" stroke="#7dc577" stroke-width="1.51"/><path d="M427,-81L504,11L544,-214Z" fill="#dff2ad" stroke="#dff2ad" stroke-width="1.51"/><path d="M531,692L529,856L652,807Z" fill="#7ec274" stroke="#7ec274" stroke-width="1.51"/><path d="M504,11L516,78L655,61Z" fill="#d1eda0" stroke="#d1eda0" stroke-width="1.51"/><path d="M527,1081L571,1273L644,1131Z" fill="#65a162" stroke="#65a162" stroke-width="1.51"/><path d="M422,827L529,856L531,692Z" fill="#83c477" stroke="#83c477" stroke-width="1.51"/><path d="M423,982L527,1081L571,926Z" fill="#74b06a" stroke="#74b06a" stroke-width="1.51"/><path d="M527,1081L388,1101L571,1273Z" fill="#6ca565" stroke="#6ca565" stroke-width="1.51"/><path d="M388,1101L353,1281L571,1273Z" fill="#6ea064" stroke="#6ea064" stroke-width="1.51"/><path d="M527,351L402,432L575,556Z" fill="#aadc8d" stroke="#aadc8d" stroke-width="1.51"/><path d="M402,432L381,527L575,556Z" fill="#a7da8c" stroke="#a7da8c" stroke-width="1.51"/><path d="M407,665L531,692L575,556Z" fill="#92d081" stroke="#92d081" stroke-width="1.51"/><path d="M381,527L407,665L575,556Z" fill="#9cd587" stroke="#9cd587" stroke-width="1.51"/><path d="M529,856L423,982L571,926Z" fill="#79b66d" stroke="#79b66d" stroke-width="1.51"/><path d="M395,133L510,201L516,78Z" fill="#d1ec9e" stroke="#d1ec9e" stroke-width="1.51"/><path d="M510,201L354,244L527,351Z" fill="#c3e798" stroke="#c3e798" stroke-width="1.51"/><path d="M407,665L422,827L531,692Z" fill="#8bcb7c" stroke="#8bcb7c" stroke-width="1.51"/><path d="M394,-207L427,-81L544,-214Z" fill="#e3f4b6" stroke="#e3f4b6" stroke-width="1.51"/><path d="M423,982L388,1101L527,1081Z" fill="#75ae6a" stroke="#75ae6a" stroke-width="1.51"/><path d="M422,827L423,982L529,856Z" fill="#7fbb71" stroke="#7fbb71" stroke-width="1.51"/><path d="M354,244L402,432L527,351Z" fill="#bde495" stroke="#bde495" stroke-width="1.51"/><path d="M504,11L395,133L516,78Z" fill="#d5eea2" stroke="#d5eea2" stroke-width="1.51"/><path d="M395,133L354,244L510,201Z" fill="#ceeb9e" stroke="#ceeb9e" stroke-width="1.51"/><path d="M427,-81L395,133L504,11Z" fill="#dbf1a6" stroke="#dbf1a6" stroke-width="1.51"/><path d="M354,244L275,289L402,432Z" fill="#c5e899" stroke="#c5e899" stroke-width="1.51"/><path d="M275,289L247,341L402,432Z" fill="#c3e699" stroke="#c3e699" stroke-width="1.51"/><path d="M204,682L247,843L407,665Z" fill="#96cf82" stroke="#96cf82" stroke-width="1.51"/><path d="M407,665L247,843L422,827Z" fill="#8ec97c" stroke="#8ec97c" stroke-width="1.51"/><path d="M270,996L388,1101L423,982Z" fill="#7db26e" stroke="#7db26e" stroke-width="1.51"/><path d="M422,827L247,843L423,982Z" fill="#86bf75" stroke="#86bf75" stroke-width="1.51"/><path d="M247,843L270,996L423,982Z" fill="#85ba72" stroke="#85ba72" stroke-width="1.51"/><path d="M394,-207L240,-193L427,-81Z" fill="#eaf7b9" stroke="#eaf7b9" stroke-width="1.51"/><path d="M240,-193L284,-9L427,-81Z" fill="#ebf7b3" stroke="#ebf7b3" stroke-width="1.51"/><path d="M284,-9L395,133L427,-81Z" fill="#e1f3a9" stroke="#e1f3a9" stroke-width="1.51"/><path d="M197,1071L353,1281L388,1101Z" fill="#79aa6b" stroke="#79aa6b" stroke-width="1.51"/><path d="M284,-9L228,128L395,133Z" fill="#e0f3a7" stroke="#e0f3a7" stroke-width="1.51"/><path d="M381,527L202,587L407,665Z" fill="#a4d88a" stroke="#a4d88a" stroke-width="1.51"/><path d="M202,587L204,682L407,665Z" fill="#a1d688" stroke="#a1d688" stroke-width="1.51"/><path d="M247,341L381,527L402,432Z" fill="#b7e193" stroke="#b7e193" stroke-width="1.51"/><path d="M228,128L354,244L395,133Z" fill="#d7efa2" stroke="#d7efa2" stroke-width="1.51"/><path d="M197,1071L133,1228L353,1281Z" fill="#7ba76c" stroke="#7ba76c" stroke-width="1.51"/><path d="M247,341L202,587L381,527Z" fill="#b4e093" stroke="#b4e093" stroke-width="1.51"/><path d="M270,996L197,1071L388,1101Z" fill="#7fb16f" stroke="#7fb16f" stroke-width="1.51"/><path d="M133,1228L207,1317L353,1281Z" fill="#779f69" stroke="#779f69" stroke-width="1.51"/><path d="M228,128L275,289L354,244Z" fill="#d4eda1" stroke="#d4eda1" stroke-width="1.51"/><path d="M90,448L86,487L202,587Z" fill="#b9e197" stroke="#b9e197" stroke-width="1.51"/><path d="M204,682L124,813L247,843Z" fill="#97cd82" stroke="#97cd82" stroke-width="1.51"/><path d="M90,448L202,587L247,341Z" fill="#bce398" stroke="#bce398" stroke-width="1.51"/><path d="M247,843L124,813L270,996Z" fill="#8ec279" stroke="#8ec279" stroke-width="1.51"/><path d="M228,128L133,293L275,289Z" fill="#d5eea2" stroke="#d5eea2" stroke-width="1.51"/><path d="M240,-193L139,-56L284,-9Z" fill="#eff9b5" stroke="#eff9b5" stroke-width="1.51"/><path d="M139,-56L228,128L284,-9Z" fill="#e8f6ae" stroke="#e8f6ae" stroke-width="1.51"/><path d="M37,998L197,1071L270,996Z" fill="#87b675" stroke="#87b675" stroke-width="1.51"/><path d="M124,813L37,998L270,996Z" fill="#8dbe78" stroke="#8dbe78" stroke-width="1.51"/><path d="M133,293L247,341L275,289Z" fill="#cdeb9e" stroke="#cdeb9e" stroke-width="1.51"/><path d="M132,705L124,813L204,682Z" fill="#9dd287" stroke="#9dd287" stroke-width="1.51"/><path d="M-169,-232L-9,-203L99,-237Z" fill="#fcfdd0" stroke="#fcfdd0" stroke-width="1.51"/><path d="M98,1110L133,1228L197,1071Z" fill="#82ae71" stroke="#82ae71" stroke-width="1.51"/><path d="M139,-56L38,135L228,128Z" fill="#e9f6ae" stroke="#e9f6ae" stroke-width="1.51"/><path d="M99,-237L139,-56L240,-193Z" fill="#f3fbc0" stroke="#f3fbc0" stroke-width="1.51"/><path d="M133,293L90,448L247,341Z" fill="#cae99e" stroke="#cae99e" stroke-width="1.51"/><path d="M38,135L133,293L228,128Z" fill="#dff2a8" stroke="#dff2a8" stroke-width="1.51"/><path d="M37,998L98,1110L197,1071Z" fill="#88b575" stroke="#88b575" stroke-width="1.51"/><path d="M202,587L132,705L204,682Z" fill="#a4d68b" stroke="#a4d68b" stroke-width="1.51"/><path d="M133,1228L-92,1259L207,1317Z" fill="#7ea26e" stroke="#7ea26e" stroke-width="1.51"/><path d="M86,487L132,705L202,587Z" fill="#addc91" stroke="#addc91" stroke-width="1.51"/><path d="M-23,810L37,998L124,813Z" fill="#97c680" stroke="#97c680" stroke-width="1.51"/><path d="M86,487L-54,654L132,705Z" fill="#afdc92" stroke="#afdc92" stroke-width="1.51"/><path d="M-23,810L124,813L132,705Z" fill="#9dcf86" stroke="#9dcf86" stroke-width="1.51"/><path d="M-57,380L90,448L133,293Z" fill="#cdeaa1" stroke="#cdeaa1" stroke-width="1.51"/><path d="M38,135L-3,215L133,293Z" fill="#dff2a9" stroke="#dff2a9" stroke-width="1.51"/><path d="M98,1110L-32,1141L133,1228Z" fill="#84ad73" stroke="#84ad73" stroke-width="1.51"/><path d="M-42,-69L38,135L139,-56Z" fill="#f2fab5" stroke="#f2fab5" stroke-width="1.51"/><path d="M99,-237L-9,-203L139,-56Z" fill="#f8fcc4" stroke="#f8fcc4" stroke-width="1.51"/><path d="M-9,-203L-42,-69L139,-56Z" fill="#f8fcbf" stroke="#f8fcbf" stroke-width="1.51"/><path d="M-3,215L-57,380L133,293Z" fill="#d7efa7" stroke="#d7efa7" stroke-width="1.51"/><path d="M-32,1141L-92,1259L133,1228Z" fill="#84a974" stroke="#84a974" stroke-width="1.51"/><path d="M-54,654L-23,810L132,705Z" fill="#a4d58c" stroke="#a4d58c" stroke-width="1.51"/><path d="M-64,505L-54,654L86,487Z" fill="#b8e19b" stroke="#b8e19b" stroke-width="1.51"/><path d="M-23,810L-59,971L37,998Z" fill="#94c080" stroke="#94c080" stroke-width="1.51"/><path d="M-42,-69L-88,90L38,135Z" fill="#f0f9b8" stroke="#f0f9b8" stroke-width="1.51"/><path d="M37,998L-32,1141L98,1110Z" fill="#8ab577" stroke="#8ab577" stroke-width="1.51"/><path d="M-64,505L86,487L90,448Z" fill="#c0e59c" stroke="#c0e59c" stroke-width="1.51"/><path d="M-57,380L-64,505L90,448Z" fill="#c6e7a1" stroke="#c6e7a1" stroke-width="1.51"/><path d="M-59,971L-32,1141L37,998Z" fill="#8db87c" stroke="#8db87c" stroke-width="1.51"/><path d="M-88,90L-3,215L38,135Z" fill="#e9f6b1" stroke="#e9f6b1" stroke-width="1.51"/><path d="M-59,971L-177,1133L-32,1141Z" fill="#8cb57f" stroke="#8cb57f" stroke-width="1.51"/><path d="M-54,654L-196,790L-23,810Z" fill="#a2d392" stroke="#a2d392" stroke-width="1.51"/><path d="M-169,-232L-42,-69L-9,-203Z" fill="#fbfdcd" stroke="#fbfdcd" stroke-width="1.51"/><path d="M-221,280L-57,380L-3,215Z" fill="#daf0af" stroke="#daf0af" stroke-width="1.51"/><path d="M-88,90L-221,280L-3,215Z" fill="#e4f4b5" stroke="#e4f4b5" stroke-width="1.51"/><path d="M-170,-43L-88,90L-42,-69Z" fill="#f5fbc0" stroke="#f5fbc0" stroke-width="1.51"/><path d="M-196,790L-59,971L-23,810Z" fill="#9bc88a" stroke="#9bc88a" stroke-width="1.51"/><path d="M-196,790L-227,952L-59,971Z" fill="#97c48b" stroke="#97c48b" stroke-width="1.51"/><path d="M-64,505L-185,652L-54,654Z" fill="#b3dd9e" stroke="#b3dd9e" stroke-width="1.51"/><path d="M-185,652L-196,790L-54,654Z" fill="#a9d89a" stroke="#a9d89a" stroke-width="1.51"/><path d="M-169,-232L-170,-43L-42,-69Z" fill="#fbfdcb" stroke="#fbfdcb" stroke-width="1.51"/><path d="M-170,-43L-179,52L-88,90Z" fill="#f3fbc1" stroke="#f3fbc1" stroke-width="1.51"/><path d="M-177,1133L-92,1259L-32,1141Z" fill="#87ad7c" stroke="#87ad7c" stroke-width="1.51"/><path d="M-221,414L-64,505L-57,380Z" fill="#c9e8a9" stroke="#c9e8a9" stroke-width="1.51"/><path d="M-242,486L-185,652L-64,505Z" fill="#bae2a6" stroke="#bae2a6" stroke-width="1.51"/><path d="M-227,952L-177,1133L-59,971Z" fill="#90bb86" stroke="#90bb86" stroke-width="1.51"/><path d="M-221,280L-221,414L-57,380Z" fill="#d3edb1" stroke="#d3edb1" stroke-width="1.51"/><path d="M-179,52L-221,280L-88,90Z" fill="#ebf7bc" stroke="#ebf7bc" stroke-width="1.51"/><path d="M-221,414L-242,486L-64,505Z" fill="#c5e6ab" stroke="#c5e6ab" stroke-width="1.51"/><path d="M-177,1133L-232,1274L-92,1259Z" fill="#86a97f" stroke="#86a97f" stroke-width="1.51"/><path d="M-179,52L-170,-43L-169,-232Z" fill="#fbfdca" stroke="#fbfdca" stroke-width="1.51"/><path d="M-221,280L-179,52L-169,-232Z" fill="#f3fbc4" stroke="#f3fbc4" stroke-width="1.51"/><path d="M-227,952L-232,1274L-177,1133Z" fill="#8bb386" stroke="#8bb386" stroke-width="1.51"/><path d="M-242,486L-196,790L-185,652Z" fill="#b0dba2" stroke="#b0dba2" stroke-width="1.51"/><path d="M-242,486L-227,952L-196,790Z" fill="#a5d59c" stroke="#a5d59c" stroke-width="1.51"/><path d="M-221,280L-242,486L-221,414Z" fill="#cfebb3" stroke="#cfebb3" stroke-width="1.51"/><path d="M-242,486L-232,1274L-227,952Z" fill="#98c590" stroke="#98c590" stroke-width="1.51"/></svg>