<svg xmlns="http://www.w3.org/2000/svg" width="1920" height="1080"><path d="M710,1321L451,1336L929,1337Z" fill="#58799b" stroke="#58799b" stroke-width="1.51"/><path d="M-114,-281L312,-259L929,-269Z" fill="#e6e3ef" stroke="#e6e3ef" stroke-width="1.51"/><path d="M-114,-281L929,-269L1094,-278Z" fill="#d4daeb" stroke="#d4daeb" stroke-width="1.51"/><path d="M929,1337L451,1336L1140,1350Z" fill="#4b7497" stroke="#4b7497" stroke-width="1.51"/><path d="M-114,-281L1094,-278L1707,-281Z" fill="#c1d1e7" stroke="#c1d1e7" stroke-width="1.51"/><path d="M1094,-278L1558,-253L1707,-281Z" fill="#9eb6d8" stroke="#9eb6d8" stroke-width="1.51"/><path d="M1621,1268L1140,1350L1866,1359Z" fill="#055788" stroke="#055788" stroke-width="1.51"/><path d="M2038,809L1931,855L2046,981Z" fill="#106194" stroke="#106194" stroke-width="1.51"/><path d="M2038,809L2046,981L2055,715Z" fill="#166392" stroke="#166392" stroke-width="1.51"/><path d="M1938,-271L2001,-52L2062,-260Z" fill="#8999b4" stroke="#8999b4" stroke-width="1.51"/><path d="M1986,74L2047,143L2071,-66Z" fill="#798caa" stroke="#798caa" stroke-width="1.51"/><path d="M2001,-52L1986,74L2071,-66Z" fill="#7e90ad" stroke="#7e90ad" stroke-width="1.51"/><path d="M2062,-260L2001,-52L2071,-66Z" fill="#8393ae" stroke="#8393ae" stroke-width="1.51"/><path d="M2009,1036L1949,1104L2081,1178Z" fill="#045483" stroke="#045483" stroke-width="1.51"/><path d="M2046,981L2009,1036L2081,1178Z" fill="#045484" stroke="#045484" stroke-width="1.51"/><path d="M1951,532L2055,715L2097,547Z" fill="#3a729b" stroke="#3a729b" stroke-width="1.51"/><path d="M1973,455L1951,532L2097,547Z" fill="#4779a0" stroke="#4779a0" stroke-width="1.51"/><path d="M2046,981L2081,1178L2097,547Z" fill="#0d5c8d" stroke="#0d5c8d" stroke-width="1.51"/><path d="M2055,715L2046,981L2097,547Z" fill="#1e6893" stroke="#1e6893" stroke-width="1.51"/><path d="M2081,1178L2094,1271L2097,547Z" fill="#035585" stroke="#035585" stroke-width="1.51"/><path d="M2062,-260L2071,-66L2103,399Z" fill="#798aa7" stroke="#798aa7" stroke-width="1.51"/><path d="M1973,455L2097,547L2103,399Z" fill="#4c779d" stroke="#4c779d" stroke-width="1.51"/><path d="M2021,229L1973,455L2103,399Z" fill="#5b7da2" stroke="#5b7da2" stroke-width="1.51"/><path d="M2047,143L2021,229L2103,399Z" fill="#6680a3" stroke="#6680a3" stroke-width="1.51"/><path d="M2071,-66L2047,143L2103,399Z" fill="#6f84a4" stroke="#6f84a4" stroke-width="1.51"/><path d="M2097,547L2094,1271L2103,399Z" fill="#1f6791" stroke="#1f6791" stroke-width="1.51"/><path d="M2081,1178L1949,1104L2094,1271Z" fill="#034d79" stroke="#034d79" stroke-width="1.51"/><path d="M1949,1104L1833,1306L2094,1271Z" fill="#034e7b" stroke="#034e7b" stroke-width="1.51"/><path d="M1833,1306L1866,1359L2094,1271Z" fill="#024972" stroke="#024972" stroke-width="1.51"/><path d="M1359,1261L1140,1350L1621,1268Z" fill="#176391" stroke="#176391" stroke-width="1.51"/><path d="M1990,218L1973,455L2021,229Z" fill="#6382a8" stroke="#6382a8" stroke-width="1.51"/><path d="M1951,532L1885,731L2055,715Z" fill="#32739f" stroke="#32739f" stroke-width="1.51"/><path d="M1990,218L2021,229L2047,143Z" fill="#6d86a7" stroke="#6d86a7" stroke-width="1.51"/><path d="M1885,731L2038,809L2055,715Z" fill="#1f6c9a" stroke="#1f6c9a" stroke-width="1.51"/><path d="M1707,-281L1852,-244L1938,-271Z" fill="#92a5c4" stroke="#92a5c4" stroke-width="1.51"/><path d="M1827,426L1973,455L1990,218Z" fill="#5d84ac" stroke="#5d84ac" stroke-width="1.51"/><path d="M1938,-271L1852,-244L2001,-52Z" fill="#8b9dba" stroke="#8b9dba" stroke-width="1.51"/><path d="M1931,855L2009,1036L2046,981Z" fill="#045c91" stroke="#045c91" stroke-width="1.51"/><path d="M1986,74L1990,218L2047,143Z" fill="#7389aa" stroke="#7389aa" stroke-width="1.51"/><path d="M1931,855L1825,971L2009,1036Z" fill="#056199" stroke="#056199" stroke-width="1.51"/><path d="M1885,731L1931,855L2038,809Z" fill="#1b6b9b" stroke="#1b6b9b" stroke-width="1.51"/><path d="M1789,223L1827,426L1990,218Z" fill="#688bb3" stroke="#688bb3" stroke-width="1.51"/><path d="M1986,74L1819,80L1990,218Z" fill="#788fb2" stroke="#788fb2" stroke-width="1.51"/><path d="M1852,-244L1761,-13L2001,-52Z" fill="#8a9ebe" stroke="#8a9ebe" stroke-width="1.51"/><path d="M1819,80L1986,74L2001,-52Z" fill="#7e93b4" stroke="#7e93b4" stroke-width="1.51"/><path d="M1825,971L1949,1104L2009,1036Z" fill="#045c91" stroke="#045c91" stroke-width="1.51"/><path d="M1819,80L1789,223L1990,218Z" fill="#7690b7" stroke="#7690b7" stroke-width="1.51"/><path d="M1761,-13L1819,80L2001,-52Z" fill="#8399bc" stroke="#8399bc" stroke-width="1.51"/><path d="M1811,1108L1833,1306L1949,1104Z" fill="#04588a" stroke="#04588a" stroke-width="1.51"/><path d="M1827,426L1951,532L1973,455Z" fill="#5080aa" stroke="#5080aa" stroke-width="1.51"/><path d="M1760,475L1740,736L1885,731Z" fill="#377dad" stroke="#377dad" stroke-width="1.51"/><path d="M1885,731L1839,863L1931,855Z" fill="#1a6ea1" stroke="#1a6ea1" stroke-width="1.51"/><path d="M1839,863L1825,971L1931,855Z" fill="#1069a0" stroke="#1069a0" stroke-width="1.51"/><path d="M1825,971L1811,1108L1949,1104Z" fill="#045f95" stroke="#045f95" stroke-width="1.51"/><path d="M1760,475L1885,731L1951,532Z" fill="#417dac" stroke="#417dac" stroke-width="1.51"/><path d="M1827,426L1760,475L1951,532Z" fill="#5184b1" stroke="#5184b1" stroke-width="1.51"/><path d="M1707,-281L1761,-13L1852,-244Z" fill="#90a4c6" stroke="#90a4c6" stroke-width="1.51"/><path d="M1740,736L1839,863L1885,731Z" fill="#1f74a7" stroke="#1f74a7" stroke-width="1.51"/><path d="M1789,223L1702,419L1827,426Z" fill="#638cb8" stroke="#638cb8" stroke-width="1.51"/><path d="M1811,1108L1621,1268L1833,1306Z" fill="#03588a" stroke="#03588a" stroke-width="1.51"/><path d="M1833,1306L1621,1268L1866,1359Z" fill="#03507e" stroke="#03507e" stroke-width="1.51"/><path d="M1632,500L1740,736L1760,475Z" fill="#4584b5" stroke="#4584b5" stroke-width="1.51"/><path d="M1707,-281L1601,-62L1761,-13Z" fill="#8fa5ca" stroke="#8fa5ca" stroke-width="1.51"/><path d="M1633,278L1702,419L1789,223Z" fill="#6b91bd" stroke="#6b91bd" stroke-width="1.51"/><path d="M1613,872L1825,971L1839,863Z" fill="#0f6ca6" stroke="#0f6ca6" stroke-width="1.51"/><path d="M1740,736L1613,872L1839,863Z" fill="#1a73ab" stroke="#1a73ab" stroke-width="1.51"/><path d="M1632,500L1581,651L1740,736Z" fill="#3d83b7" stroke="#3d83b7" stroke-width="1.51"/><path d="M1569,951L1811,1108L1825,971Z" fill="#0466a0" stroke="#0466a0" stroke-width="1.51"/><path d="M1582,1203L1621,1268L1811,1108Z" fill="#055e93" stroke="#055e93" stroke-width="1.51"/><path d="M1604,129L1789,223L1819,80Z" fill="#7c97c0" stroke="#7c97c0" stroke-width="1.51"/><path d="M1702,419L1760,475L1827,426Z" fill="#5789b6" stroke="#5789b6" stroke-width="1.51"/><path d="M1613,872L1569,951L1825,971Z" fill="#0a6daa" stroke="#0a6daa" stroke-width="1.51"/><path d="M1761,-13L1604,129L1819,80Z" fill="#829cc3" stroke="#829cc3" stroke-width="1.51"/><path d="M1569,951L1582,1203L1811,1108Z" fill="#04659f" stroke="#04659f" stroke-width="1.51"/><path d="M1094,-278L1224,-218L1558,-253Z" fill="#a3bfdc" stroke="#a3bfdc" stroke-width="1.51"/><path d="M1604,129L1633,278L1789,223Z" fill="#7696c2" stroke="#7696c2" stroke-width="1.51"/><path d="M1558,-253L1601,-62L1707,-281Z" fill="#95abd0" stroke="#95abd0" stroke-width="1.51"/><path d="M1601,-62L1604,129L1761,-13Z" fill="#88a1c8" stroke="#88a1c8" stroke-width="1.51"/><path d="M1702,419L1632,500L1760,475Z" fill="#558ab9" stroke="#558ab9" stroke-width="1.51"/><path d="M1569,951L1489,1080L1582,1203Z" fill="#076aa6" stroke="#076aa6" stroke-width="1.51"/><path d="M1523,1232L1359,1261L1621,1268Z" fill="#0b6093" stroke="#0b6093" stroke-width="1.51"/><path d="M1581,651L1613,872L1740,736Z" fill="#237cb2" stroke="#237cb2" stroke-width="1.51"/><path d="M1633,278L1536,359L1702,419Z" fill="#6692c1" stroke="#6692c1" stroke-width="1.51"/><path d="M1536,359L1632,500L1702,419Z" fill="#5d8ebf" stroke="#5d8ebf" stroke-width="1.51"/><path d="M1558,-253L1404,-136L1601,-62Z" fill="#96aed4" stroke="#96aed4" stroke-width="1.51"/><path d="M1601,-62L1414,6L1604,129Z" fill="#8aa5cf" stroke="#8aa5cf" stroke-width="1.51"/><path d="M1581,651L1427,830L1613,872Z" fill="#227eb7" stroke="#227eb7" stroke-width="1.51"/><path d="M1498,516L1581,651L1632,500Z" fill="#4a8abf" stroke="#4a8abf" stroke-width="1.51"/><path d="M1536,359L1498,516L1632,500Z" fill="#5990c2" stroke="#5990c2" stroke-width="1.51"/><path d="M1604,129L1412,200L1633,278Z" fill="#7a9cca" stroke="#7a9cca" stroke-width="1.51"/><path d="M1412,200L1536,359L1633,278Z" fill="#7299c8" stroke="#7299c8" stroke-width="1.51"/><path d="M1411,687L1427,830L1581,651Z" fill="#3086bc" stroke="#3086bc" stroke-width="1.51"/><path d="M1417,155L1412,200L1604,129Z" fill="#81a2cc" stroke="#81a2cc" stroke-width="1.51"/><path d="M1582,1203L1523,1232L1621,1268Z" fill="#045e93" stroke="#045e93" stroke-width="1.51"/><path d="M1414,6L1417,155L1604,129Z" fill="#87a5ce" stroke="#87a5ce" stroke-width="1.51"/><path d="M1427,830L1569,951L1613,872Z" fill="#1676b3" stroke="#1676b3" stroke-width="1.51"/><path d="M1404,-136L1414,6L1601,-62Z" fill="#93add3" stroke="#93add3" stroke-width="1.51"/><path d="M1498,516L1411,687L1581,651Z" fill="#438bbe" stroke="#438bbe" stroke-width="1.51"/><path d="M1489,1080L1523,1232L1582,1203Z" fill="#08659e" stroke="#08659e" stroke-width="1.51"/><path d="M1224,-218L1404,-136L1558,-253Z" fill="#9cb7d8" stroke="#9cb7d8" stroke-width="1.51"/><path d="M1427,830L1341,925L1569,951Z" fill="#1c7ab5" stroke="#1c7ab5" stroke-width="1.51"/><path d="M1341,925L1414,1063L1569,951Z" fill="#1574b0" stroke="#1574b0" stroke-width="1.51"/><path d="M1414,1063L1489,1080L1569,951Z" fill="#106fab" stroke="#106fab" stroke-width="1.51"/><path d="M1489,1080L1414,1063L1523,1232Z" fill="#106ba4" stroke="#106ba4" stroke-width="1.51"/><path d="M1414,1063L1359,1261L1523,1232Z" fill="#14699e" stroke="#14699e" stroke-width="1.51"/><path d="M1284,315L1498,516L1536,359Z" fill="#6699c7" stroke="#6699c7" stroke-width="1.51"/><path d="M1412,200L1284,315L1536,359Z" fill="#75a0cb" stroke="#75a0cb" stroke-width="1.51"/><path d="M1284,315L1243,460L1498,516Z" fill="#659dc9" stroke="#659dc9" stroke-width="1.51"/><path d="M1414,6L1366,125L1417,155Z" fill="#8aaad1" stroke="#8aaad1" stroke-width="1.51"/><path d="M1269,607L1326,657L1498,516Z" fill="#4c93c2" stroke="#4c93c2" stroke-width="1.51"/><path d="M1243,460L1269,607L1498,516Z" fill="#5799c6" stroke="#5799c6" stroke-width="1.51"/><path d="M1326,657L1411,687L1498,516Z" fill="#468fc1" stroke="#468fc1" stroke-width="1.51"/><path d="M1326,657L1301,809L1411,687Z" fill="#388dbe" stroke="#388dbe" stroke-width="1.51"/><path d="M1359,174L1284,315L1412,200Z" fill="#7ea6ce" stroke="#7ea6ce" stroke-width="1.51"/><path d="M1267,1108L1359,1261L1414,1063Z" fill="#1b71a5" stroke="#1b71a5" stroke-width="1.51"/><path d="M1404,-136L1343,-10L1414,6Z" fill="#95b2d5" stroke="#95b2d5" stroke-width="1.51"/><path d="M1343,-10L1366,125L1414,6Z" fill="#8faed3" stroke="#8faed3" stroke-width="1.51"/><path d="M1411,687L1301,809L1427,830Z" fill="#2d87bc" stroke="#2d87bc" stroke-width="1.51"/><path d="M1301,809L1341,925L1427,830Z" fill="#2782ba" stroke="#2782ba" stroke-width="1.51"/><path d="M1267,1108L1244,1199L1359,1261Z" fill="#1f70a1" stroke="#1f70a1" stroke-width="1.51"/><path d="M1341,925L1267,1108L1414,1063Z" fill="#1d77af" stroke="#1d77af" stroke-width="1.51"/><path d="M1359,174L1412,200L1417,155Z" fill="#82a6ce" stroke="#82a6ce" stroke-width="1.51"/><path d="M1366,125L1359,174L1417,155Z" fill="#86a8d0" stroke="#86a8d0" stroke-width="1.51"/><path d="M1203,-64L1343,-10L1404,-136Z" fill="#99b7d7" stroke="#99b7d7" stroke-width="1.51"/><path d="M1224,-218L1203,-64L1404,-136Z" fill="#9ebcda" stroke="#9ebcda" stroke-width="1.51"/><path d="M312,-259L537,-202L929,-269Z" fill="#d6daeb" stroke="#d6daeb" stroke-width="1.51"/><path d="M1208,705L1301,809L1326,657Z" fill="#3a90c0" stroke="#3a90c0" stroke-width="1.51"/><path d="M1220,923L1267,1108L1341,925Z" fill="#237db4" stroke="#237db4" stroke-width="1.51"/><path d="M1244,1199L1140,1350L1359,1261Z" fill="#216b98" stroke="#216b98" stroke-width="1.51"/><path d="M1181,267L1284,315L1359,174Z" fill="#7ea9cf" stroke="#7ea9cf" stroke-width="1.51"/><path d="M1225,23L1359,174L1366,125Z" fill="#8daed2" stroke="#8daed2" stroke-width="1.51"/><path d="M1343,-10L1225,23L1366,125Z" fill="#91b1d4" stroke="#91b1d4" stroke-width="1.51"/><path d="M1225,23L1181,267L1359,174Z" fill="#8aafd3" stroke="#8aafd3" stroke-width="1.51"/><path d="M1208,705L1216,779L1301,809Z" fill="#378fc0" stroke="#378fc0" stroke-width="1.51"/><path d="M1301,809L1220,923L1341,925Z" fill="#2983ba" stroke="#2983ba" stroke-width="1.51"/><path d="M1203,-64L1225,23L1343,-10Z" fill="#98b7d7" stroke="#98b7d7" stroke-width="1.51"/><path d="M1269,607L1208,705L1326,657Z" fill="#4695c4" stroke="#4695c4" stroke-width="1.51"/><path d="M1216,779L1220,923L1301,809Z" fill="#3189bd" stroke="#3189bd" stroke-width="1.51"/><path d="M1063,30L1181,267L1225,23Z" fill="#97b6d6" stroke="#97b6d6" stroke-width="1.51"/><path d="M1181,267L1087,375L1243,460Z" fill="#78a8cf" stroke="#78a8cf" stroke-width="1.51"/><path d="M1087,375L1142,468L1243,460Z" fill="#71a5cd" stroke="#71a5cd" stroke-width="1.51"/><path d="M1220,923L1015,1051L1267,1108Z" fill="#3280b4" stroke="#3280b4" stroke-width="1.51"/><path d="M1243,460L1142,468L1269,607Z" fill="#619fc9" stroke="#619fc9" stroke-width="1.51"/><path d="M1181,267L1243,460L1284,315Z" fill="#76a7ce" stroke="#76a7ce" stroke-width="1.51"/><path d="M1015,1051L1055,1183L1267,1108Z" fill="#377dad" stroke="#377dad" stroke-width="1.51"/><path d="M1142,468L1034,551L1269,607Z" fill="#63a1cb" stroke="#63a1cb" stroke-width="1.51"/><path d="M1034,551L1041,648L1269,607Z" fill="#5e9ec9" stroke="#5e9ec9" stroke-width="1.51"/><path d="M1041,648L1208,705L1269,607Z" fill="#5199c5" stroke="#5199c5" stroke-width="1.51"/><path d="M1055,1183L1244,1199L1267,1108Z" fill="#2d77a8" stroke="#2d77a8" stroke-width="1.51"/><path d="M1071,-99L1203,-64L1224,-218Z" fill="#a5c1dd" stroke="#a5c1dd" stroke-width="1.51"/><path d="M1055,1183L1140,1350L1244,1199Z" fill="#30719e" stroke="#30719e" stroke-width="1.51"/><path d="M1063,30L972,231L1181,267Z" fill="#96b6d6" stroke="#96b6d6" stroke-width="1.51"/><path d="M1216,779L973,787L1220,923Z" fill="#408ec0" stroke="#408ec0" stroke-width="1.51"/><path d="M1094,-278L1071,-99L1224,-218Z" fill="#abc5df" stroke="#abc5df" stroke-width="1.51"/><path d="M1203,-64L1063,30L1225,23Z" fill="#9ebbda" stroke="#9ebbda" stroke-width="1.51"/><path d="M973,787L1015,1051L1220,923Z" fill="#428abf" stroke="#428abf" stroke-width="1.51"/><path d="M1208,705L1041,648L1216,779Z" fill="#4996c4" stroke="#4996c4" stroke-width="1.51"/><path d="M1041,648L973,787L1216,779Z" fill="#4e98c5" stroke="#4e98c5" stroke-width="1.51"/><path d="M1071,-99L1063,30L1203,-64Z" fill="#a4bfdc" stroke="#a4bfdc" stroke-width="1.51"/><path d="M972,231L1087,375L1181,267Z" fill="#89b0d3" stroke="#89b0d3" stroke-width="1.51"/><path d="M972,231L958,317L1087,375Z" fill="#8db2d5" stroke="#8db2d5" stroke-width="1.51"/><path d="M1055,1183L961,1231L1140,1350Z" fill="#3a749e" stroke="#3a749e" stroke-width="1.51"/><path d="M961,1231L929,1337L1140,1350Z" fill="#3c7198" stroke="#3c7198" stroke-width="1.51"/><path d="M1087,375L1034,551L1142,468Z" fill="#73a7ce" stroke="#73a7ce" stroke-width="1.51"/><path d="M973,787L887,1009L1015,1051Z" fill="#4c8cc0" stroke="#4c8cc0" stroke-width="1.51"/><path d="M953,725L973,787L1041,648Z" fill="#599dc8" stroke="#599dc8" stroke-width="1.51"/><path d="M936,-24L1063,30L1071,-99Z" fill="#abc3de" stroke="#abc3de" stroke-width="1.51"/><path d="M910,501L1034,551L1087,375Z" fill="#78aacf" stroke="#78aacf" stroke-width="1.51"/><path d="M958,317L910,501L1087,375Z" fill="#84afd3" stroke="#84afd3" stroke-width="1.51"/><path d="M929,-269L1071,-99L1094,-278Z" fill="#b3cae2" stroke="#b3cae2" stroke-width="1.51"/><path d="M-114,-281L149,-244L312,-259Z" fill="#f2ecf5" stroke="#f2ecf5" stroke-width="1.51"/><path d="M832,81L972,231L1063,30Z" fill="#a6bddb" stroke="#a6bddb" stroke-width="1.51"/><path d="M936,-24L832,81L1063,30Z" fill="#acc2de" stroke="#acc2de" stroke-width="1.51"/><path d="M929,-269L936,-24L1071,-99Z" fill="#b4c9e1" stroke="#b4c9e1" stroke-width="1.51"/><path d="M1015,1051L961,1231L1055,1183Z" fill="#427ead" stroke="#427ead" stroke-width="1.51"/><path d="M832,81L913,231L972,231Z" fill="#a3bcda" stroke="#a3bcda" stroke-width="1.51"/><path d="M891,1067L961,1231L1015,1051Z" fill="#4982b1" stroke="#4982b1" stroke-width="1.51"/><path d="M1034,551L910,501L1041,648Z" fill="#6ea6cd" stroke="#6ea6cd" stroke-width="1.51"/><path d="M910,501L953,725L1041,648Z" fill="#69a3cc" stroke="#69a3cc" stroke-width="1.51"/><path d="M312,-259L478,-206L537,-202Z" fill="#dfdeed" stroke="#dfdeed" stroke-width="1.51"/><path d="M929,-269L779,-166L936,-24Z" fill="#bccde4" stroke="#bccde4" stroke-width="1.51"/><path d="M840,778L887,1009L973,787Z" fill="#5995c4" stroke="#5995c4" stroke-width="1.51"/><path d="M887,1009L891,1067L1015,1051Z" fill="#4d88b8" stroke="#4d88b8" stroke-width="1.51"/><path d="M537,-202L779,-166L929,-269Z" fill="#c9d4e7" stroke="#c9d4e7" stroke-width="1.51"/><path d="M754,735L840,778L953,725Z" fill="#64a0ca" stroke="#64a0ca" stroke-width="1.51"/><path d="M729,590L754,735L953,725Z" fill="#70a5cd" stroke="#70a5cd" stroke-width="1.51"/><path d="M910,501L729,590L953,725Z" fill="#75a8ce" stroke="#75a8ce" stroke-width="1.51"/><path d="M742,365L910,501L958,317Z" fill="#8eb3d5" stroke="#8eb3d5" stroke-width="1.51"/><path d="M913,231L958,317L972,231Z" fill="#97b7d7" stroke="#97b7d7" stroke-width="1.51"/><path d="M953,725L840,778L973,787Z" fill="#5c9cc8" stroke="#5c9cc8" stroke-width="1.51"/><path d="M891,1067L788,1046L961,1231Z" fill="#5085b3" stroke="#5085b3" stroke-width="1.51"/><path d="M788,1046L710,1321L961,1231Z" fill="#5381ab" stroke="#5381ab" stroke-width="1.51"/><path d="M710,1321L929,1337L961,1231Z" fill="#4b779c" stroke="#4b779c" stroke-width="1.51"/><path d="M913,231L742,365L958,317Z" fill="#98b7d8" stroke="#98b7d8" stroke-width="1.51"/><path d="M840,778L740,791L887,1009Z" fill="#6098c6" stroke="#6098c6" stroke-width="1.51"/><path d="M730,-5L832,81L936,-24Z" fill="#b6c7e0" stroke="#b6c7e0" stroke-width="1.51"/><path d="M779,-166L730,-5L936,-24Z" fill="#bdcce3" stroke="#bdcce3" stroke-width="1.51"/><path d="M669,1101L710,1321L788,1046Z" fill="#5e88b2" stroke="#5e88b2" stroke-width="1.51"/><path d="M718,314L742,365L913,231Z" fill="#9fbada" stroke="#9fbada" stroke-width="1.51"/><path d="M37,1283L-227,1272L200,1324Z" fill="#8392ad" stroke="#8392ad" stroke-width="1.51"/><path d="M740,791L788,1046L887,1009Z" fill="#5d91c3" stroke="#5d91c3" stroke-width="1.51"/><path d="M832,81L749,124L913,231Z" fill="#acc0dd" stroke="#acc0dd" stroke-width="1.51"/><path d="M749,124L718,314L913,231Z" fill="#a7bedc" stroke="#a7bedc" stroke-width="1.51"/><path d="M742,365L729,590L910,501Z" fill="#8ab1d4" stroke="#8ab1d4" stroke-width="1.51"/><path d="M583,1299L451,1336L710,1321Z" fill="#627d9f" stroke="#627d9f" stroke-width="1.51"/><path d="M887,1009L788,1046L891,1067Z" fill="#558aba" stroke="#558aba" stroke-width="1.51"/><path d="M740,791L643,978L788,1046Z" fill="#6595c5" stroke="#6595c5" stroke-width="1.51"/><path d="M654,444L652,534L729,590Z" fill="#8fb3d5" stroke="#8fb3d5" stroke-width="1.51"/><path d="M654,444L729,590L742,365Z" fill="#93b5d6" stroke="#93b5d6" stroke-width="1.51"/><path d="M754,735L740,791L840,778Z" fill="#69a1ca" stroke="#69a1ca" stroke-width="1.51"/><path d="M730,-5L749,124L832,81Z" fill="#b7c6e1" stroke="#b7c6e1" stroke-width="1.51"/><path d="M631,239L718,314L749,124Z" fill="#aec0dd" stroke="#aec0dd" stroke-width="1.51"/><path d="M556,-34L730,-5L779,-166Z" fill="#c7d0e6" stroke="#c7d0e6" stroke-width="1.51"/><path d="M643,978L669,1101L788,1046Z" fill="#648fbd" stroke="#648fbd" stroke-width="1.51"/><path d="M729,590L617,702L754,735Z" fill="#7ba9cf" stroke="#7ba9cf" stroke-width="1.51"/><path d="M537,-202L556,-34L779,-166Z" fill="#ced5e8" stroke="#ced5e8" stroke-width="1.51"/><path d="M669,1101L583,1299L710,1321Z" fill="#6082a8" stroke="#6082a8" stroke-width="1.51"/><path d="M560,908L643,978L740,791Z" fill="#6f9bc8" stroke="#6f9bc8" stroke-width="1.51"/><path d="M730,-5L561,147L749,124Z" fill="#bcc8e1" stroke="#bcc8e1" stroke-width="1.51"/><path d="M617,702L740,791L754,735Z" fill="#72a5cd" stroke="#72a5cd" stroke-width="1.51"/><path d="M543,1162L583,1299L669,1101Z" fill="#6789b0" stroke="#6789b0" stroke-width="1.51"/><path d="M561,147L631,239L749,124Z" fill="#b8c5df" stroke="#b8c5df" stroke-width="1.51"/><path d="M556,-34L561,147L730,-5Z" fill="#c4cde4" stroke="#c4cde4" stroke-width="1.51"/><path d="M617,702L560,908L740,791Z" fill="#74a2cc" stroke="#74a2cc" stroke-width="1.51"/><path d="M718,314L654,444L742,365Z" fill="#9eb9d9" stroke="#9eb9d9" stroke-width="1.51"/><path d="M652,534L617,702L729,590Z" fill="#85afd2" stroke="#85afd2" stroke-width="1.51"/><path d="M631,239L654,444L718,314Z" fill="#a6bcdb" stroke="#a6bcdb" stroke-width="1.51"/><path d="M494,731L560,908L617,702Z" fill="#7ca7ce" stroke="#7ca7ce" stroke-width="1.51"/><path d="M631,239L418,377L654,444Z" fill="#abbfdc" stroke="#abbfdc" stroke-width="1.51"/><path d="M643,978L508,1051L669,1101Z" fill="#6c92be" stroke="#6c92be" stroke-width="1.51"/><path d="M508,1051L543,1162L669,1101Z" fill="#6c90ba" stroke="#6c90ba" stroke-width="1.51"/><path d="M494,731L617,702L652,534Z" fill="#86aed3" stroke="#86aed3" stroke-width="1.51"/><path d="M379,494L494,731L652,534Z" fill="#94b5d7" stroke="#94b5d7" stroke-width="1.51"/><path d="M379,494L652,534L654,444Z" fill="#9bb9d9" stroke="#9bb9d9" stroke-width="1.51"/><path d="M418,377L379,494L654,444Z" fill="#a7bedb" stroke="#a7bedb" stroke-width="1.51"/><path d="M388,277L418,377L631,239Z" fill="#b7c4e0" stroke="#b7c4e0" stroke-width="1.51"/><path d="M560,908L508,1051L643,978Z" fill="#7197c4" stroke="#7197c4" stroke-width="1.51"/><path d="M556,-34L462,86L561,147Z" fill="#c9cee5" stroke="#c9cee5" stroke-width="1.51"/><path d="M561,147L388,277L631,239Z" fill="#bbc7e1" stroke="#bbc7e1" stroke-width="1.51"/><path d="M537,-202L442,-97L556,-34Z" fill="#d5d8e9" stroke="#d5d8e9" stroke-width="1.51"/><path d="M494,731L396,767L560,908Z" fill="#81a7cf" stroke="#81a7cf" stroke-width="1.51"/><path d="M543,1162L477,1186L583,1299Z" fill="#6b88ae" stroke="#6b88ae" stroke-width="1.51"/><path d="M477,1186L451,1336L583,1299Z" fill="#6a84a6" stroke="#6a84a6" stroke-width="1.51"/><path d="M478,-206L442,-97L537,-202Z" fill="#dadbeb" stroke="#dadbeb" stroke-width="1.51"/><path d="M280,999L508,1051L560,908Z" fill="#7a9ac6" stroke="#7a9ac6" stroke-width="1.51"/><path d="M462,86L388,277L561,147Z" fill="#c4cbe3" stroke="#c4cbe3" stroke-width="1.51"/><path d="M396,767L280,999L560,908Z" fill="#81a2cd" stroke="#81a2cd" stroke-width="1.51"/><path d="M508,1051L477,1186L543,1162Z" fill="#7090b8" stroke="#7090b8" stroke-width="1.51"/><path d="M442,-97L462,86L556,-34Z" fill="#d1d4e7" stroke="#d1d4e7" stroke-width="1.51"/><path d="M379,494L396,767L494,731Z" fill="#91b3d5" stroke="#91b3d5" stroke-width="1.51"/><path d="M250,1132L477,1186L508,1051Z" fill="#7894bb" stroke="#7894bb" stroke-width="1.51"/><path d="M280,999L250,1132L508,1051Z" fill="#7e99c2" stroke="#7e99c2" stroke-width="1.51"/><path d="M379,494L227,677L396,767Z" fill="#99b7d7" stroke="#99b7d7" stroke-width="1.51"/><path d="M293,782L280,999L396,767Z" fill="#89a9d0" stroke="#89a9d0" stroke-width="1.51"/><path d="M442,-97L314,55L462,86Z" fill="#d5d5e8" stroke="#d5d5e8" stroke-width="1.51"/><path d="M314,55L388,277L462,86Z" fill="#cdcfe5" stroke="#cdcfe5" stroke-width="1.51"/><path d="M262,1328L451,1336L477,1186Z" fill="#7187a7" stroke="#7187a7" stroke-width="1.51"/><path d="M250,1132L262,1328L477,1186Z" fill="#798fb1" stroke="#798fb1" stroke-width="1.51"/><path d="M312,-259L442,-97L478,-206Z" fill="#dfdeed" stroke="#dfdeed" stroke-width="1.51"/><path d="M249,529L227,677L379,494Z" fill="#a5bedb" stroke="#a5bedb" stroke-width="1.51"/><path d="M314,55L275,255L388,277Z" fill="#cbcee5" stroke="#cbcee5" stroke-width="1.51"/><path d="M312,-259L239,-124L442,-97Z" fill="#e3e0ee" stroke="#e3e0ee" stroke-width="1.51"/><path d="M239,-124L314,55L442,-97Z" fill="#dedbec" stroke="#dedbec" stroke-width="1.51"/><path d="M227,677L293,782L396,767Z" fill="#90b3d4" stroke="#90b3d4" stroke-width="1.51"/><path d="M388,277L265,320L418,377Z" fill="#bcc7e1" stroke="#bcc7e1" stroke-width="1.51"/><path d="M265,320L379,494L418,377Z" fill="#b5c4df" stroke="#b5c4df" stroke-width="1.51"/><path d="M205,176L275,255L314,55Z" fill="#d1d3e7" stroke="#d1d3e7" stroke-width="1.51"/><path d="M265,320L249,529L379,494Z" fill="#b1c4de" stroke="#b1c4de" stroke-width="1.51"/><path d="M275,255L265,320L388,277Z" fill="#c3cbe3" stroke="#c3cbe3" stroke-width="1.51"/><path d="M250,1132L200,1324L262,1328Z" fill="#7a8ead" stroke="#7a8ead" stroke-width="1.51"/><path d="M150,435L249,529L265,320Z" fill="#b7c7e1" stroke="#b7c7e1" stroke-width="1.51"/><path d="M111,981L280,999L293,782Z" fill="#8aa6cf" stroke="#8aa6cf" stroke-width="1.51"/><path d="M149,-244L239,-124L312,-259Z" fill="#eae5f1" stroke="#eae5f1" stroke-width="1.51"/><path d="M239,-124L77,-17L314,55Z" fill="#e1dfee" stroke="#e1dfee" stroke-width="1.51"/><path d="M77,-17L205,176L314,55Z" fill="#dbdaeb" stroke="#dbdaeb" stroke-width="1.51"/><path d="M67,765L111,981L293,782Z" fill="#92afd4" stroke="#92afd4" stroke-width="1.51"/><path d="M77,-17L91,137L205,176Z" fill="#dddbec" stroke="#dddbec" stroke-width="1.51"/><path d="M126,1125L250,1132L280,999Z" fill="#849cc2" stroke="#849cc2" stroke-width="1.51"/><path d="M171,686L67,765L293,782Z" fill="#96b6d7" stroke="#96b6d7" stroke-width="1.51"/><path d="M227,677L171,686L293,782Z" fill="#97b6d7" stroke="#97b6d7" stroke-width="1.51"/><path d="M126,1125L200,1324L250,1132Z" fill="#8195b8" stroke="#8195b8" stroke-width="1.51"/><path d="M111,981L126,1125L280,999Z" fill="#88a1c8" stroke="#88a1c8" stroke-width="1.51"/><path d="M171,686L227,677L249,529Z" fill="#a1bdda" stroke="#a1bdda" stroke-width="1.51"/><path d="M205,176L265,320L275,255Z" fill="#c9cfe5" stroke="#c9cfe5" stroke-width="1.51"/><path d="M76,534L171,686L249,529Z" fill="#a9c1dd" stroke="#a9c1dd" stroke-width="1.51"/><path d="M205,176L23,340L265,320Z" fill="#cad0e6" stroke="#cad0e6" stroke-width="1.51"/><path d="M23,340L150,435L265,320Z" fill="#c2cde4" stroke="#c2cde4" stroke-width="1.51"/><path d="M77,-17L54,88L91,137Z" fill="#e1deed" stroke="#e1deed" stroke-width="1.51"/><path d="M58,172L23,340L205,176Z" fill="#d3d5e9" stroke="#d3d5e9" stroke-width="1.51"/><path d="M150,435L76,534L249,529Z" fill="#b3c6e0" stroke="#b3c6e0" stroke-width="1.51"/><path d="M126,1125L37,1283L200,1324Z" fill="#8193b2" stroke="#8193b2" stroke-width="1.51"/><path d="M149,-244L77,-17L239,-124Z" fill="#eae5f1" stroke="#eae5f1" stroke-width="1.51"/><path d="M-114,-281L28,-209L149,-244Z" fill="#f4eef6" stroke="#f4eef6" stroke-width="1.51"/><path d="M28,-209L77,-17L149,-244Z" fill="#eee9f3" stroke="#eee9f3" stroke-width="1.51"/><path d="M91,137L58,172L205,176Z" fill="#d8d8ea" stroke="#d8d8ea" stroke-width="1.51"/><path d="M37,736L67,765L171,686Z" fill="#9cbbd9" stroke="#9cbbd9" stroke-width="1.51"/><path d="M76,534L7,597L171,686Z" fill="#aac3de" stroke="#aac3de" stroke-width="1.51"/><path d="M7,597L37,736L171,686Z" fill="#a3bfdb" stroke="#a3bfdb" stroke-width="1.51"/><path d="M67,765L-80,901L111,981Z" fill="#95b0d4" stroke="#95b0d4" stroke-width="1.51"/><path d="M111,981L-39,1102L126,1125Z" fill="#8ca2c7" stroke="#8ca2c7" stroke-width="1.51"/><path d="M23,340L76,534L150,435Z" fill="#bdcce3" stroke="#bdcce3" stroke-width="1.51"/><path d="M28,-209L-36,-64L77,-17Z" fill="#eee9f3" stroke="#eee9f3" stroke-width="1.51"/><path d="M-49,1061L-39,1102L111,981Z" fill="#8fa5ca" stroke="#8fa5ca" stroke-width="1.51"/><path d="M-39,1102L37,1283L126,1125Z" fill="#899dbe" stroke="#899dbe" stroke-width="1.51"/><path d="M-80,901L-49,1061L111,981Z" fill="#92aacf" stroke="#92aacf" stroke-width="1.51"/><path d="M-102,276L23,340L58,172Z" fill="#d3d7ea" stroke="#d3d7ea" stroke-width="1.51"/><path d="M23,340L-155,455L76,534Z" fill="#c0cee5" stroke="#c0cee5" stroke-width="1.51"/><path d="M54,88L58,172L91,137Z" fill="#dddbec" stroke="#dddbec" stroke-width="1.51"/><path d="M-155,455L-119,573L7,597Z" fill="#b7cbe3" stroke="#b7cbe3" stroke-width="1.51"/><path d="M37,736L-80,901L67,765Z" fill="#9ab7d8" stroke="#9ab7d8" stroke-width="1.51"/><path d="M-155,455L7,597L76,534Z" fill="#b6cae3" stroke="#b6cae3" stroke-width="1.51"/><path d="M-36,-64L54,88L77,-17Z" fill="#e7e3f0" stroke="#e7e3f0" stroke-width="1.51"/><path d="M7,597L-96,665L37,736Z" fill="#a7c2dd" stroke="#a7c2dd" stroke-width="1.51"/><path d="M-196,32L-102,276L54,88Z" fill="#e2e0ee" stroke="#e2e0ee" stroke-width="1.51"/><path d="M54,88L-102,276L58,172Z" fill="#dbdbeb" stroke="#dbdbeb" stroke-width="1.51"/><path d="M-36,-64L-196,32L54,88Z" fill="#e9e5f1" stroke="#e9e5f1" stroke-width="1.51"/><path d="M-96,665L-80,901L37,736Z" fill="#9ebcda" stroke="#9ebcda" stroke-width="1.51"/><path d="M-39,1102L-227,1272L37,1283Z" fill="#8a9bb8" stroke="#8a9bb8" stroke-width="1.51"/><path d="M-102,276L-155,455L23,340Z" fill="#cbd4e8" stroke="#cbd4e8" stroke-width="1.51"/><path d="M-114,-281L-36,-64L28,-209Z" fill="#f4edf6" stroke="#f4edf6" stroke-width="1.51"/><path d="M-80,901L-142,1018L-49,1061Z" fill="#94abd0" stroke="#94abd0" stroke-width="1.51"/><path d="M-119,573L-96,665L7,597Z" fill="#aec6e0" stroke="#aec6e0" stroke-width="1.51"/><path d="M-96,665L-227,882L-80,901Z" fill="#9eb9da" stroke="#9eb9da" stroke-width="1.51"/><path d="M-232,1086L-227,1272L-39,1102Z" fill="#90a3c3" stroke="#90a3c3" stroke-width="1.51"/><path d="M-114,-281L-215,-2L-36,-64Z" fill="#f3edf6" stroke="#f3edf6" stroke-width="1.51"/><path d="M-215,-2L-196,32L-36,-64Z" fill="#eee9f3" stroke="#eee9f3" stroke-width="1.51"/><path d="M-49,1061L-142,1018L-39,1102Z" fill="#91a6ca" stroke="#91a6ca" stroke-width="1.51"/><path d="M-142,1018L-232,1086L-39,1102Z" fill="#93a8ca" stroke="#93a8ca" stroke-width="1.51"/><path d="M-227,882L-142,1018L-80,901Z" fill="#98b0d5" stroke="#98b0d5" stroke-width="1.51"/><path d="M-119,573L-227,882L-96,665Z" fill="#a7c3de" stroke="#a7c3de" stroke-width="1.51"/><path d="M-196,32L-155,455L-102,276Z" fill="#d8dbeb" stroke="#d8dbeb" stroke-width="1.51"/><path d="M-155,455L-227,882L-119,573Z" fill="#afc7e1" stroke="#afc7e1" stroke-width="1.51"/><path d="M-196,32L-215,-2L-155,455Z" fill="#e2e1ee" stroke="#e2e1ee" stroke-width="1.51"/><path d="M-227,882L-232,1086L-142,1018Z" fill="#97add1" stroke="#97add1" stroke-width="1.51"/><path d="M-215,-2L-227,882L-155,455Z" fill="#c5d3e8" stroke="#c5d3e8" stroke-width="1.51"/></svg>