<?xml version="1.0" encoding="utf-8"?>
<!-- Generator: Adobe Illustrator 18.0.0, SVG Export Plug-In . SVG Version: 6.00 Build 0)  -->
<!DOCTYPE svg PUBLIC "-//W3C//DTD SVG 1.1//EN" "http://www.w3.org/Graphics/SVG/1.1/DTD/svg11.dtd">
<svg version="1.1" id="Layer_1" xmlns="http://www.w3.org/2000/svg" xmlns:xlink="http://www.w3.org/1999/xlink" x="0px" y="0px"
	 viewBox="0 0 300 300" enable-background="new 0 0 300 300" xml:space="preserve">
<g>
	<g id="XMLID_1_">
		<g>
			<path fill="#2D2A2B" d="M209.1,178.5c1.8-0.6,3.4,5,5,7.2c2.4,1.4,5,2.5,7.7,3.3c2.7,0.8,5.5,1.4,8.4,1.8
				c2.8,0.2,5.5,0.3,8.3,0.5c5.5,0.2,16.6,0.4,16.6,0.4h5.1c22.1,0,40,18,40,40.1v68.6h-0.1H-0.2v-68.8c0-22.2,17.9-40.1,40-40.1
				c0,0,4,0,11,0c2.3,0,5,0,7.9,0c2.8-0.3,5.8-0.4,8.7-0.5c3-0.1,6-0.3,8.9-0.4c3.8-0.6,7.2-1.6,10.3-3c2.2-1,4.9-5.5,6.1-3.6
				c0.1,0.2,5.7,5,15.2,9.7c0,0,0.1,0,0.1,0.1c0.5,0.2,0.9,0.4,1.4,0.7c0.5,0.2,0.9,0.5,1.4,0.7c0.6,0.3,1.3,0.6,1.9,0.9
				c0.3,0.2,0.7,0.3,1,0.4c0.7,0.3,1.4,0.6,2.1,0.8c0.6,0.2,1.2,0.5,1.8,0.7c8.8,3.3,19.5,5.7,31.4,5.3
				C172.5,203.1,193.6,193.7,209.1,178.5z"/>
			<path fill="#C2C4C6" d="M209.1,178.4c-15.2,14.8-35.8,24.1-58.5,24.8c7.9-0.4,16.4-1.8,24.9-4.6c0.6-0.2,1.3-0.4,1.9-0.6
				c0,0,0,0,0,0c10.6-3.8,21.2-9.8,31.2-19.2C208.8,178.5,208.9,178.4,209.1,178.4z"/>
			<path fill="#C2C4C6" d="M150.6,203.2c-0.2,0-0.4,0-0.5,0c-0.3,0-0.5,0-0.8,0C149.8,203.2,150.2,203.2,150.6,203.2z"/>
			<path fill="#C2C4C6" d="M111.1,195.1c0.6,0.3,1.3,0.6,1.9,0.9C112.3,195.7,111.7,195.4,111.1,195.1z"/>
			<path fill="#C2C4C6" d="M109.7,194.4c0.5,0.2,0.9,0.4,1.4,0.7C110.6,194.9,110.1,194.7,109.7,194.4z"/>
			<path fill="#58595B" d="M111.1,195.1c0.6,0.3,1.2,0.6,1.9,0.9C112.4,195.7,111.7,195.4,111.1,195.1c-0.5-0.3-0.9-0.5-1.4-0.7
				C110.1,194.7,110.6,194.9,111.1,195.1z M109.6,194.4c-0.5-0.2-0.9-0.4-1.4-0.7l-0.1-0.1c-28.3-14.5-47.7-43.9-47.7-77.9
				c0-24.2,9.8-46,25.6-61.9s37.7-25.6,61.9-25.6s46,9.8,61.9,25.6s25.6,37.7,25.6,61.9s-9.8,46-25.6,61.9c-0.3,0.3-0.5,0.5-0.8,0.8
				c-0.2,0-0.3,0.1-0.5,0.3c-9.9,9.4-20.6,15.4-31.1,19.2c0,0,0,0,0,0c-0.6,0.2-1.3,0.4-1.9,0.6c-8.5,2.8-16.9,4.2-24.9,4.6
				c-0.4,0-0.9,0-1.3,0c0,0-0.1,0-0.1,0c-0.4,0-0.9,0-1.3,0c-10.6,0-20.7-1.9-30.1-5.3c-0.6-0.2-1.2-0.4-1.8-0.7
				c-0.7-0.3-1.4-0.6-2.1-0.8c-0.1,0-0.2-0.1-0.2-0.1c-0.1,0-0.2-0.1-0.3-0.1c-0.2-0.1-0.3-0.1-0.5-0.2c-0.7-0.3-1.3-0.6-1.9-0.9
				C110.5,194.9,110.1,194.7,109.6,194.4z"/>
		</g>
		<g>
		</g>
	</g>
</g>
</svg>
