<?xml version="1.0" encoding="utf-8"?>
<!-- Generator: Adobe Illustrator 18.0.0, SVG Export Plug-In . SVG Version: 6.00 Build 0)  -->
<!DOCTYPE svg PUBLIC "-//W3C//DTD SVG 1.1//EN" "http://www.w3.org/Graphics/SVG/1.1/DTD/svg11.dtd">
<svg version="1.1" id="Layer_1" xmlns="http://www.w3.org/2000/svg" xmlns:xlink="http://www.w3.org/1999/xlink" x="0px" y="0px"
	 viewBox="0 0 300 300" enable-background="new 0 0 300 300" xml:space="preserve">
<linearGradient id="SVGID_1_" gradientUnits="userSpaceOnUse" x1="150.1" y1="300.4" x2="150.1" y2="-6.738446e-009">
	<stop  offset="0.5561" style="stop-color:#FFF79B"/>
	<stop  offset="0.7951" style="stop-color:#1F3982"/>
	<stop  offset="0.9512" style="stop-color:#000012"/>
</linearGradient>
<rect fill="url(#SVGID_1_)" width="300.2" height="300.4"/>
<g id="XMLID_1_">
	<g>
		<path fill="#0FA74B" d="M303.8,163.1c0.1,0.9,0.2,1.8,0.2,2.6c-0.1,0.9-0.3,1.9-0.5,2.8c-0.8-7.2-2.3-15-9.3-19.4
			c-0.6-0.6-1.2-1.1-1.8-1.7c-5.1-4.8-8.7-8.6-18.6-5.4c-0.8-0.3-1.6-0.6-2.3-0.9c-0.6-0.2-1.2-0.5-1.8-0.7c-0.9-0.3-2-0.7-3.1-1.1
			c-0.6-0.2-1.1-0.4-1.7-0.5c-2-0.2-3-0.2-5-0.2c-1,0-1,1.8-1.3,3c0.1,1.2,0.3,2.3,0.3,2.3c-3.1,0.2-6,0.1-8.9,0
			c-0.7,0-1.5-0.1-2.2-0.1c-1.7,0.4-3.4,0.7-5.1,0.9c-0.9,0.1-1.7,0.2-2.6,0.3c-3-1.1-6-2-9.1-2.5c0.9-2.8,1.7-5.7,2.3-8.7
			c2.3,0.6,4.5,1.3,6.7,2.1c0.9-0.1,1.7-0.2,2.6-0.3c1.7-0.3,3.4-0.6,5.1-1c0.8,0.1,1.5,0.1,2.2,0.2c2.9,0.2,5.9,0.2,8.9,0
			c0,0-0.3-1.2-0.3-2.5c0.3-1.3,0.3-3.2,1.3-3.2c2,0,3,0,5,0.2c0.6,0.2,1.1,0.3,1.7,0.5c1.1,0.4,2.2,0.8,3.1,1.1
			c0.6,0.2,1.2,0.5,1.8,0.7c0.7,0.3,1.5,0.6,2.3,0.9c9.8-3.3,13.4,0.6,18.6,5.8c0.6,0.6,1.2,1.1,1.8,1.7
			C302,145.4,303,154.9,303.8,163.1z"/>
		<path fill="#0C763C" d="M303.8,170.7c0.1,0.8,0.2,1.7,0.2,2.5c-0.3,2.2-0.8,4.5-1.4,6.8c-1.1,4.6-2.3,9.3-2.6,13.6
			c-0.1,1.6-0.2,3.3-0.2,4.9c0-0.8,0-1.7,0-2.5c0-2.8,0.1-5.7,0.2-8.6c0.3-4.5,1.5-9.5,2.6-14.4c0.3-1.5,0.6-3,0.9-4.4
			C303.6,169.3,303.7,170,303.8,170.7z"/>
		<path fill="#0C763C" d="M303.5,168.5c-0.3,1.4-0.6,2.9-0.9,4.4c-1.1,4.9-2.3,9.9-2.6,14.4c-0.2,2.9-0.2,5.8-0.2,8.6
			c0,0.8,0,1.7,0,2.5c0,1.1,0,2.2,0,3.2c0,2.7,0.1,5.3,0.3,7.8c0,1.9,0,3.8,0,5.8c0,5.3,0,10.9,0,16.5c0-22.1-17.9-40.1-40-40.1
			h-5.1c0,0-11.1-0.2-16.6-0.4c-2.8-0.2-5.5-0.3-8.3-0.5c-2.9-0.4-5.7-1-8.4-1.8s-5.3-1.9-7.7-3.3c-1.6-2.2-3.2-7.8-5-7.2
			c-15.2,14.9-35.6,24.2-58.5,24.8v-0.1c22.7-0.7,43.3-10,58.5-24.8c0,0-0.1,0-0.1,0v0c0.3-0.3,0.5-0.5,0.8-0.8
			c9.6-9.7,17.1-21.6,21.4-34.9c3,0.6,6,1.5,9.1,2.5c0.9-0.1,1.7-0.2,2.6-0.3c1.7-0.2,3.4-0.5,5.1-0.9c0.8,0.1,1.5,0.1,2.2,0.1
			c2.9,0.2,5.9,0.2,8.9,0c0,0-0.3-1.1-0.3-2.3c0.3-1.2,0.3-3,1.3-3c2,0,3,0,5,0.2c0.6,0.1,1.1,0.3,1.7,0.5c1.1,0.4,2.2,0.8,3.1,1.1
			c0.6,0.2,1.2,0.4,1.8,0.7c0.7,0.3,1.5,0.6,2.3,0.9c9.8-3.2,13.4,0.6,18.6,5.4c0.6,0.5,1.2,1.1,1.8,1.7
			C301.3,153.6,302.8,161.4,303.5,168.5z"/>
		<path fill="#2D2A2B" d="M300.2,231.8v68.6h-0.1H-0.2v-68.8c0-22.2,17.9-40.1,40-40.1c0,0,4,0,11,0c2.3,0,5,0,7.9,0
			c2.8-0.3,5.8-0.4,8.7-0.5c3-0.1,6-0.3,8.9-0.4c3.8-0.6,7.2-1.6,10.3-3c2.2-1,4.9-5.5,6.1-3.6c0.1,0.2,5.7,5,15.2,9.7
			c0,0,0.1,0,0.1,0.1c0.5,0.2,0.9,0.4,1.4,0.7c0.5,0.2,0.9,0.5,1.4,0.7c0.6,0.3,1.3,0.6,1.9,0.9c0.3,0.2,0.7,0.3,1,0.4
			c0.7,0.3,1.4,0.6,2.1,0.8c0.6,0.2,1.2,0.5,1.8,0.7c8.8,3.3,19.5,5.7,31.4,5.3c0.5,0,1.1,0,1.6,0c22.9-0.6,43.3-9.9,58.5-24.8
			c1.8-0.6,3.4,5,5,7.2c2.4,1.4,5,2.5,7.7,3.3s5.5,1.4,8.4,1.8c2.8,0.2,5.5,0.3,8.3,0.5c5.5,0.2,16.6,0.4,16.6,0.4h5.1
			C282.3,191.7,300.2,209.7,300.2,231.8z"/>
		<path fill="#0FA74B" d="M300.2,204.2c0,1.7,0,3.5,0,5.3c-0.2-2.5-0.3-5.1-0.3-7.8c0-1.1,0-2.1,0-3.2
			C300,200.4,300,202.4,300.2,204.2z"/>
		<path fill="#58595B" d="M235.4,115.7c0,6.3-0.7,12.4-1.9,18.3c-5.9-1.6-12-2-18.6,0.2c-0.8-0.1-1.7-0.3-2.5-0.4
			c-0.8,0.2-1.6,0.4-2.4,0.7c-3,1.2-5.5,3.4-7,7.2c-1,1-3,1.9-4.8,2.1c-0.9,0.3-1.8,0.5-2.7,0.8c-2.7,0.7-5.4,1.4-8.2,2.1
			c-0.9,0.1-1.9,0.2-2.8,0.3c-3.8,0.3-7.8,0.1-12-0.7c-2.2,0.1-4.5,0.2-6.7,0.4c-6.7,0.6-13.4,1.7-20,3.8c-3.1,1-6,2.1-8.9,3.3
			c-8.8,3.8-17.1,9-24.9,16.1c-3,1.1-6.1,2-9.3,2.8c-6.1,1.6-12.3,2.6-18.4,3.1c-12.2-12.8-20.5-29.3-23.1-47.6
			c-0.2-1-0.3-2-0.4-3.1c0-0.6,0-1.2-0.1-1.8c0.7-0.3,1.5-0.7,2.4-1.1c0,0,0.4-0.4,1.2-1c7.8-2.9,4.9-9.2,3.4-15.5
			c-0.2-0.8-0.3-1.6-0.5-2.4c1.5-8,3.1-16.1,0.9-23.9c4.4-9.6,10.4-18.3,17.8-25.6c15.8-15.9,37.7-25.6,61.9-25.6s46,9.8,61.9,25.6
			S235.4,91.5,235.4,115.7z"/>
		<path fill="#58595B" d="M233.5,134c-0.6,2.9-1.4,5.8-2.3,8.7c-5.2-1-10.5-1.1-16.3,0.7c-0.8-0.1-1.7-0.3-2.5-0.4
			c-0.8,0.2-1.6,0.4-2.4,0.7c-3,1.1-5.5,3.2-7,6.8c-1,0.9-3,1.8-4.8,2c-0.9,0.3-1.8,0.5-2.7,0.7c-2.7,0.7-5.4,1.4-8.2,2
			c-0.9,0.1-1.9,0.2-2.8,0.3c-3.8,0.3-7.8,0.1-12-0.7c-2.2,0.1-4.5,0.2-6.7,0.4c-6.7,0.5-13.4,1.6-20,3.6c-3.1,0.9-6,1.9-8.9,3.1
			c-8.8,3.6-17.1,8.6-24.9,15.2c-3,1.1-6.1,1.9-9.3,2.7c-4,1-8,1.7-12,2.3c-2.3-1.9-4.4-4-6.5-6.2c6.2-0.5,12.3-1.6,18.4-3.1
			c3.1-0.8,6.2-1.7,9.3-2.8c7.8-7,16.1-12.3,24.9-16.1c2.9-1.3,5.9-2.4,8.9-3.3c6.6-2.1,13.3-3.3,20-3.8c2.2-0.2,4.5-0.3,6.7-0.4
			c4.2,0.8,8.2,1,12,0.7c0.9-0.1,1.9-0.1,2.8-0.3c2.7-0.7,5.4-1.4,8.2-2.1c0.9-0.3,1.8-0.5,2.7-0.8c1.8-0.2,3.8-1.2,4.8-2.1
			c1.5-3.8,3.9-6,7-7.2c0.8-0.3,1.5-0.5,2.4-0.7c0.8,0.2,1.7,0.3,2.5,0.4C221.5,132,227.5,132.4,233.5,134z"/>
		<path fill="#58595B" d="M231.2,142.7c-4.3,13.3-11.7,25.2-21.4,34.9c-0.3,0.3-0.5,0.5-0.8,0.8c-0.2,0-0.3,0.1-0.5,0.3
			c-9.9,9.4-20.6,15.4-31.1,19.2c-0.6,0.2-1.3,0.4-1.9,0.6c-8.5,2.8-16.9,4.2-24.9,4.6c-0.4,0-0.9,0-1.3,0h-0.1c-0.4,0-0.9,0-1.3,0
			c-10.6,0-20.7-1.9-30.1-5.3c-0.6-0.2-1.2-0.4-1.8-0.7c-0.7-0.3-1.4-0.6-2.1-0.8c-0.1,0-0.2-0.1-0.2-0.1c-0.1,0-0.2-0.1-0.3-0.1
			c-0.2-0.1-0.3-0.1-0.5-0.2c-0.7-0.3-1.3-0.6-1.9-0.9c0,0-0.1,0-0.1,0c-0.4-0.2-0.8-0.4-1.2-0.6c0.3,0.2,0.6,0.4,0.9,0.5
			c-0.3-0.1-0.7-0.3-1-0.5c-0.5-0.2-0.9-0.4-1.4-0.7l-0.1-0.1c-6.2-3.2-12-7.1-17.3-11.6c4-0.6,8-1.3,12-2.3
			c3.1-0.8,6.2-1.6,9.3-2.7c7.8-6.6,16.1-11.6,24.9-15.2c2.9-1.2,5.9-2.2,8.9-3.1c6.6-2,13.3-3.1,20-3.6c2.2-0.2,4.5-0.3,6.7-0.4
			c4.2,0.7,8.2,0.9,12,0.7c0.9-0.1,1.9-0.1,2.8-0.3c2.7-0.6,5.4-1.3,8.2-2c0.9-0.2,1.8-0.5,2.7-0.7c1.8-0.2,3.8-1.1,4.8-2
			c1.5-3.6,3.9-5.7,7-6.8c0.8-0.3,1.5-0.5,2.4-0.7c0.8,0.1,1.7,0.3,2.5,0.4C220.6,141.6,225.9,141.7,231.2,142.7z"/>
		<path fill="#C2C4C6" d="M209,178.4c0,0,0.1,0,0.1,0c-15.2,14.8-35.8,24.1-58.5,24.8c7.9-0.4,16.4-1.8,24.9-4.6
			c0.6-0.2,1.3-0.4,1.9-0.6c5.3-1.9,10.6-4.4,15.8-7.5c5.2-3.1,10.4-7,15.4-11.7C208.8,178.6,208.9,178.4,209,178.4z"/>
		<path fill="#0C763C" d="M150.6,203.2L150.6,203.2c-0.5,0.1-1.1,0.1-1.6,0.1c-11.9,0.4-22.6-2-31.4-5.3c-0.6-0.2-1.2-0.5-1.8-0.7
			c-0.7-0.2-1.4-0.5-2.1-0.8c-0.3-0.1-0.7-0.2-1-0.4c-0.6-0.3-1.3-0.6-1.9-0.9c-0.5-0.2-0.9-0.5-1.4-0.7c-0.5-0.3-0.9-0.5-1.4-0.7
			c0-0.1-0.1-0.1-0.1-0.1c-9.5-4.7-15.1-9.5-15.2-9.7c-1.2-1.9-3.9,2.6-6.1,3.6c-3.1,1.4-6.5,2.4-10.3,3c-2.9,0.1-5.9,0.3-8.9,0.4
			c-2.9,0.1-5.9,0.2-8.7,0.5c-2.9,0-5.6,0-7.9,0c-7,0-11,0-11,0c-22.1,0-40,17.9-40,40.1v-59.5c0,0,1.8,0,5.1,0c0.8,0,1.7,0,2.7-0.1
			c2.3-2.7,4.6-4.3,6.7-5c0.7-0.3,1.4-0.4,2.1-0.5c2.5,0.2,5.1,0.5,7.7,1.1c0.6,0.2,1.3,0.3,1.9,0.5c3.8,2,7.5,4.3,11.2,6.1
			c2.1,3.8,9,4.8,12.7,3.2c0,0,0,0,0,0c1.3,0,2.6-0.1,3.9-0.4c0.8,0.2,1.6,0.4,2.4,0.7c1.5,0.6,3,1.6,4.4,3c0.5,0.5,1.1,1,1.6,1.6
			c1,0.1,1.9,0.2,2.9,0.3c8.6,0.7,17.3,0.5,25.8-0.7c5.3,4.5,11,8.4,17.3,11.6l0.1,0.1c0.5,0.3,0.9,0.5,1.4,0.7
			c0.4,0.2,0.7,0.4,1,0.5c0,0,0,0,0,0c0.2,0.1,0.3,0.1,0.5,0.2c0.6,0.3,1.2,0.6,1.9,0.9c-0.6-0.3-1.3-0.6-1.9-0.9
			c-0.1-0.1-0.2-0.1-0.2-0.1c0,0,0.1,0,0.1,0c0.6,0.3,1.2,0.6,1.9,0.9c0.2,0.1,0.3,0.1,0.5,0.2c0.1,0,0.2,0.1,0.3,0.1
			c0,0,0.1,0.1,0.2,0.1c0.7,0.2,1.4,0.5,2.1,0.8c0.6,0.3,1.2,0.5,1.8,0.7c9.4,3.4,19.5,5.3,30.1,5.3c0.4,0,0.9,0,1.3,0h0.1
			C149.7,203.1,150.2,203.1,150.6,203.2c8-0.5,16.4-1.9,24.9-4.7c0.6-0.2,1.3-0.4,1.9-0.6c10.5-3.8,21.2-9.8,31.1-19.2
			c0.2-0.2,0.3-0.3,0.5-0.3v0c-0.1,0-0.2,0.1-0.4,0.4c-5,4.7-10.2,8.6-15.4,11.7c-5.2,3.1-10.5,5.6-15.8,7.5
			c-0.6,0.2-1.3,0.4-1.9,0.6C167,201.4,158.5,202.8,150.6,203.2z"/>
		<path fill="#58595B" d="M111.1,195.1c0.6,0.3,1.3,0.6,1.9,0.9C112.3,195.7,111.7,195.4,111.1,195.1z"/>
		<path fill="#58595B" d="M110.9,195c0.1,0,0.1,0.1,0.2,0.1c-0.2-0.1-0.3-0.1-0.5-0.2C110.7,194.9,110.8,194.9,110.9,195z"/>
		<path fill="#C2C4C6" d="M110.9,195c-0.1,0-0.2,0-0.2-0.1c0,0,0,0,0,0c-0.3-0.1-0.7-0.3-0.9-0.5C110.1,194.6,110.5,194.7,110.9,195
			z"/>
		<path fill="#0FA74B" d="M84.4,175.8c2,2.2,4.2,4.2,6.5,6.2c-8.6,1.2-17.2,1.4-25.8,0.7c-1-0.1-1.9-0.2-2.9-0.3
			c-0.5-0.6-1.1-1.1-1.6-1.6c-1.4-1.4-2.8-2.4-4.4-3c-0.8-0.3-1.6-0.6-2.4-0.7c-1.3,0.3-2.6,0.4-3.9,0.4c0-0.1-0.2-0.4-0.4-0.9
			c0.7-1.9,1-3.8,1-5.6c2.7,0.7,5.3,1.6,7.8,3.1c0.8,0.3,1.5,0.7,2.3,1c0.8,0.3,1.6,0.6,2.4,0.9c2,1,5,0,7.4,0.1
			c0.9,0,1.8,0.1,2.7,0.1C76.9,176.2,80.6,176.1,84.4,175.8z"/>
		<path fill="#58595B" d="M68.2,79.4c2.3,7.8,0.6,15.9-0.9,23.9c0.1,0.8,0.3,1.6,0.5,2.4c1.5,6.3,4.4,12.6-3.4,15.5
			c-0.8,0.6-1.2,1-1.2,1c-0.9,0.4-1.7,0.8-2.4,1.1c-0.3-4.5-1.7-8.9-0.3-13.6c0.1-1,0.2-2,0.3-3C61.8,97.1,64.4,87.9,68.2,79.4z"/>
		<linearGradient id="SVGID_2_" gradientUnits="userSpaceOnUse" x1="15.5753" y1="95.2538" x2="68.23" y2="95.2538">
			<stop  offset="0" style="stop-color:#D33F27"/>
			<stop  offset="1" style="stop-color:#DF8927"/>
		</linearGradient>
		<path fill="url(#SVGID_2_)" d="M66.1,74.4c0.9,1.7,1.6,3.4,2.1,5.1c-3.9,8.5-6.4,17.6-7.4,27.3c-0.1,1-0.2,2-0.3,3
			c-1.4,4.7,0,9.1,0.3,13.6c-1.8,0.8-3.2,1.5-4.7,2c-0.7,0.3-1.4,0.5-2.1,0.7c-0.8,0.2-1.5,0.4-2.3,0.5L33,126c0,0,0,0,0,0.1
			c-3.4-0.4-6.9-1-10.2-2c-0.7-0.1-1.4-0.2-1.9-0.4c-0.6-0.2-1.2-0.6-1.7-1.1c-4-2.5-4-6.5-3.2-11c0.2-0.9,0.4-1.8,0.5-2.8
			c0.2-0.9,0.4-1.9,0.6-2.9c0.4-2.2,0.7-4.4,0.6-6.5c0-0.7-0.1-1.4-0.2-2.1c-2.3-9.7-1.3-18.7,7.6-24.9c0.6-0.6,1.3-1.1,2-1.7
			c2.7-2.2,5.5-4.3,7.7-6.4c0.8-0.2,1.6-0.3,2.4-0.3c7.2-0.1,15.5,5.3,23.6,6.4c0.8,0.3,1.4,0.6,2.1,1c0.7,0.4,1.3,0.8,1.8,1.3
			C65.3,73.2,65.7,73.8,66.1,74.4z"/>
		<linearGradient id="SVGID_3_" gradientUnits="userSpaceOnUse" x1="33" y1="148.5" x2="52" y2="148.5">
			<stop  offset="0" style="stop-color:#643C1D"/>
			<stop  offset="0.9951" style="stop-color:#391900"/>
		</linearGradient>
		<path fill="url(#SVGID_3_)" d="M51.7,126.5l0.3,0c0,0-2,6.5-2,8.3c-0.1,0.9-0.3,1.9-0.5,2.9c-0.2,1-0.4,1.9-0.6,2.8
			c-0.1,0.7-0.2,1.5-0.2,2.2c0,0.7,0,1.5,0.1,2.2c0,0.5,0.1,1.1,0.2,1.6c0.1,0.5,0.1,1.1,0.3,1.6c0,0.9,0.1,1.8,0.2,2.6
			c0.1,0.9,0.2,1.7,0.3,2.6c0.1,0.9,0.2,1.7,0.4,2.6c-0.9,5.3,0.6,9.9,0.3,15c-5.1-1.3-10.5-1.8-15.1-3.5c-0.3-2.9-0.3-5.8-0.2-8.8
			c0-1-0.1-2.1-0.2-3.1c0.2-0.8,0.3-1.5,0.5-2.3c0.1-0.8,0.2-1.5,0.3-2.3c-0.2-1.8-0.3-3.6-0.4-5.3c0-0.6,0-1.1,0-1.7
			c-0.2-0.9-0.4-1.8-0.6-2.8c-0.1-0.7-0.3-1.4-0.5-2.2c-0.2-0.7-1.2-12.1-1.2-13c5.2,0.6,10.3,0.6,14.9,0.6c0.6,0,1.2,0,1.8,0
			C50.4,126.6,51,126.6,51.7,126.5z"/>
		<linearGradient id="SVGID_4_" gradientUnits="userSpaceOnUse" x1="33" y1="126.315" x2="51.72" y2="126.315">
			<stop  offset="0" style="stop-color:#643C1D"/>
			<stop  offset="0.9951" style="stop-color:#391900"/>
		</linearGradient>
		<path fill="url(#SVGID_4_)" d="M33,126l18.7,0.5c-0.7,0.1-1.3,0.1-2,0.1c-0.6,0-1.2,0-1.8,0C43.3,126.6,38.2,126.6,33,126
			C33,126,33,126,33,126z"/>
		<linearGradient id="SVGID_5_" gradientUnits="userSpaceOnUse" x1="37.12" y1="176.1688" x2="49.83" y2="176.1688">
			<stop  offset="0" style="stop-color:#643C1D"/>
			<stop  offset="0.9951" style="stop-color:#391900"/>
		</linearGradient>
		<path fill="url(#SVGID_5_)" d="M49.8,177.4C49.8,177.4,49.8,177.4,49.8,177.4c-3.8,1.6-10.6,0.6-12.7-3.2
			C41.1,176.1,45.2,177.5,49.8,177.4z"/>
		<linearGradient id="SVGID_6_" gradientUnits="userSpaceOnUse" x1="35.39" y1="172.4413" x2="50.48" y2="172.4413">
			<stop  offset="0" style="stop-color:#643C1D"/>
			<stop  offset="0.9951" style="stop-color:#391900"/>
		</linearGradient>
		<path fill="url(#SVGID_6_)" d="M49.8,177.4c-4.6,0.1-8.7-1.3-12.7-3.2c0-0.1-0.1-0.1-0.1-0.2c-0.9-2.2-1.3-4.3-1.6-6.5
			c4.6,1.7,9.9,2.1,15.1,3.5c-0.1,1.8-0.4,3.6-1,5.6C49.7,177,49.8,177.3,49.8,177.4z"/>
		<path fill="#0FA74B" d="M37,174c0,0.1,0.1,0.1,0.1,0.2c-3.7-1.8-7.4-4-11.2-6.1c-0.6-0.2-1.3-0.4-1.9-0.5c-2.5-0.6-5.1-1-7.7-1.1
			c-0.7,0.1-1.4,0.2-2.1,0.5c-2.1,0.7-4.3,2.3-6.7,5c-1,0.1-1.9,0.1-2.7,0.1c-3.3,0-5.1,0-5.1,0v-7.5c0,0,1.8,0,5.1,0
			c0.8,0,1.7,0,2.7-0.1c4.7-5.8,8.8-6.7,12.9-5.3c0.7,0.2,1.4,0.5,2.1,0.9c0.9,0.3,1.7,0.6,2.5,1c0.8,0.4,1.6,0.8,2.4,1.2
			c2.2,2.6,4.9,4.1,7.9,5.2C35.7,169.7,36.1,171.8,37,174z"/>
	</g>
	<g>
	</g>
</g>
</svg>
