<svg xmlns="http://www.w3.org/2000/svg" width="1920" height="1080"><path d="M77,1245L-187,1260L574,1273Z" fill="#7b9e6b" stroke="#7b9e6b" stroke-width="1.51"/><path d="M1040,1248L574,1273L1325,1288Z" fill="#3e844f" stroke="#3e844f" stroke-width="1.51"/><path d="M1019,-182L1234,-172L1585,-176Z" fill="#a4d39a" stroke="#a4d39a" stroke-width="1.51"/><path d="M1743,1205L1537,1268L1965,1222Z" fill="#066134" stroke="#066134" stroke-width="1.51"/><path d="M-12,-198L140,-198L2032,-207Z" fill="#d1ecb6" stroke="#d1ecb6" stroke-width="1.51"/><path d="M140,-198L433,-198L2032,-207Z" fill="#c5e6b0" stroke="#c5e6b0" stroke-width="1.51"/><path d="M433,-198L769,-189L2032,-207Z" fill="#b4dda7" stroke="#b4dda7" stroke-width="1.51"/><path d="M1019,-182L1585,-176L2032,-207Z" fill="#96c28f" stroke="#96c28f" stroke-width="1.51"/><path d="M769,-189L1019,-182L2032,-207Z" fill="#a4d49d" stroke="#a4d49d" stroke-width="1.51"/><path d="M1585,-176L1879,-141L2032,-207Z" fill="#8bb286" stroke="#8bb286" stroke-width="1.51"/><path d="M2081,213L2008,266L2136,358Z" fill="#64955e" stroke="#64955e" stroke-width="1.51"/><path d="M2127,137L2081,213L2136,358Z" fill="#689560" stroke="#689560" stroke-width="1.51"/><path d="M2032,-207L1966,-19L2142,23Z" fill="#82a475" stroke="#82a475" stroke-width="1.51"/><path d="M1989,163L2127,137L2142,23Z" fill="#759c67" stroke="#759c67" stroke-width="1.51"/><path d="M1966,-19L1989,163L2142,23Z" fill="#7ba16b" stroke="#7ba16b" stroke-width="1.51"/><path d="M2127,137L2136,358L2142,23Z" fill="#6f9763" stroke="#6f9763" stroke-width="1.51"/><path d="M2136,358L1981,350L2144,480Z" fill="#558f58" stroke="#558f58" stroke-width="1.51"/><path d="M1981,350L1953,506L2144,480Z" fill="#4f9058" stroke="#4f9058" stroke-width="1.51"/><path d="M2043,766L2115,912L2144,480Z" fill="#247944" stroke="#247944" stroke-width="1.51"/><path d="M2031,583L2043,766L2144,480Z" fill="#36834c" stroke="#36834c" stroke-width="1.51"/><path d="M2142,23L2136,358L2144,480Z" fill="#61915c" stroke="#61915c" stroke-width="1.51"/><path d="M2115,912L2048,949L2145,1055Z" fill="#0d6235" stroke="#0d6235" stroke-width="1.51"/><path d="M2048,949L2079,1166L2145,1055Z" fill="#045d33" stroke="#045d33" stroke-width="1.51"/><path d="M2144,480L2115,912L2145,1055Z" fill="#1a6e3d" stroke="#1a6e3d" stroke-width="1.51"/><path d="M1953,506L2031,583L2144,480Z" fill="#438a53" stroke="#438a53" stroke-width="1.51"/><path d="M1927,-93L1966,-19L2032,-207Z" fill="#85a87b" stroke="#85a87b" stroke-width="1.51"/><path d="M2043,766L1970,867L2115,912Z" fill="#19713d" stroke="#19713d" stroke-width="1.51"/><path d="M2008,266L1981,350L2136,358Z" fill="#60965d" stroke="#60965d" stroke-width="1.51"/><path d="M2048,949L1927,969L2079,1166Z" fill="#086335" stroke="#086335" stroke-width="1.51"/><path d="M1989,163L2081,213L2127,137Z" fill="#719b64" stroke="#719b64" stroke-width="1.51"/><path d="M1888,1195L1743,1205L1965,1222Z" fill="#005d32" stroke="#005d32" stroke-width="1.51"/><path d="M2031,583L1937,665L2043,766Z" fill="#2d834a" stroke="#2d834a" stroke-width="1.51"/><path d="M1927,969L1899,1146L2079,1166Z" fill="#016134" stroke="#016134" stroke-width="1.51"/><path d="M1970,867L2048,949L2115,912Z" fill="#136a39" stroke="#136a39" stroke-width="1.51"/><path d="M1899,1146L1965,1222L2079,1166Z" fill="#005931" stroke="#005931" stroke-width="1.51"/><path d="M1989,163L2008,266L2081,213Z" fill="#6d9c63" stroke="#6d9c63" stroke-width="1.51"/><path d="M1970,867L1927,969L2048,949Z" fill="#126d39" stroke="#126d39" stroke-width="1.51"/><path d="M1966,-19L1856,103L1989,163Z" fill="#7ca76d" stroke="#7ca76d" stroke-width="1.51"/><path d="M1937,665L1970,867L2043,766Z" fill="#207c44" stroke="#207c44" stroke-width="1.51"/><path d="M1920,655L1937,665L2031,583Z" fill="#34884e" stroke="#34884e" stroke-width="1.51"/><path d="M1879,-141L1927,-93L2032,-207Z" fill="#86ab7f" stroke="#86ab7f" stroke-width="1.51"/><path d="M1953,506L1920,655L2031,583Z" fill="#3c8b51" stroke="#3c8b51" stroke-width="1.51"/><path d="M1844,1088L1899,1146L1927,969Z" fill="#046837" stroke="#046837" stroke-width="1.51"/><path d="M1937,665L1809,710L1970,867Z" fill="#238347" stroke="#238347" stroke-width="1.51"/><path d="M1989,163L1781,205L2008,266Z" fill="#70a366" stroke="#70a366" stroke-width="1.51"/><path d="M1781,205L1981,350L2008,266Z" fill="#69a063" stroke="#69a063" stroke-width="1.51"/><path d="M1848,537L1920,655L1953,506Z" fill="#409053" stroke="#409053" stroke-width="1.51"/><path d="M1809,710L1783,867L1970,867Z" fill="#1d8044" stroke="#1d8044" stroke-width="1.51"/><path d="M1776,413L1953,506L1981,350Z" fill="#56995b" stroke="#56995b" stroke-width="1.51"/><path d="M1856,103L1781,205L1989,163Z" fill="#77a96a" stroke="#77a96a" stroke-width="1.51"/><path d="M1899,1146L1888,1195L1965,1222Z" fill="#005c32" stroke="#005c32" stroke-width="1.51"/><path d="M1840,-19L1856,103L1966,-19Z" fill="#82ac71" stroke="#82ac71" stroke-width="1.51"/><path d="M1781,205L1776,413L1981,350Z" fill="#65a262" stroke="#65a262" stroke-width="1.51"/><path d="M1776,413L1848,537L1953,506Z" fill="#4d995a" stroke="#4d995a" stroke-width="1.51"/><path d="M1783,867L1927,969L1970,867Z" fill="#15753d" stroke="#15753d" stroke-width="1.51"/><path d="M1920,655L1809,710L1937,665Z" fill="#2e8a4c" stroke="#2e8a4c" stroke-width="1.51"/><path d="M1927,-93L1840,-19L1966,-19Z" fill="#85ac75" stroke="#85ac75" stroke-width="1.51"/><path d="M1848,537L1822,597L1920,655Z" fill="#3c9152" stroke="#3c9152" stroke-width="1.51"/><path d="M1585,-176L1678,-100L1879,-141Z" fill="#8eb884" stroke="#8eb884" stroke-width="1.51"/><path d="M1783,867L1781,946L1927,969Z" fill="#14763d" stroke="#14763d" stroke-width="1.51"/><path d="M1781,946L1844,1088L1927,969Z" fill="#0c6f3a" stroke="#0c6f3a" stroke-width="1.51"/><path d="M1879,-141L1840,-19L1927,-93Z" fill="#87af7b" stroke="#87af7b" stroke-width="1.51"/><path d="M1822,597L1809,710L1920,655Z" fill="#338e4f" stroke="#338e4f" stroke-width="1.51"/><path d="M1678,-100L1752,-74L1879,-141Z" fill="#8cb580" stroke="#8cb580" stroke-width="1.51"/><path d="M1844,1088L1888,1195L1899,1146Z" fill="#006235" stroke="#006235" stroke-width="1.51"/><path d="M1752,-74L1840,-19L1879,-141Z" fill="#89b27b" stroke="#89b27b" stroke-width="1.51"/><path d="M1844,1088L1743,1205L1888,1195Z" fill="#016335" stroke="#016335" stroke-width="1.51"/><path d="M1840,-19L1742,42L1856,103Z" fill="#83b072" stroke="#83b072" stroke-width="1.51"/><path d="M1781,946L1706,1105L1844,1088Z" fill="#0c6f3a" stroke="#0c6f3a" stroke-width="1.51"/><path d="M1706,1105L1743,1205L1844,1088Z" fill="#066938" stroke="#066938" stroke-width="1.51"/><path d="M1776,413L1729,514L1848,537Z" fill="#4f9c5b" stroke="#4f9c5b" stroke-width="1.51"/><path d="M1708,172L1781,205L1856,103Z" fill="#7bae6d" stroke="#7bae6d" stroke-width="1.51"/><path d="M1742,42L1708,172L1856,103Z" fill="#80b170" stroke="#80b170" stroke-width="1.51"/><path d="M1729,514L1822,597L1848,537Z" fill="#459858" stroke="#459858" stroke-width="1.51"/><path d="M1684,411L1776,413L1781,205Z" fill="#66a763" stroke="#66a763" stroke-width="1.51"/><path d="M1685,836L1783,867L1809,710Z" fill="#238646" stroke="#238646" stroke-width="1.51"/><path d="M1752,-74L1742,42L1840,-19Z" fill="#89b476" stroke="#89b476" stroke-width="1.51"/><path d="M1587,288L1684,411L1781,205Z" fill="#6eac67" stroke="#6eac67" stroke-width="1.51"/><path d="M1701,701L1685,836L1809,710Z" fill="#298c4b" stroke="#298c4b" stroke-width="1.51"/><path d="M1701,701L1809,710L1822,597Z" fill="#34904f" stroke="#34904f" stroke-width="1.51"/><path d="M1729,514L1701,701L1822,597Z" fill="#3e9654" stroke="#3e9654" stroke-width="1.51"/><path d="M1653,540L1701,701L1729,514Z" fill="#449b57" stroke="#449b57" stroke-width="1.51"/><path d="M1708,172L1587,288L1781,205Z" fill="#77af6b" stroke="#77af6b" stroke-width="1.51"/><path d="M1653,540L1627,646L1701,701Z" fill="#3e9955" stroke="#3e9955" stroke-width="1.51"/><path d="M1684,411L1729,514L1776,413Z" fill="#58a15e" stroke="#58a15e" stroke-width="1.51"/><path d="M1668,932L1706,1105L1781,946Z" fill="#15763d" stroke="#15763d" stroke-width="1.51"/><path d="M1668,932L1781,946L1783,867Z" fill="#1a7b3f" stroke="#1a7b3f" stroke-width="1.51"/><path d="M1685,836L1668,932L1783,867Z" fill="#1f8042" stroke="#1f8042" stroke-width="1.51"/><path d="M1639,-17L1742,42L1752,-74Z" fill="#8cb778" stroke="#8cb778" stroke-width="1.51"/><path d="M1668,932L1590,973L1706,1105Z" fill="#17783e" stroke="#17783e" stroke-width="1.51"/><path d="M1641,164L1587,288L1708,172Z" fill="#7ab36d" stroke="#7ab36d" stroke-width="1.51"/><path d="M1641,164L1708,172L1742,42Z" fill="#81b370" stroke="#81b370" stroke-width="1.51"/><path d="M1678,-100L1639,-17L1752,-74Z" fill="#8eb97d" stroke="#8eb97d" stroke-width="1.51"/><path d="M366,1241L77,1245L574,1273Z" fill="#739b65" stroke="#739b65" stroke-width="1.51"/><path d="M1639,-17L1641,164L1742,42Z" fill="#87b774" stroke="#87b774" stroke-width="1.51"/><path d="M1706,1105L1574,1125L1743,1205Z" fill="#0c6c39" stroke="#0c6c39" stroke-width="1.51"/><path d="M1574,1125L1537,1268L1743,1205Z" fill="#0f6a38" stroke="#0f6a38" stroke-width="1.51"/><path d="M1436,1257L1325,1288L1537,1268Z" fill="#186d3b" stroke="#186d3b" stroke-width="1.51"/><path d="M1234,-172L1465,-128L1585,-176Z" fill="#9cc991" stroke="#9cc991" stroke-width="1.51"/><path d="M1586,716L1685,836L1701,701Z" fill="#2c904c" stroke="#2c904c" stroke-width="1.51"/><path d="M1684,411L1653,540L1729,514Z" fill="#53a15e" stroke="#53a15e" stroke-width="1.51"/><path d="M1586,716L1578,803L1685,836Z" fill="#2b8e4a" stroke="#2b8e4a" stroke-width="1.51"/><path d="M1590,973L1574,1125L1706,1105Z" fill="#13753c" stroke="#13753c" stroke-width="1.51"/><path d="M1627,646L1586,716L1701,701Z" fill="#369651" stroke="#369651" stroke-width="1.51"/><path d="M1587,288L1524,321L1684,411Z" fill="#6cae67" stroke="#6cae67" stroke-width="1.51"/><path d="M1525,496L1653,540L1684,411Z" fill="#57a55f" stroke="#57a55f" stroke-width="1.51"/><path d="M1517,474L1525,496L1684,411Z" fill="#5ca861" stroke="#5ca861" stroke-width="1.51"/><path d="M1578,803L1668,932L1685,836Z" fill="#248545" stroke="#248545" stroke-width="1.51"/><path d="M1524,321L1517,474L1684,411Z" fill="#64ac64" stroke="#64ac64" stroke-width="1.51"/><path d="M1518,865L1590,973L1668,932Z" fill="#218142" stroke="#218142" stroke-width="1.51"/><path d="M1578,803L1518,865L1668,932Z" fill="#268746" stroke="#268746" stroke-width="1.51"/><path d="M1585,-176L1639,-17L1678,-100Z" fill="#91bc83" stroke="#91bc83" stroke-width="1.51"/><path d="M1639,-17L1433,122L1641,164Z" fill="#88bb75" stroke="#88bb75" stroke-width="1.51"/><path d="M1585,-176L1465,-128L1639,-17Z" fill="#94bf85" stroke="#94bf85" stroke-width="1.51"/><path d="M1525,496L1627,646L1653,540Z" fill="#4ba05b" stroke="#4ba05b" stroke-width="1.51"/><path d="M1465,-128L1424,-31L1639,-17Z" fill="#96c382" stroke="#96c382" stroke-width="1.51"/><path d="M1424,-31L1433,122L1639,-17Z" fill="#91c27c" stroke="#91c27c" stroke-width="1.51"/><path d="M1483,255L1587,288L1641,164Z" fill="#7ab56d" stroke="#7ab56d" stroke-width="1.51"/><path d="M1433,122L1483,255L1641,164Z" fill="#83ba72" stroke="#83ba72" stroke-width="1.51"/><path d="M989,1237L574,1273L1040,1248Z" fill="#498a54" stroke="#498a54" stroke-width="1.51"/><path d="M1525,496L1431,578L1627,646Z" fill="#4ca45c" stroke="#4ca45c" stroke-width="1.51"/><path d="M1431,578L1442,666L1627,646Z" fill="#45a259" stroke="#45a259" stroke-width="1.51"/><path d="M1442,666L1586,716L1627,646Z" fill="#3b9b54" stroke="#3b9b54" stroke-width="1.51"/><path d="M1444,385L1517,474L1524,321Z" fill="#69b268" stroke="#69b268" stroke-width="1.51"/><path d="M1436,1257L1537,1268L1574,1125Z" fill="#156d3a" stroke="#156d3a" stroke-width="1.51"/><path d="M1442,666L1578,803L1586,716Z" fill="#339851" stroke="#339851" stroke-width="1.51"/><path d="M1483,255L1524,321L1587,288Z" fill="#75b56c" stroke="#75b56c" stroke-width="1.51"/><path d="M1413,1088L1574,1125L1590,973Z" fill="#197b3f" stroke="#197b3f" stroke-width="1.51"/><path d="M1488,935L1413,1088L1590,973Z" fill="#208143" stroke="#208143" stroke-width="1.51"/><path d="M1518,865L1488,935L1590,973Z" fill="#248543" stroke="#248543" stroke-width="1.51"/><path d="M1442,666L1387,828L1518,865Z" fill="#339850" stroke="#339850" stroke-width="1.51"/><path d="M1413,1088L1436,1257L1574,1125Z" fill="#18763e" stroke="#18763e" stroke-width="1.51"/><path d="M1442,666L1518,865L1578,803Z" fill="#30944e" stroke="#30944e" stroke-width="1.51"/><path d="M1387,1062L1413,1088L1488,935Z" fill="#228345" stroke="#228345" stroke-width="1.51"/><path d="M1517,474L1431,578L1525,496Z" fill="#57aa61" stroke="#57aa61" stroke-width="1.51"/><path d="M1483,255L1444,385L1524,321Z" fill="#74b66d" stroke="#74b66d" stroke-width="1.51"/><path d="M1387,828L1488,935L1518,865Z" fill="#2b8e49" stroke="#2b8e49" stroke-width="1.51"/><path d="M1444,385L1356,416L1517,474Z" fill="#67b369" stroke="#67b369" stroke-width="1.51"/><path d="M1356,416L1431,578L1517,474Z" fill="#5eaf66" stroke="#5eaf66" stroke-width="1.51"/><path d="M1356,416L1356,555L1431,578Z" fill="#5cb167" stroke="#5cb167" stroke-width="1.51"/><path d="M1324,190L1444,385L1483,255Z" fill="#7cbd72" stroke="#7cbd72" stroke-width="1.51"/><path d="M1433,122L1324,190L1483,255Z" fill="#87c276" stroke="#87c276" stroke-width="1.51"/><path d="M1387,828L1364,920L1488,935Z" fill="#2c8f4a" stroke="#2c8f4a" stroke-width="1.51"/><path d="M1364,920L1387,1062L1488,935Z" fill="#268847" stroke="#268847" stroke-width="1.51"/><path d="M1319,779L1387,828L1442,666Z" fill="#389f55" stroke="#389f55" stroke-width="1.51"/><path d="M1424,-31L1318,129L1433,122Z" fill="#93c77e" stroke="#93c77e" stroke-width="1.51"/><path d="M1413,1088L1261,1155L1436,1257Z" fill="#1e7b42" stroke="#1e7b42" stroke-width="1.51"/><path d="M1324,190L1356,416L1444,385Z" fill="#78bd71" stroke="#78bd71" stroke-width="1.51"/><path d="M1277,-88L1424,-31L1465,-128Z" fill="#9ccb8a" stroke="#9ccb8a" stroke-width="1.51"/><path d="M1234,-172L1277,-88L1465,-128Z" fill="#a0d093" stroke="#a0d093" stroke-width="1.51"/><path d="M1268,391L1306,409L1324,190Z" fill="#7bc274" stroke="#7bc274" stroke-width="1.51"/><path d="M1324,190L1306,409L1356,416Z" fill="#79bf73" stroke="#79bf73" stroke-width="1.51"/><path d="M1277,-88L1297,-37L1424,-31Z" fill="#9ecf89" stroke="#9ecf89" stroke-width="1.51"/><path d="M1297,-37L1318,129L1424,-31Z" fill="#99cc83" stroke="#99cc83" stroke-width="1.51"/><path d="M1261,1155L1325,1288L1436,1257Z" fill="#1e7641" stroke="#1e7641" stroke-width="1.51"/><path d="M1431,578L1356,555L1442,666Z" fill="#4eaa5f" stroke="#4eaa5f" stroke-width="1.51"/><path d="M1356,555L1319,779L1442,666Z" fill="#45a85c" stroke="#45a85c" stroke-width="1.51"/><path d="M1318,129L1324,190L1433,122Z" fill="#8ec77b" stroke="#8ec77b" stroke-width="1.51"/><path d="M1387,1062L1261,1155L1413,1088Z" fill="#208345" stroke="#208345" stroke-width="1.51"/><path d="M1297,-37L1221,41L1318,129Z" fill="#9bd085" stroke="#9bd085" stroke-width="1.51"/><path d="M1226,549L1319,779L1356,555Z" fill="#4faf62" stroke="#4faf62" stroke-width="1.51"/><path d="M1306,409L1356,555L1356,416Z" fill="#67b86c" stroke="#67b86c" stroke-width="1.51"/><path d="M1364,920L1184,925L1387,1062Z" fill="#2c904c" stroke="#2c904c" stroke-width="1.51"/><path d="M1184,925L1261,1155L1387,1062Z" fill="#288c4b" stroke="#288c4b" stroke-width="1.51"/><path d="M1240,834L1364,920L1387,828Z" fill="#339850" stroke="#339850" stroke-width="1.51"/><path d="M1319,779L1240,834L1387,828Z" fill="#379e54" stroke="#379e54" stroke-width="1.51"/><path d="M1226,549L1148,724L1319,779Z" fill="#4baf61" stroke="#4baf61" stroke-width="1.51"/><path d="M1306,409L1226,549L1356,555Z" fill="#62b86b" stroke="#62b86b" stroke-width="1.51"/><path d="M1240,834L1184,925L1364,920Z" fill="#349951" stroke="#349951" stroke-width="1.51"/><path d="M1206,170L1268,391L1324,190Z" fill="#87c97a" stroke="#87c97a" stroke-width="1.51"/><path d="M1132,610L1148,724L1226,549Z" fill="#5ab668" stroke="#5ab668" stroke-width="1.51"/><path d="M1184,925L1110,1012L1261,1155Z" fill="#339250" stroke="#339250" stroke-width="1.51"/><path d="M1257,-38L1221,41L1297,-37Z" fill="#a0d389" stroke="#a0d389" stroke-width="1.51"/><path d="M1268,391L1186,455L1306,409Z" fill="#71c072" stroke="#71c072" stroke-width="1.51"/><path d="M1186,455L1226,549L1306,409Z" fill="#6bbe70" stroke="#6bbe70" stroke-width="1.51"/><path d="M1148,724L1240,834L1319,779Z" fill="#3fa65a" stroke="#3fa65a" stroke-width="1.51"/><path d="M1318,129L1206,170L1324,190Z" fill="#91cc7e" stroke="#91cc7e" stroke-width="1.51"/><path d="M1261,1155L1175,1169L1325,1288Z" fill="#247f45" stroke="#247f45" stroke-width="1.51"/><path d="M1175,1169L1040,1248L1325,1288Z" fill="#2b7f48" stroke="#2b7f48" stroke-width="1.51"/><path d="M1221,41L1206,170L1318,129Z" fill="#97d083" stroke="#97d083" stroke-width="1.51"/><path d="M1019,-182L1094,-144L1234,-172Z" fill="#b0dba1" stroke="#b0dba1" stroke-width="1.51"/><path d="M1110,1012L1175,1169L1261,1155Z" fill="#2e8b4c" stroke="#2e8b4c" stroke-width="1.51"/><path d="M1277,-88L1257,-38L1297,-37Z" fill="#a1d38d" stroke="#a1d38d" stroke-width="1.51"/><path d="M1206,170L1062,378L1268,391Z" fill="#86ca7b" stroke="#86ca7b" stroke-width="1.51"/><path d="M1062,378L1186,455L1268,391Z" fill="#7ac576" stroke="#7ac576" stroke-width="1.51"/><path d="M1234,-172L1257,-38L1277,-88Z" fill="#a3d493" stroke="#a3d493" stroke-width="1.51"/><path d="M1110,1012L1099,1123L1175,1169Z" fill="#348f4f" stroke="#348f4f" stroke-width="1.51"/><path d="M1234,-172L1094,-144L1257,-38Z" fill="#a8d898" stroke="#a8d898" stroke-width="1.51"/><path d="M1065,165L1062,378L1206,170Z" fill="#95d183" stroke="#95d183" stroke-width="1.51"/><path d="M1103,54L1221,41L1257,-38Z" fill="#a3d58b" stroke="#a3d58b" stroke-width="1.51"/><path d="M1049,-66L1103,54L1257,-38Z" fill="#aad98f" stroke="#aad98f" stroke-width="1.51"/><path d="M1094,-144L1049,-66L1257,-38Z" fill="#acda97" stroke="#acda97" stroke-width="1.51"/><path d="M1062,378L1114,454L1186,455Z" fill="#7bc677" stroke="#7bc677" stroke-width="1.51"/><path d="M1103,54L1206,170L1221,41Z" fill="#9ed487" stroke="#9ed487" stroke-width="1.51"/><path d="M1148,724L1184,925L1240,834Z" fill="#40a359" stroke="#40a359" stroke-width="1.51"/><path d="M1148,724L1039,910L1184,925Z" fill="#45a45a" stroke="#45a45a" stroke-width="1.51"/><path d="M1186,455L1114,454L1226,549Z" fill="#6ebf72" stroke="#6ebf72" stroke-width="1.51"/><path d="M1114,454L1132,610L1226,549Z" fill="#68bd6f" stroke="#68bd6f" stroke-width="1.51"/><path d="M1104,712L1039,910L1148,724Z" fill="#4dac60" stroke="#4dac60" stroke-width="1.51"/><path d="M1103,54L1065,165L1206,170Z" fill="#a0d587" stroke="#a0d587" stroke-width="1.51"/><path d="M1132,610L1104,712L1148,724Z" fill="#55b466" stroke="#55b466" stroke-width="1.51"/><path d="M1039,910L1110,1012L1184,925Z" fill="#409b56" stroke="#409b56" stroke-width="1.51"/><path d="M1099,1123L1040,1248L1175,1169Z" fill="#35884d" stroke="#35884d" stroke-width="1.51"/><path d="M953,749L1039,910L1104,712Z" fill="#53ae63" stroke="#53ae63" stroke-width="1.51"/><path d="M1114,454L992,468L1132,610Z" fill="#72c275" stroke="#72c275" stroke-width="1.51"/><path d="M1049,-66L1005,9L1103,54Z" fill="#b0dd92" stroke="#b0dd92" stroke-width="1.51"/><path d="M910,577L1104,712L1132,610Z" fill="#64bc6e" stroke="#64bc6e" stroke-width="1.51"/><path d="M992,468L910,577L1132,610Z" fill="#72c275" stroke="#72c275" stroke-width="1.51"/><path d="M905,227L1062,378L1065,165Z" fill="#9bd486" stroke="#9bd486" stroke-width="1.51"/><path d="M910,577L953,749L1104,712Z" fill="#63ba6d" stroke="#63ba6d" stroke-width="1.51"/><path d="M959,1046L1099,1123L1110,1012Z" fill="#3e9554" stroke="#3e9554" stroke-width="1.51"/><path d="M1062,378L992,468L1114,454Z" fill="#80c87a" stroke="#80c87a" stroke-width="1.51"/><path d="M1000,400L992,468L1062,378Z" fill="#86cb7d" stroke="#86cb7d" stroke-width="1.51"/><path d="M989,1237L1040,1248L1099,1123Z" fill="#3a884f" stroke="#3a884f" stroke-width="1.51"/><path d="M962,108L1065,165L1103,54Z" fill="#a8d98d" stroke="#a8d98d" stroke-width="1.51"/><path d="M1039,910L959,1046L1110,1012Z" fill="#459b57" stroke="#459b57" stroke-width="1.51"/><path d="M905,227L1000,400L1062,378Z" fill="#93d183" stroke="#93d183" stroke-width="1.51"/><path d="M1005,9L962,108L1103,54Z" fill="#addc91" stroke="#addc91" stroke-width="1.51"/><path d="M910,577L885,634L953,749Z" fill="#6dc072" stroke="#6dc072" stroke-width="1.51"/><path d="M959,1046L989,1237L1099,1123Z" fill="#3e9053" stroke="#3e9053" stroke-width="1.51"/><path d="M851,1174L574,1273L989,1237Z" fill="#4f8e57" stroke="#4f8e57" stroke-width="1.51"/><path d="M1019,-182L1049,-66L1094,-144Z" fill="#b4dea0" stroke="#b4dea0" stroke-width="1.51"/><path d="M953,749L907,818L1039,910Z" fill="#56ad63" stroke="#56ad63" stroke-width="1.51"/><path d="M922,934L959,1046L1039,910Z" fill="#4ca05b" stroke="#4ca05b" stroke-width="1.51"/><path d="M962,108L905,227L1065,165Z" fill="#a8da8d" stroke="#a8da8d" stroke-width="1.51"/><path d="M907,818L922,934L1039,910Z" fill="#53a85f" stroke="#53a85f" stroke-width="1.51"/><path d="M847,13L1005,9L1049,-66Z" fill="#b8e197" stroke="#b8e197" stroke-width="1.51"/><path d="M1019,-182L791,-108L1049,-66Z" fill="#bbe3a4" stroke="#bbe3a4" stroke-width="1.51"/><path d="M791,-108L847,13L1049,-66Z" fill="#bfe49e" stroke="#bfe49e" stroke-width="1.51"/><path d="M959,1046L851,1174L989,1237Z" fill="#469156" stroke="#469156" stroke-width="1.51"/><path d="M905,227L831,353L1000,400Z" fill="#9ad586" stroke="#9ad586" stroke-width="1.51"/><path d="M769,-189L791,-108L1019,-182Z" fill="#c4e6ac" stroke="#c4e6ac" stroke-width="1.51"/><path d="M847,13L962,108L1005,9Z" fill="#b5e096" stroke="#b5e096" stroke-width="1.51"/><path d="M836,468L992,468L1000,400Z" fill="#87cd7f" stroke="#87cd7f" stroke-width="1.51"/><path d="M831,353L836,468L1000,400Z" fill="#92d183" stroke="#92d183" stroke-width="1.51"/><path d="M836,468L910,577L992,468Z" fill="#82ca7d" stroke="#82ca7d" stroke-width="1.51"/><path d="M841,1062L851,1174L959,1046Z" fill="#4d995a" stroke="#4d995a" stroke-width="1.51"/><path d="M824,967L841,1062L922,934Z" fill="#55a35e" stroke="#55a35e" stroke-width="1.51"/><path d="M885,634L808,701L953,749Z" fill="#6abe70" stroke="#6abe70" stroke-width="1.51"/><path d="M922,934L841,1062L959,1046Z" fill="#4f9f5c" stroke="#4f9f5c" stroke-width="1.51"/><path d="M847,13L805,145L962,108Z" fill="#b7e195" stroke="#b7e195" stroke-width="1.51"/><path d="M816,180L905,227L962,108Z" fill="#aedd90" stroke="#aedd90" stroke-width="1.51"/><path d="M805,145L816,180L962,108Z" fill="#b4e092" stroke="#b4e092" stroke-width="1.51"/><path d="M808,701L907,818L953,749Z" fill="#63b86b" stroke="#63b86b" stroke-width="1.51"/><path d="M433,-198L570,-150L769,-189Z" fill="#dbf1b8" stroke="#dbf1b8" stroke-width="1.51"/><path d="M673,1166L574,1273L851,1174Z" fill="#5a955b" stroke="#5a955b" stroke-width="1.51"/><path d="M907,818L778,858L922,934Z" fill="#5cad63" stroke="#5cad63" stroke-width="1.51"/><path d="M778,858L824,967L922,934Z" fill="#5ca861" stroke="#5ca861" stroke-width="1.51"/><path d="M816,180L831,353L905,227Z" fill="#a8db8d" stroke="#a8db8d" stroke-width="1.51"/><path d="M808,701L747,786L907,818Z" fill="#69b96d" stroke="#69b96d" stroke-width="1.51"/><path d="M747,786L778,858L907,818Z" fill="#65b469" stroke="#65b469" stroke-width="1.51"/><path d="M836,468L885,634L910,577Z" fill="#7dc87a" stroke="#7dc87a" stroke-width="1.51"/><path d="M836,468L693,621L885,634Z" fill="#82ca7c" stroke="#82ca7c" stroke-width="1.51"/><path d="M693,621L808,701L885,634Z" fill="#79c576" stroke="#79c576" stroke-width="1.51"/><path d="M816,180L711,170L831,353Z" fill="#b1df90" stroke="#b1df90" stroke-width="1.51"/><path d="M831,353L701,405L836,468Z" fill="#9bd586" stroke="#9bd586" stroke-width="1.51"/><path d="M663,1132L673,1166L841,1062Z" fill="#5b9d5e" stroke="#5b9d5e" stroke-width="1.51"/><path d="M824,967L716,1003L841,1062Z" fill="#5ba460" stroke="#5ba460" stroke-width="1.51"/><path d="M791,-108L723,-49L847,13Z" fill="#c8e8a2" stroke="#c8e8a2" stroke-width="1.51"/><path d="M728,41L805,145L847,13Z" fill="#c0e59a" stroke="#c0e59a" stroke-width="1.51"/><path d="M841,1062L673,1166L851,1174Z" fill="#54995b" stroke="#54995b" stroke-width="1.51"/><path d="M711,170L701,405L831,353Z" fill="#abdc8d" stroke="#abdc8d" stroke-width="1.51"/><path d="M723,-49L728,41L847,13Z" fill="#c7e89e" stroke="#c7e89e" stroke-width="1.51"/><path d="M701,405L693,621L836,468Z" fill="#92d183" stroke="#92d183" stroke-width="1.51"/><path d="M716,1003L663,1132L841,1062Z" fill="#5ca160" stroke="#5ca160" stroke-width="1.51"/><path d="M778,858L716,1003L824,967Z" fill="#61aa63" stroke="#61aa63" stroke-width="1.51"/><path d="M650,424L693,621L701,405Z" fill="#9ad586" stroke="#9ad586" stroke-width="1.51"/><path d="M805,145L711,170L816,180Z" fill="#b9e294" stroke="#b9e294" stroke-width="1.51"/><path d="M728,41L711,170L805,145Z" fill="#bfe598" stroke="#bfe598" stroke-width="1.51"/><path d="M693,621L747,786L808,701Z" fill="#76c374" stroke="#76c374" stroke-width="1.51"/><path d="M609,193L701,405L711,170Z" fill="#b8e293" stroke="#b8e293" stroke-width="1.51"/><path d="M693,621L634,749L747,786Z" fill="#79c475" stroke="#79c475" stroke-width="1.51"/><path d="M608,946L716,1003L778,858Z" fill="#68ad65" stroke="#68ad65" stroke-width="1.51"/><path d="M769,-189L723,-49L791,-108Z" fill="#cce9ab" stroke="#cce9ab" stroke-width="1.51"/><path d="M614,-74L723,-49L769,-189Z" fill="#d1ecab" stroke="#d1ecab" stroke-width="1.51"/><path d="M660,803L608,946L778,858Z" fill="#6eb46a" stroke="#6eb46a" stroke-width="1.51"/><path d="M747,786L660,803L778,858Z" fill="#6eb86c" stroke="#6eb86c" stroke-width="1.51"/><path d="M650,424L616,604L693,621Z" fill="#93d283" stroke="#93d283" stroke-width="1.51"/><path d="M570,-150L614,-74L769,-189Z" fill="#d6eeb1" stroke="#d6eeb1" stroke-width="1.51"/><path d="M601,834L608,946L660,803Z" fill="#74b76d" stroke="#74b76d" stroke-width="1.51"/><path d="M609,193L625,413L701,405Z" fill="#b0de8f" stroke="#b0de8f" stroke-width="1.51"/><path d="M615,1084L663,1132L716,1003Z" fill="#63a362" stroke="#63a362" stroke-width="1.51"/><path d="M639,65L711,170L728,41Z" fill="#c7e89c" stroke="#c7e89c" stroke-width="1.51"/><path d="M634,749L660,803L747,786Z" fill="#75be71" stroke="#75be71" stroke-width="1.51"/><path d="M609,193L513,304L625,413Z" fill="#b9e294" stroke="#b9e294" stroke-width="1.51"/><path d="M614,-74L639,65L723,-49Z" fill="#d2eda3" stroke="#d2eda3" stroke-width="1.51"/><path d="M723,-49L639,65L728,41Z" fill="#cceaa0" stroke="#cceaa0" stroke-width="1.51"/><path d="M547,483L616,604L650,424Z" fill="#9dd687" stroke="#9dd687" stroke-width="1.51"/><path d="M639,65L609,193L711,170Z" fill="#c6e89a" stroke="#c6e89a" stroke-width="1.51"/><path d="M608,946L615,1084L716,1003Z" fill="#68a965" stroke="#68a965" stroke-width="1.51"/><path d="M616,604L634,749L693,621Z" fill="#85ca7b" stroke="#85ca7b" stroke-width="1.51"/><path d="M625,413L650,424L701,405Z" fill="#a5d98a" stroke="#a5d98a" stroke-width="1.51"/><path d="M625,413L547,483L650,424Z" fill="#a5da8b" stroke="#a5da8b" stroke-width="1.51"/><path d="M663,1132L574,1273L673,1166Z" fill="#60995e" stroke="#60995e" stroke-width="1.51"/><path d="M614,-74L509,-3L639,65Z" fill="#d6efa5" stroke="#d6efa5" stroke-width="1.51"/><path d="M615,1084L574,1273L663,1132Z" fill="#629c5f" stroke="#629c5f" stroke-width="1.51"/><path d="M634,749L601,834L660,803Z" fill="#78be71" stroke="#78be71" stroke-width="1.51"/><path d="M433,1167L574,1273L615,1084Z" fill="#679d62" stroke="#679d62" stroke-width="1.51"/><path d="M616,604L479,766L634,749Z" fill="#84c97a" stroke="#84c97a" stroke-width="1.51"/><path d="M500,71L609,193L639,65Z" fill="#ceeb9e" stroke="#ceeb9e" stroke-width="1.51"/><path d="M509,-3L500,71L639,65Z" fill="#d5eea3" stroke="#d5eea3" stroke-width="1.51"/><path d="M608,946L490,923L615,1084Z" fill="#70ae68" stroke="#70ae68" stroke-width="1.51"/><path d="M479,766L601,834L634,749Z" fill="#7ec174" stroke="#7ec174" stroke-width="1.51"/><path d="M601,834L490,923L608,946Z" fill="#75b46c" stroke="#75b46c" stroke-width="1.51"/><path d="M483,269L513,304L609,193Z" fill="#c2e698" stroke="#c2e698" stroke-width="1.51"/><path d="M403,639L479,766L616,604Z" fill="#8fce80" stroke="#8fce80" stroke-width="1.51"/><path d="M513,304L547,483L625,413Z" fill="#aede8f" stroke="#aede8f" stroke-width="1.51"/><path d="M490,923L390,1102L615,1084Z" fill="#72ac69" stroke="#72ac69" stroke-width="1.51"/><path d="M390,1102L423,1143L615,1084Z" fill="#6fa666" stroke="#6fa666" stroke-width="1.51"/><path d="M423,1143L433,1167L615,1084Z" fill="#6da365" stroke="#6da365" stroke-width="1.51"/><path d="M547,483L425,532L616,604Z" fill="#9dd688" stroke="#9dd688" stroke-width="1.51"/><path d="M425,532L403,639L616,604Z" fill="#9ad486" stroke="#9ad486" stroke-width="1.51"/><path d="M570,-150L509,-3L614,-74Z" fill="#dbf0ad" stroke="#dbf0ad" stroke-width="1.51"/><path d="M500,71L483,269L609,193Z" fill="#cceb9c" stroke="#cceb9c" stroke-width="1.51"/><path d="M479,766L490,923L601,834Z" fill="#7dbc71" stroke="#7dbc71" stroke-width="1.51"/><path d="M479,766L427,852L490,923Z" fill="#81be73" stroke="#81be73" stroke-width="1.51"/><path d="M433,-198L509,-3L570,-150Z" fill="#e0f3b4" stroke="#e0f3b4" stroke-width="1.51"/><path d="M433,1167L366,1241L574,1273Z" fill="#6c9a62" stroke="#6c9a62" stroke-width="1.51"/><path d="M513,304L333,410L547,483Z" fill="#b6e192" stroke="#b6e192" stroke-width="1.51"/><path d="M403,639L390,669L479,766Z" fill="#92ce80" stroke="#92ce80" stroke-width="1.51"/><path d="M332,221L483,269L500,71Z" fill="#d1ed9f" stroke="#d1ed9f" stroke-width="1.51"/><path d="M433,-198L330,-53L509,-3Z" fill="#e6f5b3" stroke="#e6f5b3" stroke-width="1.51"/><path d="M333,410L425,532L547,483Z" fill="#addd8f" stroke="#addd8f" stroke-width="1.51"/><path d="M387,883L390,1102L490,923Z" fill="#7cb36d" stroke="#7cb36d" stroke-width="1.51"/><path d="M343,52L332,221L500,71Z" fill="#dbf1a5" stroke="#dbf1a5" stroke-width="1.51"/><path d="M343,52L500,71L509,-3Z" fill="#ddf2a7" stroke="#ddf2a7" stroke-width="1.51"/><path d="M483,269L333,410L513,304Z" fill="#c1e697" stroke="#c1e697" stroke-width="1.51"/><path d="M387,883L301,943L390,1102Z" fill="#80b570" stroke="#80b570" stroke-width="1.51"/><path d="M330,-53L343,52L509,-3Z" fill="#e5f5ac" stroke="#e5f5ac" stroke-width="1.51"/><path d="M314,-106L330,-53L433,-198Z" fill="#ebf7ba" stroke="#ebf7ba" stroke-width="1.51"/><path d="M332,221L333,410L483,269Z" fill="#c8e99b" stroke="#c8e99b" stroke-width="1.51"/><path d="M427,852L387,883L490,923Z" fill="#80ba71" stroke="#80ba71" stroke-width="1.51"/><path d="M384,557L403,639L425,532Z" fill="#a2d88a" stroke="#a2d88a" stroke-width="1.51"/><path d="M390,669L427,852L479,766Z" fill="#8ac87a" stroke="#8ac87a" stroke-width="1.51"/><path d="M332,221L258,365L333,410Z" fill="#c9e99b" stroke="#c9e99b" stroke-width="1.51"/><path d="M268,1193L77,1245L366,1241Z" fill="#79a06a" stroke="#79a06a" stroke-width="1.51"/><path d="M186,799L387,883L390,669Z" fill="#90c87c" stroke="#90c87c" stroke-width="1.51"/><path d="M333,410L384,557L425,532Z" fill="#aedd8f" stroke="#aedd8f" stroke-width="1.51"/><path d="M390,669L387,883L427,852Z" fill="#89c478" stroke="#89c478" stroke-width="1.51"/><path d="M214,-126L314,-106L433,-198Z" fill="#edf8bd" stroke="#edf8bd" stroke-width="1.51"/><path d="M140,-198L214,-126L433,-198Z" fill="#f1f9c4" stroke="#f1f9c4" stroke-width="1.51"/><path d="M423,1143L366,1241L433,1167Z" fill="#71a066" stroke="#71a066" stroke-width="1.51"/><path d="M390,1102L366,1241L423,1143Z" fill="#73a367" stroke="#73a367" stroke-width="1.51"/><path d="M278,426L245,486L333,410Z" fill="#bbe396" stroke="#bbe396" stroke-width="1.51"/><path d="M254,110L332,221L343,52Z" fill="#dff2a7" stroke="#dff2a7" stroke-width="1.51"/><path d="M333,410L245,486L384,557Z" fill="#b4e092" stroke="#b4e092" stroke-width="1.51"/><path d="M301,943L223,1096L390,1102Z" fill="#7eb06f" stroke="#7eb06f" stroke-width="1.51"/><path d="M268,1193L366,1241L390,1102Z" fill="#76a268" stroke="#76a268" stroke-width="1.51"/><path d="M194,670L186,799L390,669Z" fill="#99d184" stroke="#99d184" stroke-width="1.51"/><path d="M384,557L204,654L390,669Z" fill="#a1d688" stroke="#a1d688" stroke-width="1.51"/><path d="M384,557L390,669L403,639Z" fill="#9dd487" stroke="#9dd487" stroke-width="1.51"/><path d="M186,799L301,943L387,883Z" fill="#8abf77" stroke="#8abf77" stroke-width="1.51"/><path d="M223,1096L268,1193L390,1102Z" fill="#7aa96c" stroke="#7aa96c" stroke-width="1.51"/><path d="M204,654L194,670L390,669Z" fill="#9fd488" stroke="#9fd488" stroke-width="1.51"/><path d="M245,486L204,654L384,557Z" fill="#abdb8f" stroke="#abdb8f" stroke-width="1.51"/><path d="M252,952L223,1096L301,943Z" fill="#84b572" stroke="#84b572" stroke-width="1.51"/><path d="M330,-53L267,-12L343,52Z" fill="#e9f7af" stroke="#e9f7af" stroke-width="1.51"/><path d="M186,799L252,952L301,943Z" fill="#8bbd77" stroke="#8bbd77" stroke-width="1.51"/><path d="M186,222L258,365L332,221Z" fill="#d3eda1" stroke="#d3eda1" stroke-width="1.51"/><path d="M267,-12L254,110L343,52Z" fill="#e6f5ac" stroke="#e6f5ac" stroke-width="1.51"/><path d="M254,110L186,222L332,221Z" fill="#dcf1a6" stroke="#dcf1a6" stroke-width="1.51"/><path d="M258,365L278,426L333,410Z" fill="#c1e599" stroke="#c1e599" stroke-width="1.51"/><path d="M314,-106L267,-12L330,-53Z" fill="#ecf8b4" stroke="#ecf8b4" stroke-width="1.51"/><path d="M214,-126L267,-12L314,-106Z" fill="#eff9b8" stroke="#eff9b8" stroke-width="1.51"/><path d="M258,365L125,446L278,426Z" fill="#c3e69a" stroke="#c3e69a" stroke-width="1.51"/><path d="M125,446L245,486L278,426Z" fill="#bde498" stroke="#bde498" stroke-width="1.51"/><path d="M97,637L204,654L245,486Z" fill="#addb90" stroke="#addb90" stroke-width="1.51"/><path d="M186,799L91,915L252,952Z" fill="#8fc07a" stroke="#8fc07a" stroke-width="1.51"/><path d="M24,-3L44,74L267,-12Z" fill="#f2fab5" stroke="#f2fab5" stroke-width="1.51"/><path d="M44,74L254,110L267,-12Z" fill="#ebf7b0" stroke="#ebf7b0" stroke-width="1.51"/><path d="M223,1096L77,1245L268,1193Z" fill="#7da66d" stroke="#7da66d" stroke-width="1.51"/><path d="M75,1080L223,1096L252,952Z" fill="#85b373" stroke="#85b373" stroke-width="1.51"/><path d="M214,-126L24,-3L267,-12Z" fill="#f3fab8" stroke="#f3fab8" stroke-width="1.51"/><path d="M125,446L97,637L245,486Z" fill="#b7e197" stroke="#b7e197" stroke-width="1.51"/><path d="M91,915L75,1080L252,952Z" fill="#8bb877" stroke="#8bb877" stroke-width="1.51"/><path d="M186,222L90,396L258,365Z" fill="#d0eca1" stroke="#d0eca1" stroke-width="1.51"/><path d="M90,396L125,446L258,365Z" fill="#c7e89d" stroke="#c7e89d" stroke-width="1.51"/><path d="M85,203L186,222L254,110Z" fill="#e1f4a9" stroke="#e1f4a9" stroke-width="1.51"/><path d="M44,74L85,203L254,110Z" fill="#e8f6ae" stroke="#e8f6ae" stroke-width="1.51"/><path d="M75,1080L77,1245L223,1096Z" fill="#82ab71" stroke="#82ab71" stroke-width="1.51"/><path d="M85,203L90,396L186,222Z" fill="#d9f0a6" stroke="#d9f0a6" stroke-width="1.51"/><path d="M52,758L186,799L194,670Z" fill="#9cd186" stroke="#9cd186" stroke-width="1.51"/><path d="M140,-198L24,-3L214,-126Z" fill="#f6fcc1" stroke="#f6fcc1" stroke-width="1.51"/><path d="M97,637L52,758L194,670Z" fill="#a4d68c" stroke="#a4d68c" stroke-width="1.51"/><path d="M97,637L194,670L204,654Z" fill="#a5d78c" stroke="#a5d78c" stroke-width="1.51"/><path d="M85,203L-2,311L90,396Z" fill="#d8efa7" stroke="#d8efa7" stroke-width="1.51"/><path d="M52,758L91,915L186,799Z" fill="#98c881" stroke="#98c881" stroke-width="1.51"/><path d="M-3,989L75,1080L91,915Z" fill="#8db97a" stroke="#8db97a" stroke-width="1.51"/><path d="M52,758L32,897L91,915Z" fill="#97c681" stroke="#97c681" stroke-width="1.51"/><path d="M-1,597L97,637L125,446Z" fill="#b7e097" stroke="#b7e097" stroke-width="1.51"/><path d="M-12,-198L24,-3L140,-198Z" fill="#fafdc8" stroke="#fafdc8" stroke-width="1.51"/><path d="M-33,1196L-187,1260L77,1245Z" fill="#82a377" stroke="#82a377" stroke-width="1.51"/><path d="M75,1080L-33,1196L77,1245Z" fill="#84a874" stroke="#84a874" stroke-width="1.51"/><path d="M5,223L-2,311L85,203Z" fill="#dff2ac" stroke="#dff2ac" stroke-width="1.51"/><path d="M90,396L-58,446L125,446Z" fill="#c8e8a0" stroke="#c8e8a0" stroke-width="1.51"/><path d="M-58,446L-1,597L125,446Z" fill="#bfe49f" stroke="#bfe49f" stroke-width="1.51"/><path d="M44,74L5,223L85,203Z" fill="#e9f6b0" stroke="#e9f6b0" stroke-width="1.51"/><path d="M32,897L-3,989L91,915Z" fill="#92be7d" stroke="#92be7d" stroke-width="1.51"/><path d="M-1,597L52,758L97,637Z" fill="#aad890" stroke="#aad890" stroke-width="1.51"/><path d="M-2,311L-58,446L90,396Z" fill="#cfeba6" stroke="#cfeba6" stroke-width="1.51"/><path d="M-1,597L-87,723L52,758Z" fill="#a7d792" stroke="#a7d792" stroke-width="1.51"/><path d="M-21,896L32,897L52,758Z" fill="#98c684" stroke="#98c684" stroke-width="1.51"/><path d="M-12,-198L-104,-161L24,-3Z" fill="#fbfdcc" stroke="#fbfdcc" stroke-width="1.51"/><path d="M-102,1109L-33,1196L75,1080Z" fill="#87ae7a" stroke="#87ae7a" stroke-width="1.51"/><path d="M-89,110L5,223L44,74Z" fill="#ecf8b5" stroke="#ecf8b5" stroke-width="1.51"/><path d="M-3,989L-102,1109L75,1080Z" fill="#8ab47c" stroke="#8ab47c" stroke-width="1.51"/><path d="M-21,896L-3,989L32,897Z" fill="#92bf80" stroke="#92bf80" stroke-width="1.51"/><path d="M-87,723L-21,896L52,758Z" fill="#9ecd8b" stroke="#9ecd8b" stroke-width="1.51"/><path d="M24,-3L-89,39L44,74Z" fill="#f4fbbb" stroke="#f4fbbb" stroke-width="1.51"/><path d="M-89,39L-89,110L44,74Z" fill="#f1fabc" stroke="#f1fabc" stroke-width="1.51"/><path d="M-104,-161L-89,39L24,-3Z" fill="#fafcc5" stroke="#fafcc5" stroke-width="1.51"/><path d="M-87,723L-155,848L-21,896Z" fill="#9cca8e" stroke="#9cca8e" stroke-width="1.51"/><path d="M-104,-161L-194,-77L-89,39Z" fill="#fbfecd" stroke="#fbfecd" stroke-width="1.51"/><path d="M-184,413L-58,446L-2,311Z" fill="#cfebac" stroke="#cfebac" stroke-width="1.51"/><path d="M-58,446L-154,601L-1,597Z" fill="#bae1a2" stroke="#bae1a2" stroke-width="1.51"/><path d="M-154,601L-87,723L-1,597Z" fill="#aedb9b" stroke="#aedb9b" stroke-width="1.51"/><path d="M-185,272L-2,311L5,223Z" fill="#def2b1" stroke="#def2b1" stroke-width="1.51"/><path d="M-89,110L-185,272L5,223Z" fill="#e6f5b8" stroke="#e6f5b8" stroke-width="1.51"/><path d="M-21,896L-215,999L-3,989Z" fill="#91bd84" stroke="#91bd84" stroke-width="1.51"/><path d="M-185,272L-184,413L-2,311Z" fill="#d7efb3" stroke="#d7efb3" stroke-width="1.51"/><path d="M-126,1106L-102,1109L-3,989Z" fill="#8bb480" stroke="#8bb480" stroke-width="1.51"/><path d="M-215,999L-126,1106L-3,989Z" fill="#8db784" stroke="#8db784" stroke-width="1.51"/><path d="M-155,848L-215,999L-21,896Z" fill="#95c08a" stroke="#95c08a" stroke-width="1.51"/><path d="M-154,601L-170,676L-87,723Z" fill="#acd99e" stroke="#acd99e" stroke-width="1.51"/><path d="M-212,497L-154,601L-58,446Z" fill="#bfe4a9" stroke="#bfe4a9" stroke-width="1.51"/><path d="M-102,1109L-187,1260L-33,1196Z" fill="#85a87d" stroke="#85a87d" stroke-width="1.51"/><path d="M-126,1106L-187,1260L-102,1109Z" fill="#87ab81" stroke="#87ab81" stroke-width="1.51"/><path d="M-198,95L-185,272L-89,110Z" fill="#ecf7bf" stroke="#ecf7bf" stroke-width="1.51"/><path d="M-184,413L-212,497L-58,446Z" fill="#c8e8ae" stroke="#c8e8ae" stroke-width="1.51"/><path d="M-194,-77L-198,95L-89,39Z" fill="#f7fcc8" stroke="#f7fcc8" stroke-width="1.51"/><path d="M-89,39L-198,95L-89,110Z" fill="#f2fac1" stroke="#f2fac1" stroke-width="1.51"/><path d="M-170,676L-155,848L-87,723Z" fill="#a3d297" stroke="#a3d297" stroke-width="1.51"/><path d="M-215,999L-187,1260L-126,1106Z" fill="#89af85" stroke="#89af85" stroke-width="1.51"/><path d="M-170,676L-215,999L-155,848Z" fill="#9cc993" stroke="#9cc993" stroke-width="1.51"/><path d="M-212,497L-170,676L-154,601Z" fill="#b6dfa6" stroke="#b6dfa6" stroke-width="1.51"/><path d="M-212,497L-215,999L-170,676Z" fill="#a5d69e" stroke="#a5d69e" stroke-width="1.51"/><path d="M-185,272L-212,497L-184,413Z" fill="#d0ecb4" stroke="#d0ecb4" stroke-width="1.51"/><path d="M-198,95L-212,497L-185,272Z" fill="#ddf2bb" stroke="#ddf2bb" stroke-width="1.51"/></svg>