<?xml version="1.0" encoding="utf-8"?>
<!-- Generator: Adobe Illustrator 18.0.0, SVG Export Plug-In . SVG Version: 6.00 Build 0)  -->
<!DOCTYPE svg PUBLIC "-//W3C//DTD SVG 1.1//EN" "http://www.w3.org/Graphics/SVG/1.1/DTD/svg11.dtd">
<svg version="1.1" id="Layer_1" xmlns="http://www.w3.org/2000/svg" xmlns:xlink="http://www.w3.org/1999/xlink" x="0px" y="0px"
	 viewBox="0 0 300 300" enable-background="new 0 0 300 300" xml:space="preserve">
<linearGradient id="SVGID_1_" gradientUnits="userSpaceOnUse" x1="150" y1="2" x2="150" y2="302" gradientTransform="matrix(1 0 0 -1 0 302)">
	<stop  offset="0.4488" style="stop-color:#FDF59E"/>
	<stop  offset="0.7951" style="stop-color:#253C81"/>
	<stop  offset="0.9512" style="stop-color:#0C0D16"/>
</linearGradient>
<rect fill="url(#SVGID_1_)" width="300" height="300"/>
<radialGradient id="SVGID_2_" cx="42.8934" cy="180.8376" r="100" gradientUnits="userSpaceOnUse">
	<stop  offset="0.2927" style="stop-color:#EE3624"/>
	<stop  offset="0.3258" style="stop-color:#EB4B24"/>
	<stop  offset="0.4179" style="stop-color:#E77425"/>
	<stop  offset="0.4634" style="stop-color:#E68125"/>
	<stop  offset="0.5161" style="stop-color:#EFA020;stop-opacity:0.9124"/>
	<stop  offset="0.5723" style="stop-color:#F8BE15;stop-opacity:0.8191"/>
	<stop  offset="0.6169" style="stop-color:#FFD101;stop-opacity:0.745"/>
	<stop  offset="0.6439" style="stop-color:#FFD900;stop-opacity:0.7"/>
	<stop  offset="0.7537" style="stop-color:#FFE300;stop-opacity:0.5026"/>
	<stop  offset="0.922" style="stop-color:#FFF200;stop-opacity:0.2"/>
	<stop  offset="1" style="stop-color:#FFF200;stop-opacity:0"/>
</radialGradient>
<path fill="url(#SVGID_2_)" d="M42.9,280.8L42.9,280.8c-55.2,0-100-44.8-100-100v0c0-55.2,44.8-100,100-100h0
	c55.2,0,100,44.8,100,100v0C142.9,236.1,98.1,280.8,42.9,280.8z"/>
<path fill="#193419" d="M299.7,300h-300c0,0,0-33.1,0-67.1c0-2.6,0-5.2,0-7.9c0-21.4,0-43.6,0-64.8c2.9,1.1,5.9,2.3,8.9,3.6
	c0.6,0.3,1.2,0.5,1.8,0.7c3.4-2.5,5.8-3.3,7.8-3.1c0.5,0.1,0.9,0.2,1.4,0.4c1.1,1.6,3.1,0.5,4.1,1.6c5-7.4,11-2.1,15.6,2.1
	c0.4,0.4,0.8,1,1.1,1.6c1,1.8,1.7,4.1,3.1,5.6c0.3,0.5,0.5,0.9,0.8,1.4c0.9,1.4,1.9,2.9,3.5,3.8c0.5,0.1,1,0.2,1.5,0.2
	c1,0.1,2,0.2,2.9,0.3c0.6,0,1.1,0,1.7,0c0.6,0,1.1,0,1.7,0c1.4-1.3,2.6-2.5,3.7-3.5c0.5-0.5,1.1-1,1.6-1.4c3.8-5.9,9.8-6.9,16.8-6.9
	c2,0,3-2.1,4-4.3c0.4-0.5,0.8-1,1.2-1.4c3.8-4,9.8-4.3,15.7-5.7c0.7-0.3,1.4-0.7,2.1-1c17.7-7.7,36.1-9,55.5,1.6
	c2.6,0.3,5.2,0.5,7.8,0.7c5.2,0.2,10.3,0.1,15.5-0.3c1.5-0.1,3.1-0.3,4.6-0.4c0.5-0.1,1-0.1,1.5-0.2c4-0.4,6.6,1.3,9.1,3
	c0.5,0.3,1,0.7,1.5,1c0.5,0.5,1.1,1,1.7,1.4c3.4,0.6,6.3,1.7,8.9,3.3c0.5,0.3,1,0.6,1.5,0.9c6.3,3.5,12.3,5.6,17.8,1.4
	c0.6-0.3,1.1-0.6,1.7-0.8c0.6-0.2,1.2-0.3,1.8-0.3c1,0,3,0,4.7,0.5c0.7,0.1,1.4,0.3,2.2,0.4c0.7,0.1,1.4,0.2,2.1,0.2
	c0.6-0.6,1.1-1.2,1.7-1.7c3.4-4.6,2.4-9.9,4.4-12c1.5-1.8,3.2-3.5,4.9-5.1c0.6-0.5,1.1-1.1,1.7-1.6c0.2-0.7,0.5-1.4,0.8-2.1
	c0.3-0.7,0.6-1.4,0.8-2.1c-0.2-9.4-0.9-14.7,5.5-18.5c0.6-0.4,1.4-0.8,2.2-1.1c5.1-2.3,10.1-3.3,16.4-4.7c0.8,0.1,1.5,0.2,2.1,0.5
	c6.5,2.6,1.9,14.8,6.4,22.9c0.5,0.4,1,0.7,1.5,1c2.5,1.7,5.1,3.4,5.7,6.7c2,4.2-1,8.5,2.9,12c0.3,0.5,0.6,0.9,0.9,1.4
	c0.4,0.2,0.7,0.4,1.1,0.7s0.7,0.5,1.1,0.8c3,2.1,1,11.6,1,18.9c0,3.9,0,8.2,0,12.8C299.7,236.4,299.7,300,299.7,300z"/>
<linearGradient id="SVGID_3_" gradientUnits="userSpaceOnUse" x1="258.9848" y1="108.8624" x2="272.6904" y2="108.8624">
	<stop  offset="0" style="stop-color:#BC5A1C"/>
	<stop  offset="1" style="stop-color:#442B01"/>
</linearGradient>
<rect x="259" y="80.5" fill="url(#SVGID_3_)" width="13.7" height="56.7"/>
<linearGradient id="SVGID_4_" gradientUnits="userSpaceOnUse" x1="150.3212" y1="300" x2="150.3212" y2="127.6635">
	<stop  offset="0.4634" style="stop-color:#194C1D"/>
	<stop  offset="1" style="stop-color:#00A54C"/>
</linearGradient>
<path fill="url(#SVGID_4_)" d="M300,300H0c0,0,0-31.3,0-63.4c0-2.5,0-4.9,0-7.4C0,209,0,188,0,168c2.9,1,5.9,2.2,8.9,3.4
	c0.6,0.2,1.2,0.5,1.8,0.6c3.4-2.3,5.8-3.1,7.8-2.9c0.5,0.1,0.9,0.2,1.4,0.3C21,171,23,170,24,171c5-7,11-2,15.6,2
	c0.4,0.4,0.8,0.9,1.1,1.5c1,1.7,1.7,3.9,3.1,5.3c0.3,0.4,0.5,0.9,0.8,1.3c0.9,1.3,1.9,2.8,3.5,3.6c0.5,0.1,1,0.2,1.5,0.2
	c1,0.1,2,0.2,2.9,0.3c0.6,0,1.1,0,1.7,0c0.6,0,1.1,0,1.7,0c1.4-1.2,2.6-2.3,3.7-3.3c0.5-0.5,1.1-0.9,1.6-1.3C65,175,71,174,78,174
	c2,0,3-2,4-4c0.4-0.5,0.8-0.9,1.2-1.4c3.8-3.7,9.8-4.1,15.7-5.3c0.7-0.3,1.4-0.6,2.1-0.9c17.7-7.3,36.1-8.5,55.5,1.5
	c2.6,0.3,5.2,0.5,7.8,0.6c5.2,0.2,10.3,0.1,15.5-0.3c1.5-0.1,3.1-0.3,4.6-0.4c0.5-0.1,1-0.1,1.5-0.2c4-0.3,6.6,1.3,9.1,2.8
	c0.5,0.3,1,0.6,1.5,0.9c0.5,0.5,1.1,0.9,1.7,1.3c3.4,0.6,6.3,1.6,8.9,3.1c0.5,0.3,1,0.6,1.5,0.9c6.3,3.3,12.3,5.3,17.8,1.3
	c0.6-0.3,1.1-0.5,1.7-0.7c0.6-0.2,1.2-0.3,1.8-0.3c1,0,3,0,4.7,0.4c0.7,0.1,1.4,0.3,2.2,0.4c0.7,0.1,1.4,0.2,2.1,0.2
	c0.6-0.6,1.1-1.1,1.7-1.6C244,168,243,163,245,161c1.5-1.7,3.2-3.3,4.9-4.8c0.6-0.5,1.1-1,1.7-1.5c0.2-0.7,0.5-1.3,0.8-2
	c0.3-0.7,0.6-1.3,0.8-2c-0.2-8.9-0.9-13.9,5.5-17.5c0.6-0.4,1.4-0.7,2.2-1.1c5.1-2.1,10.1-3.1,16.4-4.5c0.8,0.1,1.5,0.2,2.1,0.4
	c6.5,2.5,1.9,14,6.4,21.6c0.5,0.3,1,0.7,1.5,1c2.5,1.6,5.1,3.2,5.7,6.3c2,4-1,8,2.9,11.3c0.3,0.4,0.6,0.9,0.9,1.3
	c0.4,0.2,0.7,0.4,1.1,0.7s0.7,0.5,1.1,0.7c3,2,1,11,1,17.9c0,3.7,0,7.8,0,12.1C300,240,300,300,300,300z"/>
<path fill="#0E0F0A" d="M210.2,190.6c-10.2-4-17.4-11-21.7-19.5c-1.4-2.8-2.5-5.8-3.3-9c-1.4-5-1.6-10.3-1.4-15.6
	c0.1-2.6,0.3-5.3,0.6-7.9C189,119,182,97,164,85c-7-5-16-6-24-2c-22,13-22,41-23.3,64.3c-0.1,2.1-0.3,4.2-0.5,6.2
	c-0.4,4-1.1,7.9-2.2,11.5c-5,18-29,23-45.5,28.5c-2.2,0.7-4.4,1.2-6.7,1.8c-2.2,0.5-4.5,1-6.7,1.4c-3.2,0.9-6.3,1.9-9.3,3.2
	C18.9,211.3,0,238,0,269v31h300v-31c0-17.3-5.8-33.2-15.6-45.8c-2-2.5-4.1-4.9-6.3-7.2c-6.5-6.5-14.5-11.3-23.2-14.7
	c-2.9-1.1-5.8-2.1-8.8-3c-10.1-1.4-19.1-4.4-28.6-5.6C215,192.1,212.6,191.4,210.2,190.6z"/>
<radialGradient id="SVGID_5_" cx="150" cy="105.8376" r="75" gradientUnits="userSpaceOnUse">
	<stop  offset="0" style="stop-color:#D3D5D6"/>
	<stop  offset="0.3808" style="stop-color:#D2D3D5"/>
	<stop  offset="0.518" style="stop-color:#CCCECF"/>
	<stop  offset="0.6158" style="stop-color:#C2C4C6"/>
	<stop  offset="0.6949" style="stop-color:#B4B6B9"/>
	<stop  offset="0.7626" style="stop-color:#A2A5A7"/>
	<stop  offset="0.8226" style="stop-color:#8E9092"/>
	<stop  offset="0.8755" style="stop-color:#76787A"/>
	<stop  offset="0.8927" style="stop-color:#6D6E71"/>
	<stop  offset="1" style="stop-color:#3A393B"/>
</radialGradient>
<path fill="url(#SVGID_5_)" d="M150,180.8L150,180.8c-41.4,0-75-33.6-75-75v0c0-41.4,33.6-75,75-75h0c41.4,0,75,33.6,75,75v0
	C225,147.3,191.4,180.8,150,180.8z"/>
<linearGradient id="SVGID_6_" gradientUnits="userSpaceOnUse" x1="263.4087" y1="102.3704" x2="263.4087" y2="36.393">
	<stop  offset="4.878049e-003" style="stop-color:#C9B400"/>
	<stop  offset="1" style="stop-color:#DC4C1F"/>
</linearGradient>
<path fill="url(#SVGID_6_)" d="M284,86.2c-11.9,15.2-17.3,24-35.3,6.7c-14.7-14.1-7-27.9-0.8-45.5c8.4-24.1,29.6-2.6,36.5,9.9
	C290,67.4,282.7,75.3,284,86.2z"/>
</svg>
