<?xml version="1.0" encoding="utf-8"?>
<!-- Generator: Adobe Illustrator 18.0.0, SVG Export Plug-In . SVG Version: 6.00 Build 0)  -->
<!DOCTYPE svg PUBLIC "-//W3C//DTD SVG 1.1//EN" "http://www.w3.org/Graphics/SVG/1.1/DTD/svg11.dtd">
<svg version="1.1" id="Layer_1" xmlns="http://www.w3.org/2000/svg" xmlns:xlink="http://www.w3.org/1999/xlink" x="0px" y="0px"
	 viewBox="0 0 300 300" enable-background="new 0 0 300 300" xml:space="preserve">
<g>
	<g id="XMLID_1_">
		<g>
			<path fill="#77787B" d="M300.1,231.6V300H0v-68.5c0-22.1,17.9-40,40-40c0,0,4,0,11,0c2.3,0,5,0,7.9,0c2.8-0.3,5.8-0.4,8.7-0.5
				c3-0.1,6-0.3,8.9-0.4c3.8-0.6,7.2-1.6,10.3-3c2.2-1,4.3-2.3,6.2-3.7c0,0,0,0,0.1,0.1c15,12.1,34.1,19.4,54.8,19.4
				c23.2,0,44.2-9,59.8-23.6c0,0,0,0,0,0.1c1.8,2.2,3.9,4.1,6.3,5.9c2.4,1.4,5,2.5,7.7,3.3c2.7,0.8,5.5,1.4,8.4,1.8
				c2.8,0.2,5.5,0.3,8.3,0.5c5.5,0.2,11.1,0.3,16.6,0.4c3.3,0,5.1,0,5.1,0C282.2,191.6,300.1,209.5,300.1,231.6z"/>
			<path fill="#C2C4C6" d="M209.9,53.9c15.9,15.8,25.6,37.7,25.6,61.9s-9.8,46-25.6,61.9c-0.7,0.7-1.4,1.4-2.1,2
				c-2.2-2.6-4.1-5.5-5.7-8.5c-1.5-2.8-2.8-5.7-4-8.7c-0.6-2.8-1.2-5.7-1.9-8.7c-0.6-3-1.3-6.1-2.1-9.2c-0.6-3.1-1.4-6.3-2.3-9.6
				c-0.9-3.3-1.9-6.7-3.1-10.1C182,104,166,71,139,84c-20,9-20,35-24.6,53.8c-0.7,3.6-1.3,7.1-2,10.5c-0.7,3.3-1.6,6.5-2.6,9.5
				c-1.2,3.6-2.5,7.2-4.1,10.6c-1.6,3.4-3.4,6.7-5.7,9.7c-1,1-4,2-4.9,4.2c-0.7,0.5-1.3,1.1-2,1.6c-19.9-16-32.6-40.6-32.6-68.1
				c0-24.2,9.8-46,25.6-61.9s37.7-25.6,61.9-25.6S194,38.1,209.9,53.9z"/>
			<path fill="#C2C4C6" d="M207.8,179.7L207.8,179.7c-0.1,0-0.1,0-0.1,0c-15.6,14.6-36.6,23.6-59.8,23.6c-20.8,0-39.8-7.3-54.8-19.4
				l0-0.1c0.7-0.5,1.3-1.1,2-1.6c0.9-2.2,3.9-3.2,4.9-4.2c2.3-3,4.1-6.3,5.7-9.7c1.6-3.4,2.9-7,4.1-10.6c1-3,1.9-6.2,2.6-9.5
				c0.7-3.4,1.3-6.9,2-10.5C119,119,119,93,139,84c27-13,43,20,49.7,40.9c1.2,3.4,2.2,6.8,3.1,10.1c0.9,3.3,1.7,6.5,2.3,9.6
				c0.8,3.1,1.5,6.2,2.1,9.2c0.7,3,1.3,5.9,1.9,8.7c1.2,3,2.5,5.9,4,8.7C203.7,174.2,205.6,177.1,207.8,179.7z"/>
		</g>
		<g>
		</g>
	</g>
</g>
</svg>
